<?xml version="1.0" encoding="utf-8"?>
<!-- Generator: Adobe Illustrator 18.0.0, SVG Export Plug-In . SVG Version: 6.00 Build 0)  -->
<!DOCTYPE svg PUBLIC "-//W3C//DTD SVG 1.1//EN" "http://www.w3.org/Graphics/SVG/1.1/DTD/svg11.dtd">
<svg version="1.1" id="图层_1" xmlns="http://www.w3.org/2000/svg" xmlns:xlink="http://www.w3.org/1999/xlink" x="0px" y="0px"
	 viewBox="0 0 960 560" enable-background="new 0 0 960 560" xml:space="preserve">
<g>
	<g>
		<path fill="none" stroke="#FFFFFF" stroke-width="2" stroke-miterlimit="10" d="M561.1,313.4H400.9c-4.5,0-8.1-3.6-8.1-8.1V256
			c0-4.5,3.6-8.1,8.1-8.1h160.3c4.5,0,8.1,3.6,8.1,8.1v49.2C569.3,309.8,565.6,313.4,561.1,313.4z"/>
	</g>
	<g>
		<path fill="#FFFFFF" d="M428.9,265.7v11.2h12.4v1.8h-12.4v14.1h12.7v1.8h-14.7v-30.8h14.7v1.8H428.9z"/>
		<path fill="#FFFFFF" d="M475.5,295.7l-25.9-27.5v26.5h-2v-31.2l25.9,27.3v-26.9h2V295.7z"/>
		<path fill="#FFFFFF" d="M488.9,294.7h-2v-29h-8v-1.8h17.9v1.8h-8V294.7z"/>
		<path fill="#FFFFFF" d="M502.4,265.7v11.2h12.4v1.8h-12.4v14.1h12.7v1.8h-14.7v-30.8h14.7v1.8H502.4z"/>
		<path fill="#FFFFFF" d="M536.4,294.7h-2.2l-10.1-14.6h-1v14.6h-2v-30.8h3.8c2.5,0,4.9,0,7,1.6c2.2,1.6,3.1,4,3.1,6.6
			c0,5.4-3.7,8.1-8.8,8.1L536.4,294.7z M525.6,278.2c1.9,0,3.8-0.1,5.4-1.4c1.5-1.2,2.2-3,2.2-4.9c0-2.3-1.1-4.6-3.3-5.6
			c-1.6-0.8-3.7-0.7-5.5-0.7h-1.3v12.5H525.6z"/>
	</g>
</g>
</svg>
