<?xml version="1.0" encoding="utf-8"?>
<!-- Generator: Adobe Illustrator 19.0.0, SVG Export Plug-In . SVG Version: 6.00 Build 0)  -->
<svg version="1.1" id="图层_1" xmlns="http://www.w3.org/2000/svg" xmlns:xlink="http://www.w3.org/1999/xlink" x="0px" y="0px"
	 viewBox="0 0 960 560" style="enable-background:new 0 0 960 560;" xml:space="preserve">
<style type="text/css">
	.st0{fill:#FFFFFF;}
</style>
<g>
	<g>
		<path class="st0" d="M331.1,195.3c-1.7,2.2-4.5,5.8-5.8,7.4V222h-2.2v-16.6c-1.9,1.9-5.2,4.6-7,5.7l-1.3-1.5
			c3.9-3.1,8.9-7.4,14.9-16c0.6,0.1,1.1,0.6,1.6,0.9L331.1,195.3z M316.8,236.7c-0.6-0.3-1-0.8-1.6-1.2c3-3.2,5.2-6.5,7.3-9.9
			c0.6,0.2,1,0.5,1.5,0.9C321.8,230.1,319.9,233.6,316.8,236.7z M328.5,219.7L327,218c4-2.5,7.5-5.6,10.8-9.3c0.6,0.3,1.1,0.7,1.7,1
			C336.2,213.5,332.7,217.1,328.5,219.7z M354.6,209.4l-2-0.9c0.7-1,1.6-2.1,2.3-3.2l1.9-2.9h-20.2c-2.2,3-4.5,5.7-7.4,7.9
			c-0.6-0.3-1.2-0.8-1.9-1.2c5.3-4.1,9.2-9.9,12.5-15.7c0.6,0.2,1.2,0.6,1.8,0.9c-1.1,2-2.4,4-3.6,6H360
			C358.6,203.6,356.7,206.5,354.6,209.4z M349.5,236.8c-0.7,1.1-1.9,1.9-3.1,1.9h-14.3c-2.3,0-3.8-1.9-3.8-3.5v-10.8h2.2v10.5
			c0.2,0.7,0.8,1.3,1.4,1.7l0.8,0.3h13.2c0.6-0.2,1.3-0.7,1.6-1.3c0.6-2.3,1.6-3.5,1.8-5.5c0.7,0.2,1.2,0.6,1.8,0.9
			C350.7,232.9,350.3,235,349.5,236.8z M340.3,232.5c-1.3-3-2.9-6-4.9-8.6c0.5-0.4,0.9-0.8,1.6-1c1.9,2.7,3.6,5.4,5.1,8.3
			L340.3,232.5z M343.5,221.3c-1.7,0.4-3.6,0.2-5.4,0.2l-0.9-2h5c0.5-0.1,1-0.6,1.2-1l0.2-0.9v-13.6h2.2v14.8
			C345.4,219.8,344.6,220.9,343.5,221.3z M359.6,219.4c-3.4-3.2-7-6.4-10.6-9l1.3-1.3c4.1,3,7.1,4.9,10.9,8.8L359.6,219.4z
			 M360.3,236.7c-2.2-3.4-4.9-6.7-7.9-10.1l1.6-1.2c3,2.9,5.9,7,8.2,10.3L360.3,236.7z"/>
	</g>
	<g>
		<path class="st0" d="M412.2,236.7c-1.4,2.1-3.3,2.8-5.6,2.6c-0.6,0-2.1,0.3-2.8,0l-1.1-2c1.2,0.2,3.4,0.4,5.1,0
			c3.2-0.7,3.5-4.2,4-6.6c1-4.6,0.9-10.2,0.9-14.8v-11.1h-14.5c-1.3,2.6-2.9,5.2-4.7,7.6l-2-0.9v23h-2.2v-4h-12.5v5.3h-2.2v-31.6
			h4.7c1.7-3.4,2.6-6.9,3.4-10.6l2,0.5c-0.5,3.4-1.5,6.9-3,10.1h9.7v6.8c0.3,0.2,0.3-0.3,0.5-0.4c2.3-3,4.2-5.8,5.2-9.3
			c0.8-3,1.8-6,2.1-9c0.7,0.2,1.4,0.4,2.1,0.7c-0.6,3.2-1.1,6.6-2.3,9.7l15.9,0.1v20C414.9,227.6,413.9,234.1,412.2,236.7z
			 M389.3,206.2h-12.5v9.8h12.5V206.2z M389.3,217.8h-12.5v10.7h12.5V217.8z M403.5,226.9c-1.1-4.5-3.2-8.6-5.6-12.6l1.7-1.2
			c2.2,4.2,4.6,8.1,5.9,12.7L403.5,226.9z"/>
	</g>
	<g>
		<path class="st0" d="M471.8,216.4c-7.6-4.4-15.4-10.4-21.1-20.1c-4.4,7.8-12.9,16.6-21.5,20.1l-1.8-1.5
			c10.5-5.2,17.9-12.3,23.1-22.6l1.8,0.8l-0.5,1c4.5,9.1,13.5,15.8,21.6,20.6L471.8,216.4z M449.4,238.4v-31.3h2.1v31.3H449.4z"/>
	</g>
	<g>
		<path class="st0" d="M526.6,239c-9.5-7.2-16.2-17.4-21.1-28.2c-3,11.4-10.4,21.5-19.9,28.3l-1.9-1.8
			c15.3-11.2,21.2-24.7,21.2-43.4h2.6c-0.3,4.5-0.4,9-1.2,13.4c4.1,9.6,10,18.7,17.4,26.1c1.5,1.5,3.1,2.9,4.9,4L526.6,239z"/>
	</g>
	<g>
		<path class="st0" d="M583.5,237.7h-24.3c-6.1-0.7-8.8-2.5-12-5.1l-7.1,5.8l-1.6-1.6c2.8-1.8,5.6-4,8.3-6.4v-16.7h-7v-1.9h9.1v19.7
			c3.6,3.2,7.7,4.4,12.4,4.4h18.6c1.5-0.2,3.1-0.2,4.5-0.3L583.5,237.7z M548.9,202.9c-1.2-2.8-3.4-5.2-5.7-7.3l1.6-1.1
			c2.4,2,4.4,4.5,5.8,7.1C550,202.1,549.5,202.5,548.9,202.9z M581.1,231.4c-1.1,0.3-2.3,0.3-3.5,0.3c-1.3-0.1-2.5-0.1-3.8-0.1
			c-1.7-0.6-2.1-1.6-2.5-3.2v-13.7h-5.8c0.1,8.1-2.3,14.8-10,18.7l-1.2-1.9c7.4-3.7,9.1-9,9.2-16.8H555v-1.9h12.6v-9.7h-8
			c-1,2.9-2,5.1-3.8,7.2l-1.6-1.1c2.4-3.6,4.8-8.3,5.3-14.2l1.7,0.6c-0.1,1.6-0.4,3.3-0.9,5.6h7.3v-7.2h2.1v7.2h8.6v1.9h-8.6v9.7
			h12.6v1.9h-9v13.7c0.3,0.7,0.7,1,1.3,1.2h5.1c0.8-0.2,1.5-0.8,1.8-1.6c0.2-0.9,0.2-1.9,0.3-2.9l1.9,0.9
			C583.5,228.5,583.1,230.7,581.1,231.4z"/>
	</g>
	<g>
		<path class="st0" d="M603.9,206.4v11.8c1.8-0.8,3.5-1.5,4.7-1.9v2.1c-1.4,0.7-3.1,1.2-4.7,2.2v15.3c-0.2,1.2-0.9,2.4-2.1,2.7
			c-0.7,0.2-1.5,0.3-2.3,0.3c-0.7,0-1.4-0.1-2.1-0.1l-0.8-2.2l3.8,0.2c0.6-0.2,1.1-0.7,1.5-1.2v-14.1c-2.4,1.2-4.5,2-6.2,2.8
			l-1.3-1.8c2.4-0.9,4.9-1.9,7.6-3.2v-13h-6.6v-1.9h6.6v-11.3h1.9v11.3h6.9v1.9H603.9z M638.9,214.8c-5-1.1-9.7-3.1-14.2-6
			c-4.6,2.8-9.2,4-14.2,5.2l-1.3-1.6c5.7-1.3,10.1-3,13.8-4.8c-4-3.4-6.5-6.9-8.5-10.8h-2.9v-1.9H636v2.1c-2.2,3.9-5.1,7.5-9.4,10.7
			c3.3,2,8.4,4.2,13.4,5.2L638.9,214.8z M625.4,227.7v11.2h-1.9v-11.2h-14v-1.9h14v-5.9h-11.9v-1.9h11.9V214h1.9v3.9h11.6v1.9h-11.6
			v5.9h13.7v1.9H625.4z M616.5,196.8c2.3,3.9,4.7,7.3,8.3,9.7c3.8-2.3,6.4-5.6,9.2-9.7H616.5z"/>
	</g>
</g>
<g>
	<g>
		<path class="st0" d="M274.3,298.1c-1.2,2.4-2.8,2.3-5.2,2.3h-29.4c-1.6,0-2.8-1.7-2.8-3.2v-27.4h2.2v6.3h27.4v-13.7h-31.5v-2h33.7
			v21.6h-2.2v-4H239v18.5c0,0.9,0.6,1.8,1.6,1.8h30.2c1.8,0,2-3.5,2.1-4.7l0.4-2.7l2.2,0.8C275.2,293.6,275,296.6,274.3,298.1z"/>
	</g>
	<g>
		<path class="st0" d="M332.3,296.7c-9.2-3.3-14.2-7.2-20.2-13.6v15.2c0,1.9-0.6,3.2-2.1,3.5c-1.6,0.4-3.1,0.3-4.7,0.3l-0.7-2
			c0.7,0.1,1.2,0.1,1.7,0.2c0.7,0.1,1.4,0,2.2-0.1c1-0.2,1.6-0.8,1.6-2v-21.4H289v-1.9h30.3l0.7-6.5h-22v-1.9h22.2l0.7-6.6h-26.1
			v-1.9h28.3l-1.8,17h11.1v1.9h-20.3v3.6c0.7,1.6,4,4.8,6.6,6.7c3.1-1.8,6.3-4.3,8.8-6.7l1.2,1.2c-2.7,2.4-5.1,4.3-8.5,6.5
			c3,2.3,4.5,3.1,7.1,4.3c2.1,1,4.1,1.7,6.3,2.3L332.3,296.7z M291.4,296.8l-1.8-1.9c6.3-2.3,12.5-4.9,18.6-7.6v2.1
			C302.6,291.9,296.9,294.3,291.4,296.8z M300.6,286.8c-2-2.5-4.7-4.4-7.2-5.9l1.1-1.2c2.6,1.4,5.7,3.7,7.6,5.7L300.6,286.8z"/>
	</g>
	<g>
		<path class="st0" d="M388.9,301.1c-10.5-8-17.4-16.6-21.6-29.2c-5.8,14.4-10.7,19.3-21.9,29.4l-1.6-1.5c9.4-7.8,17-16,21.1-27.8
			c0.3-0.7,1.7-5.1,1.7-5.7c0-2-0.2-4-0.3-6.1h-10.1v-2h12.3c0,6.8,0.2,13.7,3.4,19.8c5.5,10.4,9.7,14.3,18.6,21.5L388.9,301.1z"/>
	</g>
	<g>
		<path class="st0" d="M442.9,301.9c-0.3,0.5-0.6,1-1.3,1c-2-0.2-3.4-1.8-4.9-3c-2.4-2.1-4.3-4.8-5.9-7.5c-3.9,3.9-8.2,6.9-12.6,9.7
			l-1.7-1.3c4.7-3,9.4-6.1,13.3-10.5c-2.4-5.1-3.5-10.7-3.8-16.6h-12.6V284c3.2-1.2,6.3-2.3,9.4-3.6v2.3l-9.4,3.6V301
			c0,1-1,2.1-2.2,2.1c-0.5,0.2-2.3,0.4-3.9,0l-1-1.9c1.6,0.2,3.1,0.3,3.8,0.2c0.8-0.2,1.1-0.6,1.1-1.3v-12.8l-10.1,3.9l-1.2-1.7
			l11.4-4.5v-11.2h-10.7l0.1-1.9h10.6v-8.9c-3.1,0.9-6.2,2-9.4,2.7l-1.1-1.7c7.1-1.7,13.9-3.9,20.3-7.2l1.6,1.4
			c-3,1.5-6,2.8-9.1,3.9v9.8h12.4v-16h2.2v12.8l0.2,3.3h14.7v1.9H428c0.2,5.2,1.3,10.1,3.3,14.6c3-3.6,5.7-7.5,7.2-11.9l2,0.9
			c-1.7,4.8-4.9,9-8.2,13.2c1.8,3.5,4.5,7.1,8,9.4c0.3,0.1,0.8,0.4,0.9,0c0.7-1.7,1.1-3.6,1.5-5.5l0.3-1.2l2,1.1
			C444.4,296.9,443.8,299.4,442.9,301.9z M438.6,267.2c-1.9-2.9-4.1-5.6-6.9-8.1l1.5-1.2c2.8,2.2,5.1,5.1,7.2,7.9L438.6,267.2z"/>
	</g>
	<g>
		<path class="st0" d="M464.9,269.9v32.5h-2.2v-27.3c-1.4,2.7-4.2,6.8-6.2,9l-1.7-1.6c6.7-7.4,9.7-16.5,11.2-26l2,0.7
			C467.2,261.6,466.2,265.9,464.9,269.9z M471.9,302.5v-33.7h2.2v33.7H471.9z M477,266c-1.1-2.9-3-5.2-5.1-6.9l1.8-1.1
			c2.3,1.9,4.2,4.4,5.2,6.9L477,266z M496.6,301.6c-1.4,0.3-3.5,0.4-5.5,0.2l-0.8-2.3l4.8,0.3c0.7-0.1,1.6-0.5,1.6-2.1v-36h-15.2v-2
			h17.4v39.4C498.9,300.7,497.9,301.2,496.6,301.6z"/>
	</g>
	<g>
		<path class="st0" d="M551.5,299.9c-1.4,2.1-3.3,2.8-5.6,2.6c-0.6,0-2.1,0.3-2.8,0l-1.1-2c1.2,0.2,3.4,0.4,5.1,0
			c3.2-0.7,3.5-4.2,4-6.6c1-4.6,0.9-10.2,0.9-14.8V268h-14.5c-1.3,2.6-2.9,5.2-4.7,7.6l-2-0.9v23h-2.2v-4h-12.5v5.3H514v-31.6h4.7
			c1.7-3.4,2.6-6.9,3.4-10.6l2,0.5c-0.5,3.4-1.5,6.9-3,10.1h9.7v6.8c0.3,0.2,0.3-0.3,0.5-0.4c2.3-3,4.2-5.8,5.2-9.3
			c0.8-3,1.8-6,2.1-9c0.7,0.2,1.4,0.4,2.1,0.7c-0.6,3.2-1.1,6.6-2.3,9.7l15.9,0.1v20C554.2,290.8,553.2,297.3,551.5,299.9z
			 M528.6,269.3h-12.5v9.8h12.5V269.3z M528.6,281h-12.5v10.7h12.5V281z M542.8,290c-1.1-4.5-3.2-8.6-5.6-12.6l1.7-1.2
			c2.2,4.2,4.6,8.1,5.9,12.7L542.8,290z"/>
	</g>
	<g>
		<path class="st0" d="M582.7,294.6c1.8,1.2,3.6,2.4,5.2,3.9l-1.6,1.3c-1.6-1.6-3.3-2.8-5.1-3.8c-3.3,2.2-7.3,4.5-13.1,6.5l-1.3-1.6
			c4.1-1.1,8-2.9,12.4-6c-3.2-1.6-6-2.6-8.7-3.2c1-1.6,1.9-2.9,3.1-5.2h-5.9v-1.9h6.8c0.7-1.5,1.4-3.5,1.8-4.9l2,0.5
			c-0.5,1.7-0.6,1.8-1.9,4.5H588v2.4C587,289.4,585.4,291.6,582.7,294.6z M580.7,267.1v11.1h-2v-10.9H578c-1.5,3.9-5.5,7.6-8.9,9.6
			l-1.2-1.4c3.6-2.2,6.6-4.4,8.6-8.4h-8.8v-1.9h11.1v-9.2h2v9.2H591v1.9H580.7z M574.4,262.8c-1.2-1.7-2.9-3.2-4.5-4.4l1-1.1
			c1.6,0.9,3.7,2.8,4.8,4.6L574.4,262.8z M575.7,286.4c-0.8,1.4-1.1,2.1-2.4,4.3c3.1,0.8,5,1.8,7.5,2.8c2.5-2.5,3.6-4.4,4.9-7.1
			H575.7z M588.6,275.5c-1.2-1.8-3.2-3.5-5-4.8l1-0.8c2,1.1,3.7,2.6,5.1,4.5L588.6,275.5z M585.9,263l-1.3-1.1
			c1.6-1.2,3.1-2.8,4.4-4.3l1.3,0.9C589.2,260.2,587.5,261.8,585.9,263z M611.3,302.3c-3.3-2.7-6.2-6-8.9-10.1
			c-2.9,4.4-6.1,8.3-10,10.5L591,301c4.3-2.3,7.6-6.7,10.3-10.9c-2.8-5.1-4.3-10.5-5.3-16.2c-1.5,3.2-3.6,6.7-5.7,9.1
			c-0.5-0.4-1.1-0.8-1.6-1.2c5.8-7.1,8.2-15.5,8.7-24.7l2,0.5c-0.3,3.4-0.6,5.9-1.3,9.6h13.3v1.9h-2c-0.9,7.5-2.4,14.2-5.9,21
			c2.4,4,5.7,7.6,9.2,10.5L611.3,302.3z M597.4,269.1l-0.3,1.4c1,5.7,2.7,12,5.3,17.4c3.1-6,4.2-12,4.8-18.8H597.4z"/>
	</g>
	<g>
		<path class="st0" d="M631.1,268.8V280l6-2.9v2l-6,3.1V299c0,1.6-1.2,3.1-3.4,3.1h-4.5l-0.5-2.1l4.8,0.1c0.9,0,1.5-0.6,1.5-1.5
			v-15.4l-6.4,3.3l-1.3-1.8c3-1.3,4.6-2.1,7.7-3.7v-12.3h-7v-1.9h7V256h2.1v10.9h6.2v1.9H631.1z M642.1,270.1v5.6
			c0,3.6-0.6,10.1-1.8,13.4c-1.1,3.3-2.5,6.4-4.3,9.4l-2.6,4.3l-1.7-1.3c3.7-5.6,6.6-11.1,7.6-18.1c0.4-2.3,0.6-6.7,0.6-9.2v-15.7
			h25.1v11.7H642.1z M663.1,260.3h-21v7.9h21V260.3z M655.6,279.6v6.9h9.2V303h-2.1v-4.4h-16.1v4.4h-2.1v-16.5h8.9v-6.9h-10.4v-1.9
			h10.4v-6.1h2.1v6.1h13.2v1.9H655.6z M662.8,288.4h-16.1v8.2h16.1V288.4z"/>
	</g>
	<g>
		<path class="st0" d="M685.2,261.7v16.2c0,8.5-1.3,17-5.9,23.8l-1.8-1.4c1.6-2.5,2.9-5.1,3.6-7.9c1.8-6.4,2-12.5,2-20v-12.6h20.6
			c-2-1.5-4.3-2.8-6.5-4.1c0.4-0.6,0.8-1,1.2-1.6c2.3,1.2,4.6,2.8,6.9,4.3l-1,1.5h18.6v1.9H685.2z M706.6,290.3v11.3h-2.2v-11.3
			h-17.7v-2h17.7v-6.1H692v-2.4l4-8.8h-8.2v-2h9l2-4.7l2,0.3L699,269h21.2v2h-22l-4.3,9.1h10.5v-5.9h2.2v5.9h11.7v2h-11.7v6.1h16.3
			v2H706.6z"/>
	</g>
</g>
<g>
	<g>
		<path class="st0" d="M243.7,337.8c-0.2,1.5-0.7,3-1.4,4.3h6.2v15.2c0,0.5-0.5,1-1.1,1.1c-0.7,0.1-1.4,0.1-2.1,0.1l-0.5-1.1
			c0.5,0,1.6,0.2,1.9,0c0.5-0.1,0.6-0.6,0.6-0.9V343h-2.4v12.3H244V343h-2.4v13h-1.1v-13h-2.4v15.6h-1.1v-16.5h4
			c0.8-1.2,1.2-2.9,1.6-4.3h-6.9l0-1h14v1H243.7z M256.1,343.7v13.4c0,0.5-0.2,1.1-0.7,1.3c-0.8,0.3-2,0.2-2.7,0.3l-0.5-1.1
			c0.7,0,1.5,0.2,2.2,0.1c0.3,0,0.6-0.4,0.6-0.8v-13.1h-5.7l0-1h5.6v-8h1.1v8h2.3v1H256.1z M252.8,352.2c-0.4-2-1.3-3.8-2.3-5.5
			l0.9-0.4c1.1,1.7,2,3.5,2.6,5.5L252.8,352.2z"/>
	</g>
	<g>
		<path class="st0" d="M287.7,357.3l-0.5,0h-6c-1.2,0-1.5-0.6-1.5-1.9v-6.3H275c0,3.7-2.4,7.4-5.9,8.9c-0.5,0.2-1,0.4-1.6,0.5
			l-0.9-0.8c2.4-0.7,4.6-1.9,6.2-4.4c0.8-1.3,1.1-2.7,1.1-4.2h-3.6v-7h6.8V339h-9.6v-1h9.6v-3.4h1.1v3.4h9.7v1h-9.7v3.2h6.9v7h-4.3
			v6.5c0,0.4,0.3,0.5,0.7,0.5h5.6c0.5,0,0.5-0.9,0.7-1.3c0.2-0.8,0.2-1.6,0.2-2.4l1,0.8C289,354.2,288.9,357.2,287.7,357.3z
			 M284,343.1h-12.6v5.1H284V343.1z"/>
	</g>
	<g>
		<path class="st0" d="M306.3,353.6h-0.1c-0.8-0.7-1.7-1.4-2.5-2.1c-0.2,0.3-0.4,0.7-0.6,1c-1.2,1.9-2.4,3.6-4,5.3
			c-0.3-0.2-0.5-0.4-0.9-0.6c1.7-1.9,3.3-4,4.6-6.3c-0.8-0.6-1.7-1.3-2.6-1.7l-0.3,1.4l-1-0.3l1.8-7l0.4-1.8h-2.8v-1h3
			c0.7-1.9,1-4,1.6-6l0.9,0.2c-0.4,2-1,3.8-1.5,5.8h3.8c-0.1,1.6-0.4,3.2-0.7,4.8c-0.3,1.9-0.8,3.7-1.5,5.4l2.8,2.3L306.3,353.6z
			 M302.3,341.5l-1.7,6.7c0.9,0.5,1.8,1.2,2.6,1.8h0.1c1.1-2.6,1.5-5.6,1.9-8.5H302.3z M321.1,357.7c-2.9-2-5.6-4.6-6.9-7.7
			l-0.1,8.5h-1.1V350c-1.5,3.2-4.3,5.7-7.1,7.8l-0.9-0.6c5.1-3.8,5.4-5.2,6.9-7.4h-6.1l0-1h7.2v-2.7h-3.6v-7.6h-3.6v-1h3.6v-3h1.1v3
			h6v-3h1.1v3h3.7v1h-3.7v7.6h-3.6v2.7h7.3v1h-6.2c1.9,3.7,3.6,4.9,6.6,7.1L321.1,357.7z M316.6,338.5h-6v2.7h6V338.5z M316.6,342.2
			h-6v3h6V342.2z"/>
	</g>
	<g>
		<path class="st0" d="M334.4,341.1v17.3h-1.1v-15c-0.9,1.7-2,3.2-3.4,4.7l-0.9-0.8c3.1-3.5,4.9-7.5,6.8-12.6
			c0.3,0.1,0.6,0.3,0.9,0.4C336,337.1,335.2,339.1,334.4,341.1z M352.1,353.5c-1-0.9-1.9-2-2.8-3c-2.3-2.6-3.5-5.8-4.4-9h-0.2V352
			h4.6v1.1h-4.6v5.4h-1.1V353H339V352h4.6v-10.4h-0.2c-1.5,4.7-3.2,8.8-7.2,12c-0.3-0.2-0.7-0.6-0.9-0.8c3.7-2.9,5.7-6.9,7.1-11.1
			h-6.2v-1.1h7.5v-5.9h1.1v5.9h7.6v1.1h-6.4c0.8,4.1,3.4,8.1,7,11L352.1,353.5z"/>
	</g>
	<g>
		<path class="st0" d="M379.9,350.6v-1.7h-7.8v9.8h-1.2v-9.8h-7.5v2.1h-1.2v-11.2h8.7v-5.3h1.2v5.3h9v10.8H379.9z M370.9,340.9h-7.5
			v6.8h7.5V340.9z M379.9,340.9h-7.8v6.8h7.8V340.9z"/>
	</g>
	<g>
		<path class="st0" d="M393.4,353.2l-1.2-0.5c1.9-2.5,2.7-5.5,3.1-8.5l1,0.3C396.1,347.5,395.2,350.5,393.4,353.2z M408.9,357.1
			h-8.4c-0.8,0-1.5-0.8-1.5-1.5v-14.4h1.1v14.1c0,0.6,0.6,0.9,1.1,0.9h7.1c1.2,0,1.4-3.7,1.5-4.6l1.1,0.4
			C410.7,353,410.5,357.1,408.9,357.1z M405.7,342.8c-1.5-2.4-3.5-4.3-5.5-6.3l0.8-0.7c2,1.9,4.1,3.9,5.6,6.2L405.7,342.8z
			 M414.4,352.3c-1.3-3-2.5-5.3-4.5-7.9l1-0.5c1.8,2.5,3.5,5.1,4.5,7.9L414.4,352.3z"/>
	</g>
	<g>
		<path class="st0" d="M429.6,356.9c-2.2,0-3.7-1.1-4.5-2.2c-0.9-1.2-1.7-2.8-1.7-6.8c0-2,0-10,6.6-10c4.1,0,4.8,3.1,5.1,4.3
			l-1.6,0.2c-0.2-1-0.8-3.2-3.5-3.2c-2.2,0-3.4,1.5-4,2.9c-0.7,1.5-0.8,3.8-0.9,5.3c1.9-2.5,4.1-2.6,5-2.6c3.4,0,5.4,2.6,5.4,5.8
			C435.4,353.6,433.5,356.9,429.6,356.9z M429.7,346.2c-1.9,0-4.4,1.3-4.4,4.4c0,2.5,1.7,5.1,4.3,5.1c2.5,0,4.1-2.3,4.1-4.9
			C433.8,347.3,431.4,346.2,429.7,346.2z"/>
	</g>
	<g>
		<path class="st0" d="M460,357.9h-0.9l-0.6-1c0.3,0,0.7,0,1,0c0.7,0,1.9,0.2,1.9-0.8v-7.6h-10.1c-0.4,3.9-2.8,7-5.8,9.4l-0.8-0.8
			c3.3-2.4,5.5-5.8,5.5-10v-11.8h12.4v21.2C462.5,358,461,357.9,460,357.9z M461.4,336.4h-10.1v4.9h10.1V336.4z M461.4,342.2h-10.1
			v5.3h10.1V342.2z"/>
	</g>
	<g>
		<path class="st0" d="M481.1,356.6v-15.7c-1.9,1.8-3.4,2.5-4.8,3v-1.4c3.7-2,4.6-3.4,5.3-4.7h1.1v18.7H481.1z"/>
	</g>
	<g>
		<path class="st0" d="M500.1,356.9c-4.5,0-5.4-3.8-5.7-4.9l1.6-0.2c0.4,1.8,1.4,3.8,4.3,3.8c2.6,0,4.4-2.3,4.4-5
			c0-2.7-1.8-4.7-4.3-4.7c-2.2,0-3.5,1.2-4.3,2.1l-1.3-0.2l1.8-9.7h9v1.4h-7.8l-1.2,6.4c0.7-0.5,2.1-1.4,4.1-1.4
			c3.3,0,5.7,2.7,5.7,5.9C506.4,353.3,504.4,356.9,500.1,356.9z"/>
	</g>
	<g>
		<path class="st0" d="M532.3,356.9V354h-12.6v2.9h-1.2v-20.2h15v20.2H532.3z M532.3,337.8h-12.6v7h12.6V337.8z M532.3,345.8h-12.6
			v7.3h12.6V345.8z"/>
	</g>
	<g>
		<path class="st0" d="M550.8,354.1l-3.8,4.3l-0.9-0.5l2.9-3.2l1.6-1.9l0.9,0.5L550.8,354.1z M546.3,351l0-1h2.5v-11h-2.2v-1h2.2
			v-3.3h1.1v3.3h6.1v-3.4h1.1v3.4h2.4l0,1H557v11h2.8v1H546.3z M555.9,339h-6.1v2.8h6.1V339z M555.9,342.8h-6.1v3h6.1V342.8z
			 M555.9,346.8h-6.1v3.2h6.1V346.8z M557.6,356.1c-1.1-1.1-2.2-2-3.4-3l0.6-0.7l3.6,3L557.6,356.1z M566.9,357.8
			c-0.8,0.1-1.6,0.2-2.6,0.1l-0.4-1.1c0.7,0.1,1.8,0.2,2.2,0.1c0.4,0,0.8-0.5,0.8-0.8v-6.8h-5.3c-0.1,3.3-0.8,6.5-2.7,9.1
			c-0.4-0.1-0.7-0.4-1-0.5c1.5-2.3,2.5-4.9,2.6-7.8l0.1-2.6V336h7.5v20.7C568,357.2,567.4,357.8,566.9,357.8z M566.9,336.9h-5.3v4.9
			h5.3V336.9z M566.9,342.8h-5.3v5.4h5.3V342.8z"/>
	</g>
	<g>
		<path class="st0" d="M581.6,345v13.6h-1.1v-12.1c-0.9,1.1-2,2.2-3,3.2l-0.7-0.7c2.5-2.4,4.7-5.3,6.3-8.2l0.8,0.5
			C583.4,342.5,582.4,343.7,581.6,345z M578,342.3l-0.8-0.6c2.1-2.2,4.1-4.4,5.6-6.9l0.8,0.5C582.3,337.5,579.6,340.8,578,342.3z
			 M595.4,349v8.1c0,0.6-0.4,1.3-1.2,1.4c-0.7,0.1-1.8,0.1-3,0.1l-0.3-1c1.2,0.1,2,0.1,2.5,0c0.5,0,0.9-0.4,0.9-0.8V349h-10.7v-1
			h10.7v-3h1.1v3h4.9v1H595.4z M584.6,344.3v-1h6.5v-4.1h-5.3v-1h5.3v-3.7h1.1v3.7h5.9v1h-5.9v4.1h7.4v1H584.6z M589.8,354.7
			c-0.9-1.3-1.8-2.5-2.9-3.8l0.8-0.5c1.1,1.2,2,2.5,2.9,3.7L589.8,354.7z"/>
	</g>
	<g>
		<path class="st0" d="M616.1,336.2c-0.8,1.1-2.3,2.9-2.9,3.7v9.7h-1.1v-8.4c-1,0.9-2.6,2.3-3.5,2.9l-0.7-0.7c2-1.5,4.5-3.7,7.5-8.1
			c0.3,0.1,0.5,0.3,0.8,0.4L616.1,336.2z M608.9,357.1c-0.3-0.1-0.5-0.4-0.8-0.6c1.5-1.6,2.6-3.3,3.7-5c0.3,0.1,0.5,0.3,0.7,0.5
			C611.4,353.8,610.5,355.5,608.9,357.1z M614.9,348.5l-0.8-0.8c2-1.3,3.8-2.8,5.5-4.7c0.3,0.1,0.5,0.4,0.8,0.5
			C618.7,345.4,616.9,347.2,614.9,348.5z M628,343.3l-1-0.4c0.3-0.5,0.8-1,1.2-1.6l0.9-1.5h-10.2c-1.1,1.5-2.3,2.9-3.7,4
			c-0.3-0.2-0.6-0.4-0.9-0.6c2.7-2.1,4.6-5,6.3-7.9c0.3,0.1,0.6,0.3,0.9,0.4c-0.6,1-1.2,2-1.8,3h11.2
			C630,340.3,629.1,341.8,628,343.3z M625.4,357.1c-0.3,0.5-0.9,0.9-1.6,0.9h-7.2c-1.2,0-1.9-0.9-1.9-1.8v-5.5h1.1v5.3
			c0.1,0.3,0.4,0.7,0.7,0.8l0.4,0.2h6.7c0.3-0.1,0.7-0.3,0.8-0.7c0.3-1.2,0.8-1.8,0.9-2.7c0.3,0.1,0.6,0.3,0.9,0.5
			C626,355.1,625.8,356.2,625.4,357.1z M620.8,355c-0.7-1.5-1.5-3-2.5-4.3c0.3-0.2,0.5-0.4,0.8-0.5c1,1.4,1.8,2.7,2.6,4.2L620.8,355
			z M622.4,349.3c-0.8,0.2-1.8,0.1-2.7,0.1l-0.5-1h2.5c0.2-0.1,0.5-0.3,0.6-0.5l0.1-0.5v-6.9h1.1v7.5
			C623.4,348.5,623,349.1,622.4,349.3z M630.5,348.4c-1.7-1.6-3.5-3.2-5.4-4.6l0.7-0.7c2.1,1.5,3.6,2.5,5.5,4.5L630.5,348.4z
			 M630.9,357.1c-1.1-1.7-2.5-3.4-4-5.1l0.8-0.6c1.5,1.4,3,3.5,4.1,5.2L630.9,357.1z"/>
	</g>
	<g>
		<path class="st0" d="M660.3,357.1c-0.7,1-1.7,1.4-2.8,1.3c-0.3,0-1.1,0.2-1.4,0l-0.6-1c0.6,0.1,1.7,0.2,2.6,0
			c1.6-0.3,1.8-2.1,2-3.4c0.5-2.3,0.4-5.2,0.4-7.5V341h-7.3c-0.7,1.3-1.4,2.6-2.4,3.8l-1-0.4V356h-1.1v-2h-6.3v2.7h-1.1v-15.9h2.4
			c0.9-1.7,1.3-3.5,1.7-5.3l1,0.3c-0.3,1.7-0.8,3.5-1.5,5.1h4.9v3.4c0.2,0.1,0.2-0.1,0.3-0.2c1.2-1.5,2.1-2.9,2.6-4.7
			c0.4-1.5,0.9-3,1-4.5c0.4,0.1,0.7,0.2,1,0.3c-0.3,1.6-0.6,3.4-1.2,4.9l8,0.1v10.1C661.7,352.5,661.2,355.8,660.3,357.1z
			 M648.8,341.7h-6.3v4.9h6.3V341.7z M648.8,347.5h-6.3v5.4h6.3V347.5z M655.9,352.1c-0.6-2.3-1.6-4.3-2.8-6.4l0.9-0.6
			c1.1,2.1,2.3,4.1,3,6.4L655.9,352.1z"/>
	</g>
	<g>
		<path class="st0" d="M671.8,357.3l-0.3-1.1c2.1-0.4,4.2-0.9,6.3-1.5v-5h-5v-1h5v-3.6h1.1v3.6h4.7v1h-4.7v4.7l6-1.4v1L671.8,357.3z
			 M684,345.4l-1.2-2.2l-10.5,1.3l-0.2-1l1.6-0.2l3-6.5h-4.3v-1h12.5v1h-7c-0.9,2.2-1.9,4.3-3,6.4l0.2-0.1c2.4-0.3,4.9-0.5,7.3-0.9
			l-1.5-2.4l0.9-0.5c1.1,1.5,2.5,4,3.2,5.5L684,345.4z M686.9,352.2v-14.4h1.1v14.4H686.9z M692.1,358.4c-0.8,0.2-1.7,0-2.7,0
			l-0.5-1c1.1,0.1,2,0.2,2.4,0.1c0.4,0,0.7-0.4,0.7-0.8v-22.3h1.1v22.8C693.1,357.9,692.7,358.3,692.1,358.4z"/>
	</g>
	<g>
		<path class="st0" d="M724.8,356.7c-3.8-1.4-7.5-5-9.3-9.3h-0.9v10.8h-1.1v-10.7h-0.5c-1.2,3.2-4.2,6.1-6.6,7.6
			c-0.9,0.5-1.7,0.9-2.9,1.4l-0.7-0.8l0.9-0.4c3.2-1.5,6.5-4.2,8.3-7.9h-8.8v-1h10.3v-7.2h-9.3v-1h9.3v-3.2h1.1v3.2h9.6v1h-9.6v7.2
			h10.6v1h-8.6c1.4,2.9,3,4.5,5.1,6c1,0.7,2.7,1.9,4,2.4L724.8,356.7z M709.7,345.1c-0.7-1.6-2-3-3.4-4.1l0.8-0.5
			c1.4,1.2,2.6,2.6,3.4,4.2L709.7,345.1z M718,345.3l-0.7-0.6c1.5-1.2,2.9-2.7,3.8-4.3l0.7,0.5C720.8,342.5,719.5,344,718,345.3z"/>
	</g>
</g>
<g>
	<g>
		<path id="XMLID_3_" class="st0" d="M474.8,143.3c-18.3,0-33.1-14.9-33.1-33.1s14.9-33.1,33.1-33.1S508,91.9,508,110.2
			S493.1,143.3,474.8,143.3z M474.8,79.7c-16.8,0-30.5,13.7-30.5,30.5s13.7,30.5,30.5,30.5s30.5-13.7,30.5-30.5
			S491.6,79.7,474.8,79.7z"/>
	</g>
	<g>
		<path id="XMLID_2_" class="st0" d="M468.6,122.8c0,0-0.1,0-0.1,0c-0.4,0-0.8-0.3-1.1-0.6L457,108.3l2.4-1.8l9.3,12.5l21.6-21.2
			l2.1,2.1l-22.8,22.4C469.4,122.6,469,122.8,468.6,122.8z"/>
	</g>
</g>
<g>
	<g>
		<path class="st0" d="M525.2,448.5l-65.3,17.3c-5.5,1.4-9.9,1.2-12.4-0.6c-6.4-4.7-1.5-14.1,0.2-17c-3.1,3.5-6.3,6.9-8.7,10.7
			c-3.8,5.9-5.5,12.3-2.9,16.5c4.7,7.5,15.8,4,23,1L525.2,448.5z"/>
	</g>
</g>
</svg>
