<?xml version="1.0" encoding="utf-8"?>
<!-- Generator: Adobe Illustrator 18.0.0, SVG Export Plug-In . SVG Version: 6.00 Build 0)  -->
<!DOCTYPE svg PUBLIC "-//W3C//DTD SVG 1.1//EN" "http://www.w3.org/Graphics/SVG/1.1/DTD/svg11.dtd">
<svg version="1.1" id="图层_1" xmlns="http://www.w3.org/2000/svg" xmlns:xlink="http://www.w3.org/1999/xlink" x="0px" y="0px"
	 viewBox="0 0 960 560" enable-background="new 0 0 960 560" xml:space="preserve">
<g>
	<g>
		<path fill="#FFFFFF" d="M480,143.3c-18.3,0-33.1-14.9-33.1-33.1s14.9-33.1,33.1-33.1s33.2,14.8,33.2,33.1S498.2,143.3,480,143.3z
			 M480,79.7c-16.8,0-30.5,13.7-30.5,30.5s13.7,30.5,30.5,30.5s30.5-13.7,30.5-30.5S496.8,79.7,480,79.7z"/>
	</g>
	<g>
		<path fill="#FFFFFF" d="M473.8,122.8L473.8,122.8c-0.5,0-0.9-0.3-1.2-0.6l-10.4-13.9l2.4-1.8l9.3,12.5l21.6-21.2l2.1,2.1
			l-22.8,22.4C474.5,122.6,474.2,122.8,473.8,122.8z"/>
	</g>
</g>
<g>
	<g>
		<path fill="#FFFFFF" d="M525.2,448.5l-65.3,17.3c-5.5,1.4-9.9,1.2-12.4-0.6c-6.4-4.7-1.5-14.1,0.2-17c-3.1,3.5-6.3,6.9-8.7,10.7
			c-3.8,5.9-5.5,12.3-2.9,16.5c4.7,7.5,15.8,4,23,1L525.2,448.5z"/>
	</g>
</g>
<g>
	<path fill="#FFFFFF" d="M232.6,365.7c1.8-2.7,3.2-5.7,4.2-8.9c0.3,0.1,0.6,0.3,0.9,0.4c-0.2,0.7-0.4,1.4-0.7,2.1h8.6
		c0.1,5.1,0.1,10-0.9,14.9c-0.4,1.2-1.2,1.6-2.2,1.6c-1.1-0.1-2.2-0.2-3.2-0.5c-0.1-0.4-0.1-0.8-0.2-1.2c1.1,0.3,2.3,0.7,3.5,0.5
		c1.3-0.1,1.3-2.5,1.6-3.9c0.3-1.7,0.5-7.2,0.4-10.6h-8c-0.9,2-1.8,4.1-3.1,6L232.6,365.7z M238,357.6v-2.7h-5.1v-1h5.1v-3.3h1.1v7
		H238z M235.5,372.8v-9.5h5.9v8.6h-1.1v-1.7h-3.7v2.6H235.5z M236.5,369.2h3.7v-4.8h-3.7V369.2z M242.5,358.1h-1.1v-7.6h1.1v3.3h5.2
		v1h-5.2V358.1z M251,350.6c-0.3,2.1-0.7,4.3-1.2,6.3h8.1v1h-2.6c-0.4,4-0.9,7.8-2.8,11.2c1.4,2.3,3.4,4.2,5.4,6.1l-0.7,0.8
		c-1.8-1.4-3.6-3.4-5.4-5.9c-1.4,2.2-3.5,4.3-5.6,6l-0.8-0.8c2.1-1.7,4.4-3.8,5.8-6.2c-0.8-1.3-1.9-4.6-2.5-8.9
		c-0.3,1.5-0.9,2.9-1.6,4.2l-0.9-0.6c2.1-4.1,3-8.8,3.7-13.4L251,350.6z M249.5,358c0.8,6,1.4,8.2,2.4,10.2
		c1.4-2.9,1.8-4.9,2.3-10.2H249.5z"/>
	<path fill="#FFFFFF" d="M267,355.9v-1h9.3v1H267z M275.2,363.8H268v-1h7.2V363.8z M275.2,359.8H268v-1h7.2V359.8z M268.1,376.2
		v-9.4h7.2v8.8h-1.2v-2h-4.8v2.6H268.1z M274.2,367.8h-4.9v4.8h4.9V367.8z M271.6,354.7c-0.6-1.3-1.3-2.5-2.1-3.7
		c0.3-0.2,0.6-0.3,0.9-0.5c0.8,1.2,1.5,2.5,2.1,3.7L271.6,354.7z M276.6,354.2v-1h6.3v-2.7h1.1v2.7h6.4v1H284v2.2h5.8v1H284v2.3h6.7
		v1h-14.4v-1h6.6v-2.4h-5.6v-1h5.6v-2.2h-6.3V354.2z M285.1,375.2c0.9,0,1.6,0.1,2.2-0.1c0.4,0,0.6-0.5,0.6-0.8V371h-8.5v5.4h-1.2
		v-13.3H289v11.8c0,0.5-0.3,0.9-0.7,1.1c-0.9,0.4-1.6,0.4-2.9,0.3L285.1,375.2z M279.5,364v2.5h8.5V364H279.5z M288,367.5h-8.5v2.4
		h8.5V367.5z"/>
	<path fill="#FFFFFF" d="M303.6,372.1l1.8-2.1l0.9,0.5l-0.7,0.9l-4.1,4.6l-1-0.6L303.6,372.1z M312.1,350.5v3.6h2.5v1H312V367h3v1
		h-14.4v-1h2.6v-11.9H301v-1h2.3v-3.6h1.2v3.5h6.5v-3.6h1.2V350.5z M311,359.3h-6.5v3.2h6.5V359.3z M304.5,355.2v3.1h6.5v-3.1H304.5
		z M311,363.6h-6.5v3.5h6.5V363.6z M312.6,373.7c-1.2-1.2-2.4-2.2-3.7-3.3l0.7-0.7l3.8,3.3L312.6,373.7z M319.4,374.4
		c0.7,0.1,1.9,0.2,2.4,0.1c0.4,0,0.8-0.5,0.8-0.9v-7.4h-5.7c-0.1,3.6-0.9,7-2.9,9.8c-0.4-0.1-0.7-0.4-1.1-0.5
		c1.6-2.5,2.7-5.3,2.8-8.4l0.1-2.8v-12.4h8v22.3c0,0.6-0.6,1.2-1.1,1.2c-0.9,0.1-1.7,0.3-2.8,0.1L319.4,374.4z M322.6,353H317v5.2
		h5.6V353z M317,359.3v5.9h5.6v-5.9H317z"/>
	<path fill="#FFFFFF" d="M337.1,363.2c-1,1.2-2.1,2.4-3.2,3.5l-0.8-0.8c2.6-2.6,5-5.7,6.7-8.9l0.9,0.5c-0.6,1.4-1.6,2.7-2.5,4.1
		v14.7H337v-13.1H337.1z M333.6,358.1c2.2-2.4,4.4-4.7,5.9-7.5l0.9,0.6c-1.4,2.4-4.3,6-6,7.6L333.6,358.1z M353.1,364.9h5.2v1.1
		h-5.2v8.7c0,0.7-0.4,1.4-1.3,1.5c-0.7,0.1-1.9,0.1-3.2,0.1l-0.3-1.1c1.3,0.1,2.1,0.1,2.7,0c0.5,0,0.9-0.4,0.9-0.9V366h-11.4v-1
		h11.4v-3.3h1.2L353.1,364.9L353.1,364.9z M357.6,359.9v1.1h-16v-1.1h7v-4.4H343v-1.1h5.6v-4h1.1v4h6.3v1.1h-6.3v4.4H357.6z
		 M347.1,372.1c-0.9-1.4-1.9-2.7-3-4.1l0.8-0.6c1.2,1.3,2.1,2.7,3.1,4L347.1,372.1z"/>
	<path fill="#FFFFFF" d="M370.4,365.5c0,3.8-1,7.4-3,10.5c-0.3-0.2-0.6-0.5-0.8-0.8c0.6-1,1.1-2,1.5-3.1c0.8-2.2,1.2-4.4,1.2-6.8
		v-13.6h20.2v3.9h-8.6v4.2h-1.1v-4.2h-9.5L370.4,365.5z M388.5,352.6h-18.1v2h18.1V352.6z M383.6,371.5c1.1,0.6,2.2,1.2,3.3,2.1
		l-0.6,0.7c-0.4-0.2-0.7-0.5-1.1-0.7l-8.2,0.7l-5.7,0.5l-0.3-1c2.5,0,5-0.3,7.5-0.5v-1.6h-5.5v-3.3l-2,1.4l-0.6-0.7
		c2-1.2,3.6-2.7,5.2-4.4h-3.4v-3.9h17.3v3.9h-12.7l-1.2,1.4h14.8c-0.1,2.7-0.3,5.8-0.8,8.5c-0.2,0.7-0.9,1.4-1.6,1.4
		c-1.1,0.1-2.1-0.2-3.2-0.3l-0.2-1c1,0.1,2.2,0.6,3.1,0.4c1.4-0.5,0.9-2.3,1.2-3.5c0.1-0.8,0.2-1.6,0.2-2.3l0.1-2.2h-9.7v1.4h5.7
		v3.3L383.6,371.5z M371.8,360.2l-0.2-1c2.2-0.2,4.4-0.5,6.6-0.8v0.9L371.8,360.2z M377.8,358c-1.8-0.4-3.8-0.7-5.8-0.8l0.2-0.9
		c2,0.1,3.9,0.4,5.7,0.7L377.8,358z M374.6,366.8l-1.6,1.4h5.4v-1.4H374.6z M377.6,361.4h-4.3v2.1h4.3V361.4z M374.1,369.2v1.5h4.4
		v-1.5H374.1z M378.6,361.4v2.1h4.3v-2.1H378.6z M379.5,371.5v1.5c1.5-0.1,3.1-0.3,4.6-0.3c-0.4-0.3-1-0.4-1.5-0.8l0.4-0.5
		L379.5,371.5z M379.6,369.2v1.4h4.6v-1.5L379.6,369.2z M389.1,360c-2.2-0.5-4.4-0.7-6.8-0.8l0.1-0.9c2.4,0.1,4.7,0.2,7,0.8
		L389.1,360z M382.5,356.9c2.1-0.1,4.2-0.4,6.2-0.8l0.3,0.9c-2,0.4-4.1,0.8-6.3,0.9L382.5,356.9z M384.1,361.4v2.1h4.4v-2.1H384.1z"
		/>
	<path fill="#FFFFFF" d="M413.9,362.6v12.1c0,0.7-0.6,1.3-1.3,1.4c-0.8,0.1-2.6,0.2-3.7,0.1l-0.4-1.4c0.9,0.1,2.3,0.3,3.4,0.2
		c0.4,0,0.8-0.4,0.8-0.7v-11.7h-10.9v-1.1h10.9v-8.4H404V352h18.8v1.1h-9v8.4h11.1v1.1H413.9z"/>
	<path fill="#FFFFFF" d="M437.9,357.6c-1,1-2.8,2.5-3.7,3.1l-0.7-0.8c2.1-1.7,4.8-4,8-8.7c0.3,0.1,0.6,0.3,0.9,0.5l-0.2,0.4
		c-0.9,1.2-2.4,3.2-3.1,4v10.5h-1.2L437.9,357.6L437.9,357.6z M434.6,374.7c-0.3-0.1-0.6-0.4-0.8-0.7c1.6-1.8,2.8-3.6,3.9-5.4
		c0.3,0.1,0.5,0.3,0.8,0.5C437.1,371.1,436.1,373,434.6,374.7z M440.1,364.5c2.2-1.4,4-3.1,5.8-5.1c0.3,0.1,0.6,0.4,0.9,0.6
		c-1.8,2-3.7,4-5.9,5.4L440.1,364.5z M445.1,356c-1.2,1.6-2.4,3.1-4,4.3c-0.3-0.2-0.7-0.5-1-0.7c2.8-2.2,4.9-5.4,6.7-8.5
		c0.3,0.1,0.6,0.3,0.9,0.5c-0.6,1.1-1.3,2.2-2,3.3h11.9c-0.7,1.8-1.8,3.4-2.9,5l-1.1-0.5c0.4-0.6,0.8-1.1,1.2-1.8l1-1.6L445.1,356
		L445.1,356z M442.8,375.8c-1.2,0-2-1-2-1.9V368h1.2v5.7c0.1,0.4,0.4,0.7,0.8,0.9l0.4,0.2h7.1c0.3-0.1,0.7-0.4,0.9-0.7
		c0.3-1.2,0.8-1.9,0.9-3c0.4,0.1,0.6,0.3,0.9,0.5c-0.2,1.1-0.4,2.2-0.9,3.2c-0.4,0.6-1,1-1.7,1L442.8,375.8L442.8,375.8z
		 M447.1,372.4c-0.7-1.6-1.6-3.3-2.6-4.7c0.3-0.2,0.5-0.5,0.8-0.6c1,1.5,2,2.9,2.7,4.5L447.1,372.4z M450.1,364.9
		c-0.1,0.6-0.6,1.2-1.2,1.4c-0.9,0.2-1.9,0.1-2.9,0.1l-0.5-1.1h2.7c0.3-0.1,0.5-0.3,0.6-0.6l0.1-0.5v-7.4h1.2L450.1,364.9
		L450.1,364.9z M457.6,365.3c-1.8-1.7-3.7-3.5-5.7-4.9l0.7-0.7c2.2,1.6,3.8,2.7,5.9,4.8L457.6,365.3z M454.6,368.5
		c1.6,1.6,3.2,3.8,4.4,5.6l-1,0.6c-1.2-1.9-2.7-3.7-4.2-5.5L454.6,368.5z"/>
	<path fill="#FFFFFF" d="M490.9,367.2c0,2.6-0.6,6.1-1.5,7.5c-0.7,1.1-1.8,1.5-3,1.4c-0.3,0-1.1,0.2-1.5,0l-0.6-1.1
		c0.6,0.1,1.8,0.2,2.8,0c1.7-0.4,1.9-2.3,2.2-3.6c0.6-2.5,0.4-5.6,0.4-8.1v-6h-7.8c-0.7,1.4-1.5,2.8-2.5,4.1l-1.1-0.5v12.6H477v-2.2
		h-6.7v2.9h-1.2V357h2.6c0.9-1.8,1.4-3.7,1.8-5.7l1.1,0.3c-0.3,1.9-0.8,3.7-1.6,5.5h5.2v3.7c0.2,0.1,0.1-0.1,0.3-0.2
		c1.2-1.6,2.3-3.2,2.8-5.1c0.4-1.6,0.9-3.3,1.1-4.9c0.4,0.1,0.8,0.2,1.1,0.4c-0.3,1.7-0.6,3.6-1.3,5.3h8.6V367.2z M477.1,363.3v-5.2
		h-6.6v5.3L477.1,363.3L477.1,363.3z M477.1,370.2v-5.8h-6.6v5.9L477.1,370.2z M484.6,369.3c-0.6-2.4-1.7-4.7-3-6.9l0.9-0.7
		c1.2,2.3,2.5,4.4,3.2,6.9L484.6,369.3z"/>
	<path fill="#FFFFFF" d="M505.9,356.2V376h-1.2v-17.2c-0.7,1.4-1.6,3.1-2.5,4.4l-0.6-1.2c2.5-3.6,4-7.7,5.3-11.8l1.1,0.6
		C507.2,352.3,506.4,354.7,505.9,356.2z M525.1,376H524v-2.1h-13.7v2.1h-1.1v-24.4h15.9V376L525.1,376z M510.4,372.9H524v-20.3
		h-13.7V372.9z M513.5,362.5h3.1v-4.2h-4.8v-1h4.8v-3.6h1.1v3.6h4.8v1h-4.8v4.2h3v8.5h-1.1v-1.4h-5.1v1.5h-1.1L513.5,362.5
		L513.5,362.5z M514.5,368.5h5.1v-5.1h-5.1V368.5z"/>
	<path fill="#FFFFFF" d="M537.2,356.2c-0.4,2.3-0.9,4.6-1.6,6.9l-1-0.4c0.7-2.2,1.3-4.6,1.6-6.8L537.2,356.2z M539.8,376.2h-1.2
		v-25.7h1.2V376.2z M541.9,356c0.5,1.5,1,3.3,1.2,5l-1.1,0.2c-0.3-1.7-0.7-3.4-1.1-5L541.9,356z M550.4,373.3v-7.8h-5.6v-1.1h5.6
		v-6.9h-4.5c-0.5,2-1,4.1-1.9,6l-0.9-0.6c1.4-3.4,2.1-7.2,2.5-11.1c0.3,0,0.7,0,1.1,0c-0.2,1.6-0.4,3.1-0.6,4.6h4.3v-5.7h1.2v5.7
		h6.4v1.1h-6.4v6.9h5.7v1.1h-5.7v7.8h7.8v1.1h-17.6v-1.1H550.4z"/>
	<path fill="#FFFFFF" d="M573,357.9v18.7H572v-16.7c-1,2-1.9,3.7-3.7,5.8l-0.9-0.7c1.7-2.1,3.2-4.2,4.2-6.5l2.1-4.6l1.3-3.1l0.9,0.5
		C574.9,353.4,574,355.8,573,357.9z M591.8,374c-0.4,0.7-1.1,1.2-1.8,1.2h-8.8c-0.9,0-1.5-0.8-1.5-1.7v-22.7h1.1v11.7
		c3.4-1.8,7.1-4.1,10.2-6.6l0.9,0.8c-1.8,1.5-3.8,3-5.9,4.2l-4,2.3c-0.4,0.2-0.9,0.4-1.2,0.7v8.9c0,0.7,0.3,1.2,1,1.2h8.1
		c0.7,0,1.1-0.8,1.3-1.4c0.4-1,0.6-2.1,0.9-3.2l0.9,0.7C592.6,371.5,592.3,372.8,591.8,374z"/>
	<path fill="#FFFFFF" d="M602.1,365.6l3.7-5.7h-4v-1h5.9l-4.4,6.6h4.4c-0.4,1.9-0.9,3.5-1.7,5.2c2,2.4,4.4,4,7.5,4h12.6l-0.6,1
		h-12.1c-3.3,0-5.9-1.8-8.1-4c-1,1.7-2.2,3.1-3.7,4.6l-0.9-0.8c2.7-2.4,4.8-5.5,5.5-8.9H602v-1H602.1z M606.1,356l-1,0.5
		c-0.7-1.5-1.5-3-2.4-4.4l0.9-0.5C604.5,352.9,605.3,354.5,606.1,356z M622.8,355.6v1h-5.1v2.2h6.1v8.3h-6.1v2.2h7.8v1h-7.8v3.4
		h-1.2v-3.4h-7.7v-1.1h7.7V367h-6v-8.3h6v-2.2h-5v-1h5V354h1.2v1.5L622.8,355.6z M623.9,356.2v-2.8h-13.5v2.8h-1.2v-3.9H625v3.9
		H623.9z M616.4,359.9h-4.8v2.3h4.8V359.9z M616.4,363.3h-4.8v2.8h4.8V363.3z M622.4,359.9h-4.9v2.3h4.9V359.9z M622.4,363.3h-4.9
		v2.8h4.9V363.3z"/>
	<path fill="#FFFFFF" d="M641.8,352.6c-1.7,0.2-3.4,0.4-5.2,0.5l-0.6-0.9c3.9-0.2,7.7-0.8,11.3-1.8l0.8,0.8c-1.6,0.4-3.3,0.8-5,1.1
		v2.7h6.8v1H643v2.5h5.2v8.2H643v2.6h5.6v1H643v2.6l6.3-1c1.8-2.7,2.6-5.7,3.1-8.9c0.3-1.7,0.2-3.2,0.2-4.9h-3.3v-1h3.3v-6.9h1.2
		v6.9h5.2c0,2.6,0,5.7-0.1,7.8c-0.1,3.4-0.5,7.5-2.2,9.8c-0.8,1.1-2.5,0.7-3.9,0.7l-0.6-1.2c1.1,0,2.5,0.4,3.2-0.1
		c0.9-0.4,1.3-1.9,1.6-3.1c0.7-2.7,0.8-5.7,0.8-8.6V358h-3.9c0,7.5-2.3,14.5-6.4,18c-0.4-0.1-0.7-0.3-1.1-0.4
		c0.8-0.8,1.5-1.6,2.1-2.5l-1,0.1l-11.8,1.9l-0.4-1.1l1.9-0.1l4.6-0.7v-2.8h-5.6v-1h5.6v-2.6h-5.1v-8.2h5.1v-2.5h-6.5v-1h6.5
		L641.8,352.6L641.8,352.6z M641.8,359.5h-3.9v2.4h3.9V359.5z M641.8,365.7V363h-3.9v2.7H641.8z M647,359.5H643v2.4h4.1V359.5z
		 M647,363H643v2.7h4.1V363z"/>
	<path fill="#FFFFFF" d="M672.1,366c-0.1,3-0.9,5.8-1.9,8.4c-0.2,0.5-0.4,0.9-0.7,1.4c-0.3-0.1-0.6-0.4-0.9-0.6l0.7-1.6
		c0.1,0,0-0.1,0.1-0.2c1-2.5,1.6-5.4,1.6-8.3v-13.5h7.2V374c0,0.6-0.3,1.3-1.1,1.4s-1.6,0.2-2.6,0.1l-0.6-1.2
		c1.2,0.1,2.2,0.2,2.6,0.1c0.3-0.1,0.6-0.4,0.6-0.8V366H672.1z M677,352.7h-4.8v5.4h4.8V352.7z M672.2,359.1v5.7h4.8V359
		L672.2,359.1z M685.9,358.3c1.1,0,2.2,0.1,3-0.1c0.4-0.1,0.8-0.3,0.9-0.7c0.4-1.5,0.1-3.3,0.2-4.9h-7.8v9.4h9.6
		c-0.2,3.3-1.4,6.4-3.3,9c1.4,1.5,3,2.9,4.7,3.9l-0.7,0.9c-0.7-0.3-1.3-0.8-1.9-1.2c-1-0.8-1.9-1.6-2.8-2.6c-1.2,1.3-2.6,2.5-4,3.6
		c-0.3-0.2-0.5-0.6-0.7-0.8c1.4-1.1,2.8-2.2,4-3.6c-1.7-2.4-2.5-5.1-3.1-8h-1.6v12.9h-1.1v-24.5h10.1v4.8c0,1.2-0.3,2.5-1.5,2.9
		c-1,0.4-2.2,0.2-3.3,0.2L685.9,358.3z M685,363.1l0.5,2.1c0.4,1.8,1.2,3.5,2.3,4.9c1.5-2.1,2.5-4.4,2.8-7H685z"/>
	<path fill="#FFFFFF" d="M704.9,375.2c0.7,0,1.6,0.2,2.3,0c0.4,0,0.6-0.4,0.6-0.8V361c-0.1,0-0.2,0-0.3,0c-0.5,4.4-2.4,8.2-4.9,11.7
		l-0.9-0.8c2.4-3.2,4.1-6.8,4.6-10.9h-3.9v-1h11.1c-0.4,1.5-0.9,2.9-1.5,4.2l-1.1-0.4l1.1-2.8h-3.2v13.8c0,0.5-0.3,1.5-1.1,1.5
		c-0.8,0.1-1.4,0.2-2.4,0.1L704.9,375.2z M712.9,352.3c-0.9,2.1-2.4,3.9-4.1,5.6l0.8,1.1l-0.9,0.7c-0.8-1.2-1.8-2.4-3-3.4l0.9-0.6
		c0.6,0.4,1,0.9,1.5,1.4c1.1-1.1,2.2-2.4,2.9-3.7h-7.6v-1.1H712.9z M719.4,374.8c0.7,0.1,1.8,0.2,2.2,0c0.2,0,0.4-0.2,0.5-0.4
		c0.7-2.3,1.1-4.8,1.1-7.4h-4.7c-0.3,1.2-0.6,2.4-1.2,3.5c-1.2,2.4-3.2,4.4-5.4,5.9l-0.9-0.9c2.1-1.2,4.2-3.3,5.3-5.5
		c0.4-1,0.7-2,1-3H713v-1h4.5c0.2-0.8,0.2-1.7,0.2-2.6l1.2,0.1c-0.1,0.8-0.1,1.7-0.3,2.4h5.8c0.1,3.1-0.3,6.3-1.3,9.1
		c-0.4,1.2-2.2,0.9-3.2,1L719.4,374.8z M726.1,354.7h-2c-0.8,2-2,3.8-3.6,5.5c2,1.7,4.2,3,6.8,3.5l-0.7,1.1
		c-2.6-0.7-4.9-2.1-6.9-3.9c-2.2,1.9-4.6,3.3-7.1,4.5l-0.6-0.9c2.3-1.2,4.7-2.5,6.8-4.3c-1.2-1.2-2.2-2.5-3.2-3.8
		c-0.7,1-1.5,2-2.3,3l-1-0.6c2.2-2.4,3.9-5.1,4.6-8.2l1.1,0.4c-0.2,1-0.5,1.9-0.9,2.8h9.1L726.1,354.7L726.1,354.7z M716.6,354.7
		l-0.3,0.5c0.9,1.5,2.1,2.9,3.3,4.2c1.3-1.3,2.5-2.9,3.1-4.7H716.6z"/>
</g>
<g>
	<g>
		<path fill="#FFFFFF" d="M323.2,215.6c-2,1.9-5.3,4.8-7.1,5.9l-1.4-1.5c4-3.2,9.2-7.7,15.4-16.7c0.6,0.1,1.1,0.6,1.7,0.9l-0.3,0.8
			c-1.7,2.3-4.5,6.1-5.9,7.7v20.1h-2.3v-17.2H323.2z M316.8,248.2c-0.6-0.3-1.1-0.8-1.6-1.2c3.1-3.4,5.3-6.8,7.5-10.3
			c0.6,0.2,1,0.5,1.5,1C321.9,241.4,319.9,245,316.8,248.2z M327.3,228.8c4.2-2.6,7.7-5.8,11.2-9.7c0.6,0.3,1.1,0.8,1.7,1.1
			c-3.5,3.9-7,7.6-11.3,10.3L327.3,228.8z M337,212.6c-2.3,3.1-4.6,5.8-7.6,8.2c-0.6-0.3-1.3-0.9-1.9-1.2
			c5.4-4.3,9.4-10.3,12.9-16.3c0.6,0.2,1.2,0.6,1.8,0.9c-1.1,2.1-2.5,4.2-3.7,6.2h22.7c-1.4,3.4-3.4,6.4-5.6,9.5l-2.1-0.9
			c0.7-1.1,1.6-2.2,2.3-3.4l1.9-3H337z M332.5,250.3c-2.3,0-3.9-1.9-3.9-3.7v-11.3h2.2v10.9c0.2,0.7,0.8,1.4,1.4,1.7l0.9,0.3h13.6
			c0.6-0.2,1.3-0.7,1.7-1.4c0.6-2.4,1.6-3.7,1.8-5.7c0.7,0.2,1.2,0.6,1.8,1c-0.4,2.1-0.8,4.3-1.7,6.2c-0.7,1.1-1.9,1.9-3.2,1.9
			h-14.6V250.3z M341,243.9c-1.3-3.1-3-6.3-5-9c0.5-0.4,1-0.9,1.6-1.1c2,2.8,3.7,5.6,5.2,8.7L341,243.9z M346.5,229.5
			c-0.3,1.1-1.1,2.3-2.2,2.7c-1.7,0.4-3.7,0.2-5.6,0.2l-1-2.1l5.1-0.1c0.5-0.1,1-0.6,1.2-1.1l0.2-1v-14.2h2.2L346.5,229.5
			L346.5,229.5z M360.8,230.2c-3.5-3.3-7.2-6.7-10.9-9.4l1.3-1.4c4.2,3.1,7.3,5.1,11.2,9.2L360.8,230.2z M355,236.4
			c3.1,3,6,7.2,8.4,10.8l-2,1.1c-2.2-3.6-5.1-7-8.1-10.5L355,236.4z"/>
		<path fill="#FFFFFF" d="M416.2,233.9c0,4.9-1.1,11.7-2.9,14.4c-1.4,2.2-3.4,2.9-5.8,2.7c-0.6,0-2.2,0.3-2.9,0l-1.1-2.1
			c1.2,0.2,3.5,0.4,5.3,0c3.3-0.7,3.6-4.3,4.2-6.9c1.1-4.8,0.9-10.7,0.9-15.4l-0.1-11.5h-14.9c-1.3,2.8-2.9,5.4-4.8,7.8l-2-0.9v24
			h-2.3l-0.1-4.2H377v5.5h-2.3v-32.9h4.9c1.8-3.5,2.7-7.1,3.5-11l2,0.5c-0.5,3.6-1.5,7.1-3,10.4h10v7.1c0.3,0.2,0.3-0.3,0.5-0.4
			c2.3-3.1,4.3-6.1,5.3-9.7c0.9-3.1,1.8-6.2,2.1-9.4c0.7,0.2,1.4,0.4,2.1,0.7c-0.6,3.3-1.2,6.9-2.4,10.1l16.4,0.1L416.2,233.9
			L416.2,233.9z M389.7,226.5v-10l-12.7-0.1v10.1H389.7z M389.7,239.7v-11.1l-12.7-0.1v11.2L389.7,239.7z M404.4,238
			c-1.1-4.7-3.3-9-5.7-13.1l1.8-1.2c2.3,4.3,4.8,8.4,6.1,13.2L404.4,238z"/>
		<path fill="#FFFFFF" d="M436.5,212.9v37.8h-2.2v-32.9c-1.3,2.7-3,5.9-4.9,8.5l-1.2-2.3c4.9-6.9,7.6-14.7,10.1-22.6l2,1.1
			C439.3,205.4,437.6,210,436.5,212.9z M473.5,250.7h-2.1v-4h-26.1v4h-2.1V204h30.3L473.5,250.7L473.5,250.7z M445.2,244.8h26.2
			l-0.1-38.8h-26.1V244.8z M451.3,224.8h5.9v-8h-9.1v-1.9h9.1V208h2.1v6.9h9.2v1.9h-9.2v8h5.8V241h-2v-2.7h-9.7v2.9h-2L451.3,224.8
			L451.3,224.8z M453.3,236.4h9.7v-9.7h-9.7V236.4z"/>
		<path fill="#FFFFFF" d="M527.9,250.6c-9.8-7.5-16.8-18.4-21.7-29.4c-3,11.6-10.4,22.2-20.5,29.5l-1.9-1.8
			c4.6-3.4,8.9-7.4,12.3-12.2c5-7,8.1-15.1,8.9-23.9c0.3-3.1,0.5-5.9,0.5-9.2l2.7,0.1c-0.3,4.7-0.4,9.5-1.3,13.9
			c4.2,9.9,10.1,19.1,17.9,27.1c1.5,1.5,3.3,3.1,5.1,4.2L527.9,250.6z"/>
		<path fill="#FFFFFF" d="M538.1,249.2c5.4-4.5,8.8-11.1,9.6-17.9H540v-1.6c2.7-3.4,5.2-6.9,7.1-10.8h-8.3V217h10.5v2.2
			c-1.4,2.3-4.2,7.1-6.6,10.2h7.1c-0.1,3.6-0.8,7-2,10.2c2.8,4.4,7.5,6.8,12.4,7.6l2.6,0.1l20.3-0.1l2.6-0.2l-1.2,2.3l-24-0.1
			c-4.5-0.9-9-2.4-12.1-6.2c-0.5-0.5-0.9-1.2-1.5-1.6c-1.7,3.7-4.5,6.8-7.5,9.6L538.1,249.2z M547.4,212.3l-1.9,0.9
			c-1.2-2.9-2.7-5.7-4.5-8.2l1.8-1C544.6,206.7,546,209.5,547.4,212.3z M554.7,225.3h6v-4.4h2v4.4H573v-4.4h2v4.4h6.1v1.9H575v6.3
			h8.3v1.9h-30.9v-1.9h8.2v-6.3h-6L554.7,225.3L554.7,225.3z M555.9,216.2c0,0.7,0.7,1.5,1.6,1.5h6c0.9,0,1.1-0.9,1.4-1.5l0.6-2.3
			l1.6,0.8c-0.4,1.8-1.3,4.8-3,4.8h-7.7c-1.2,0-2.5-1.3-2.5-2.4v-12.6h11.4v8.7h-9.4V216.2z M554.7,243.8c2.2-2.1,4.9-4.6,6.8-6.9
			l1.7,1.1c-2.3,2.5-4.6,4.8-7.1,7.2L554.7,243.8z M555.9,211.4h7.4v-5h-7.4V211.4z M573,227.2h-10.3v6.3H573V227.2z M578.6,217.8
			c0.9,0,1.2-0.5,1.4-0.9c0.3-1,0.6-1.8,0.7-2.8l1.8,0.8c-0.4,1.7-0.8,4.7-2.8,4.7h-8c-1.7,0-2.8-1.5-2.8-2.7v-12.3h11.3v8.7h-9.3v3
			c0,0.9,1,1.5,1.8,1.5H578.6z M571,211.4h7.4v-5H571V211.4z M580.8,244.1l-1.7,1.2l-5.5-5.9l-0.8-0.8l1.4-1.4L580.8,244.1z"/>
		<path fill="#FFFFFF" d="M597.2,248.1c1.5,0.2,2.6,0.2,3.5,0.2c0.8-0.1,1.5-0.7,1.5-1.5v-16l-5.8,3.5l-1.5-1.8
			c2.4-1.2,5.1-2.7,7.4-4.2v-13l-6.6-0.1v-1.9l6.6,0.1v-11.7h2.1v11.7h6.6v1.9h-6.6V227l6.1-4.1v2.4l-6.1,4.1v17.8
			c0,1.6-1,3.3-3,3.3h-2.7L597.2,248.1z M628.6,233.7c1.7-1.9,2.6-4.1,3.7-6.2h-21v-1.9H625v-4.1h-11.5v-1.9H625v-3h2.1v3h11.7v1.9
			h-11.7v4.1h13.7v1.9h-8.3l1.8,0.9c-0.8,1.8-2,3.6-3.2,5.4h8.4v1.9h-12.4v5.1h14.1v1.9h-14.1l-0.1,8.9h-2v-8.9h-14v-1.9h14v-5.1
			h-12.3v-2h8c-0.7-1.6-2.5-3.7-3.9-5.2l1.8-0.9c1.5,1.7,2.9,3.5,4.2,5.4l-1.3,0.6L628.6,233.7z M638.4,215.1H613v-10.9h25.4V215.1z
			 M615.1,213.2h6v-7h-6V213.2z M623.2,206.2v7h5.3v-7H623.2z M636.3,206.2h-5.7v7h5.7V206.2z"/>
	</g>
	<g>
		<path fill="#FFFFFF" d="M275.3,308.4c-1.1,2.2-2.1,2.4-5.3,2.4l-30.3,0.1c-1.7,0-2.9-1.9-2.9-3.4V279h2.3v6.6h28.1l-0.1-14.2
			h-32.2v-2.1h34.7v22.6h-2.4l0.1-4.1l-28.1-0.1V307c0,0.9,0.6,1.9,1.6,1.9h31c2.2-0.4,1.7-3.2,2.2-4.9l0.4-2.8l2.2,0.9
			C276.3,304.1,276.1,307,275.3,308.4z"/>
		<path fill="#FFFFFF" d="M288.5,288.9v-2h7.9l0.1-6.7h-4.9c-0.9,1.4-1.9,2.8-2.9,4.1c-0.6-0.3-1-0.9-1.5-1.3
			c4.6-5.9,7.4-12.7,10.2-19.4c0.6,0.2,1.1,0.5,1.7,0.8l-1,2.6c2.9,2.5,6.1,5.1,8.6,8.1l-1.5,1.4c-2.5-3-4.8-5.1-7.7-7.6
			c-1.3,2.8-3.2,7.1-4.5,9.2h11.3v2h-5.5v6.7l6.9,0.1l-0.1,2h-6.9v16.9c2.5-0.6,5-1.3,7.6-1.9c0.1,0.6,0.1,1.4,0,1.9l-18,4.6l-1-2.1
			c3.1-0.5,6.2-1.2,9.2-2.1l0.1-17.4L288.5,288.9z M292.1,303.8c-0.9-3.4-2.1-6.9-3.6-10.1l1.8-0.9c1.5,3.3,2.9,6.7,3.8,10.2
			L292.1,303.8z M306,293.3c-1.1,3.4-2.7,6.7-4.3,9.8c-0.6-0.1-1.2-0.6-1.8-0.9c1.9-3.1,3.2-6.4,4.5-9.7L306,293.3z M312,310.6
			c1.3,0.1,4.5,0.2,5.7,0.1c1.1,0,1.4-1,1.4-2l0.1-10l-11.3,7.9l-1.3-1.7l12.6-8.7c-0.1-4.7,0.1-8.5-0.1-12.2h-13.7v-1.9h18.3
			c0.3-1.5,0.7-3,1.1-4.5H311l3.6-14.2l1.9,0.5c-0.3,1.2-0.7,2.5-0.9,3.9l13.7,0.1l-3.5,14.2h9.7v1.9h-14.3v25.5
			c0,2.2-1.3,3-3.1,3.1c-1,0.1-4,0.1-5.7-0.1L312,310.6z M314.4,296.3c-1.8-2.8-3.8-5.2-6.2-7.7l1.5-1.2c2.8,2.8,5.2,6.1,6.4,7.7
			L314.4,296.3z M315,269.9l-1.4,5.7h11.5l1.4-5.7H315z M334,306.9c-2.3-2.1-7.2-5.6-11.5-8.1l1-1.6c3.8,2,8.3,5,11.8,8.2L334,306.9
			z M324.7,295c2.5-2.3,4.8-5.3,6.8-8.1l1.5,1.1c-1.9,2.7-4.4,5.8-6.9,8.3L324.7,295z"/>
		<path fill="#FFFFFF" d="M390.2,311.4c-11.7-9-18.2-18.1-22.2-30.4c-6.4,16.3-12.4,21.3-22.5,30.6l-1.7-1.5
			c10.8-9,19.6-18.9,23.4-34.9c-0.2-2.1-0.2-4.2-0.3-6.3h-10.4v-2.1h12.7c0,7.4,0.2,14.5,3.5,20.7c6.6,12.3,10.5,15.4,19.1,22.4
			L390.2,311.4z"/>
		<path fill="#FFFFFF" d="M413.8,311.3c0,1-1.1,2.2-2.2,2.2c-0.5,0.2-2.4,0.4-4,0l-1-2c1.7,0.2,3.2,0.3,3.9,0.2
			c0.8-0.2,1.1-0.6,1.1-1.4V297l-10.4,4.1l-1.3-1.8l11.7-4.7V283h-11l0.1-2.1h10.9v-9.3c-3.1,1-6.4,2.1-9.7,2.8l-1.2-1.8
			c7.3-1.8,14.3-4.1,20.9-7.5l1.7,1.5c-3,1.5-6.1,2.9-9.3,4.1l-0.1,10.1h12.7v-8.6v-8.1l2.2,0.1v13.2l0.2,3.4h15.1v2.1h-15.2
			c0.2,5.5,1.3,10.4,3.4,15.1c3.1-3.8,5.9-7.8,7.4-12.4l2,1c-1.8,5-5.1,9.4-8.4,13.8c1.9,3.7,4.6,7.4,8.2,9.8c0.3,0.1,0.9,0.4,0.9,0
			c0.7-1.8,1.1-3.8,1.5-5.7l0.3-1.3l2.1,1.1c-0.5,2.6-1.2,5.3-2.1,7.8c-0.3,0.5-0.6,1-1.4,1.1c-2.1-0.2-3.5-1.8-5.1-3.1
			c-2.5-2.2-4.4-5-6-7.8c-4.1,4.1-8.4,7.1-13,10.1l-1.8-1.4c4.8-3.1,9.7-6.4,13.7-11c-2.5-5.3-3.6-11.1-3.9-17.2h-12.9l-0.1,10.7
			c3.3-1.2,6.5-2.4,9.7-3.8v2.4l-9.7,3.8L413.8,311.3L413.8,311.3z M439.8,276.1c-2-3-4.2-5.8-7.1-8.4l1.5-1.2
			c2.8,2.3,5.2,5.3,7.4,8.2L439.8,276.1z"/>
		<path fill="#FFFFFF" d="M455.1,286.6c2.9-3.4,5.2-7.1,6.6-11.2l2.8-7.7l1.1-3.7l2.1,0.4c-1,4.1-2.4,8-3.8,11.9l-0.1,36.8h-2.2v-32
			c-1.5,2.6-3,5.3-5.1,7.6L455.1,286.6z M483.2,266.7v18.4h-10.3v28.1h-2.2v-46.5H483.2z M472.9,268.7v5.7h8.1v-5.7H472.9z
			 M480.9,276.5h-8v6.5h8V276.5z M491.9,311.1c1.9,0.1,4.1,0.3,5.4,0.1c0.6-0.1,1.2-0.7,1.2-1.3V285h-10.6l0.1-18.3h12.8l0.1,44
			c0,1.1-1.2,2.5-2.2,2.5c-1.8,0.2-3.7,0.2-5.6,0.1L491.9,311.1z M498.4,274.4v-5.8l-8.3,0.1v5.8L498.4,274.4z M498.5,276.5h-8.3
			v6.5h8.3V276.5z"/>
		<path fill="#FFFFFF" d="M555.6,295.9c0,4.9-1.1,11.7-2.9,14.4c-1.4,2.2-3.4,2.9-5.8,2.7c-0.6,0-2.2,0.3-2.9,0l-1.1-2.1
			c1.2,0.2,3.5,0.4,5.3,0c3.3-0.7,3.6-4.3,4.2-6.9c1.1-4.8,0.9-10.7,0.9-15.4l-0.1-11.5h-14.8c-1.3,2.8-2.9,5.4-4.8,7.8l-2-0.9v24
			h-2.3l-0.1-4.2h-12.7v5.5h-2.3v-32.9h4.9c1.8-3.5,2.7-7.1,3.5-11l2,0.5c-0.5,3.6-1.5,7.1-3,10.4h10v7.1c0.3,0.2,0.3-0.3,0.5-0.4
			c2.3-3.1,4.3-6.1,5.3-9.7c0.9-3.1,1.8-6.2,2.1-9.4c0.7,0.2,1.4,0.4,2.1,0.7c-0.6,3.3-1.2,6.9-2.4,10.1l16.4,0.1V295.9z
			 M529.2,288.5v-10l-12.7-0.1v10.1H529.2z M529.2,301.7v-11.1l-12.7-0.1v11.2H529.2z M543.8,300c-1.1-4.7-3.3-9-5.7-13.1l1.8-1.2
			c2.3,4.3,4.8,8.4,6.1,13.2L543.8,300z"/>
		<path fill="#FFFFFF" d="M566.6,296.7h9.3l1.8-2.7c0.6,0.2,1.1,0.8,1.7,1.1c-0.3,0.5-0.7,1.1-1,1.6h17.8v1.8h-6.9
			c-1.4,2.6-3.8,5.4-6.1,7.4c2.4,1.1,4.8,2.3,7.1,3.5c-0.2,0.5-0.7,1.1-1.1,1.7c-2.5-1.4-5-2.7-7.6-3.9l-0.4,0.1
			c-4.1,2.8-8.6,4.4-13.3,5.7c-0.3-0.5-0.6-1.1-1.2-1.6c4.4-1.1,8.8-2.5,12.6-5.1c-1.9-0.9-3.8-1.6-5.8-2.3l-1.3,1.8l-1.8-0.8
			l4.3-6.5h-8.1V296.7z M567.2,273.5l3.7,0.1v-5.7h8.6v-4.4h2.2v4.4h9.1v5.7h4.6v1.8h-4.6v5.9h-9.2l0.1,3.6h10.5l0.1,8.2h-10.5v1.8
			h-2.2v-1.8h-10v-8.2h10.1v-3.6l-8.6,0.1l-0.1-5.9l-3.6,0.1L567.2,273.5z M571.7,286.8v4.5h7.9v-4.4L571.7,286.8z M573,273.6
			l6.5-0.1v-3.8H573V273.6z M573,275.5v4.1h6.5v-4.1H573z M577.2,298.6c-0.8,1.3-1.7,2.7-2.5,3.9c2.1,0.8,4.2,1.6,6.2,2.5l0.4,0.2
			c2.3-1.8,4.4-4.2,5.8-6.7L577.2,298.6z M588.6,269.8h-7v3.8h7V269.8z M588.6,275.5h-7v4h7V275.5z M581.7,286.8v4.5h8.3v-4.5H581.7
			z M609.3,277.1c-0.4,8.1-1.7,14.5-5.1,20.7c2.5,4.8,5.6,9.6,10,13.5l-1.7,1.5c-3.8-3.7-7-8.3-9.4-12.8c-2.3,3.8-5.1,7.7-8.5,10.7
			l-2.1,1.8c-0.6-0.4-1-0.9-1.5-1.5c4.4-3.6,8.4-8.4,11-13.4c-1.9-4.8-3.4-9.6-4.5-14.8c-0.8,2.1-1.7,4.1-2.6,6.1l-1.7-0.7
			c3.3-7.8,5.9-15.8,6-24.8l1.8,0.4c0.1,3.9-0.5,7.7-1.4,11.4h14l-0.1,1.8L609.3,277.1L609.3,277.1z M599.3,277.3l-0.5,1.7
			c0.9,5.2,2.2,10.3,3.9,15.1c0.1,0.2,0.2,0.3,0.2,0.5c0.1,0.2,0.1,0.5,0.3,0.5c2.5-5.5,4.1-11.5,4.1-18L599.3,277.3z"/>
		<path fill="#FFFFFF" d="M631.8,275.5h6.2v1.8l-6.1,0.1v11.2l0.3-0.1c1.7-1,3.7-2.7,5.7-3.8v2.1l-6,4.4v19.1c0,1-0.7,2.4-1.9,2.6
			c-1,0.2-3.3,0.4-4.9,0.2l-0.9-2.2c1.4,0.3,2.9,0.3,3.8,0.1c1.1-0.1,1.6-0.9,1.6-1.8v-16.7c-1.9,1.1-3.8,2.6-5.7,3.8l-1.2-1.8
			c2.4-1.2,4.6-2.8,6.8-4.3v-12.8h-6.2v-1.8l6.3,0.1l-0.1-11.8h2.1L631.8,275.5z M641.7,274.5l-0.1,20.3c0,6.9-3.1,12.9-7.2,18.3
			c-0.6-0.3-1.1-1.1-1.7-1.4c3.1-4.3,5.9-8.9,6.4-14.3l0.4-4.1l-0.1-20.7h11.3l0.1-9h2.1v3.4h12.5v1.9l-12.6-0.1l0.1,3.7l16.1,0.1
			c-0.5,2.6-1.1,5.2-2,7.6l-1.8-0.6c0.6-1.7,1.2-3.4,1.5-5.2h-14.4v3.2c2.9-0.3,5.8-0.6,8.8-1l0.3,1.8l-9,1l0.1,2.2
			c0,0.6,0.5,1.2,1.3,1.2h10.6v1.9l-11.9-0.1c-1.6,0-2.2-1.4-2.2-2.4v-2.7l-6.6,0.7c-0.1-0.6-0.1-1.2-0.3-1.8l6.9-0.8v-3.5
			L641.7,274.5z M668.3,310.6c-3.6-3.5-6.7-6.9-9.1-11c-0.4,0.2-0.7,0.6-1.1,0.9c0.6,3.4,0.6,8.4-0.7,10.5c-1.5,2.5-5.3,2.1-7.8,1.6
			l-0.6-2c2,0.4,4.2,0.8,5.7,0.2c1.4-0.8,1.4-2.4,1.8-3.8l0.1-2.8l-0.3,0.1c-4.6,3-9.7,5-14.8,7l-1.4-1.7c5.7-1.9,11.2-4.3,16.3-7.7
			c-0.2-1.3-0.6-2.5-1.1-3.6c-3.7,2.2-7.6,4.2-11.6,5.8l-1.2-1.5c4-1.8,8.1-3.5,11.8-6c-0.6-1-1.4-2.1-2.2-3
			c-2.6,1.5-5.1,2.9-7.8,4.1c-0.4-0.4-0.8-1-1.2-1.6c1.7-0.9,3.6-1.7,5.3-2.7c2-1.1,4-2.4,5.9-3.7l-10.8-0.1v-1.8h24.7v1.8h-11
			c-1.1,1-2.2,2.1-3.5,3c1.7,1.8,2.9,3.8,3.9,5.9c2.4-1.8,4.9-4.3,7-6.5l1.5,1.2c-1.7,1.7-3.6,3.5-5.5,5c2.2,4,5.7,7.8,9.2,10.9
			L668.3,310.6z"/>
		<path fill="#FFFFFF" d="M724.3,268.5v1.9h-38.7l0.1,16.9c0.1,8.8-1.4,17.7-6.1,24.8l-1.8-1.5c1.4-2.4,2.6-5,3.4-7.7
			c0.1-0.1,0.1-0.4,0.2-0.6c1.8-6.7,2.3-12.9,2.2-20.8l-0.1-13.1h21.1c-2-1.6-4.4-3-6.7-4.3c0.4-0.6,0.8-1.1,1.2-1.7
			c2.4,1.3,4.8,2.9,7,4.4l-1.1,1.6h19.3V268.5z M719.3,298h-13v4.9h18.8v1.8h-18.8v7.7h-2v-7.8l-17.3,0.1v-1.8h17.3V298h-13.1v-16.1
			h13.1v-4.7h-15.9v-1.9h15.9l0.1-3.4h2v3.4h15.9v1.9h-15.8l-0.1,4.7h13.1V298H719.3z M704.1,283.6h-11l-0.1,4.9h11L704.1,283.6
			L704.1,283.6z M693.1,290.4v5.8h11v-5.8H693.1z M717.2,290.4h-10.9l-0.1,5.8h10.9L717.2,290.4z M717.2,283.6h-10.9v4.9h10.9V283.6
			z"/>
	</g>
</g>
</svg>
