<?xml version="1.0" encoding="utf-8"?>
<!-- Generator: Adobe Illustrator 18.0.0, SVG Export Plug-In . SVG Version: 6.00 Build 0)  -->
<!DOCTYPE svg PUBLIC "-//W3C//DTD SVG 1.1//EN" "http://www.w3.org/Graphics/SVG/1.1/DTD/svg11.dtd">
<svg version="1.1" id="图层_1" xmlns="http://www.w3.org/2000/svg" xmlns:xlink="http://www.w3.org/1999/xlink" x="0px" y="0px"
	 viewBox="0 0 960 560" enable-background="new 0 0 960 560" xml:space="preserve">
<g>
	<path fill="#FFFFFF" d="M329.1-422.7c-1.7,2.2-4.5,5.8-5.8,7.4v19.3h-2.2v-16.6c-1.9,1.9-5.2,4.6-7,5.7l-1.3-1.5
		c3.9-3.1,8.9-7.4,14.9-16c0.6,0.1,1.1,0.6,1.6,0.9L329.1-422.7z M314.8-381.3c-0.6-0.3-1-0.8-1.6-1.2c3-3.2,5.2-6.5,7.3-9.9
		c0.6,0.2,1,0.5,1.5,0.9C319.8-387.9,317.9-384.4,314.8-381.3z M326.5-398.3L325-400c4-2.5,7.5-5.6,10.8-9.3c0.6,0.3,1.1,0.7,1.7,1
		C334.2-404.5,330.7-400.9,326.5-398.3z M352.6-408.6l-2-0.9c0.7-1,1.6-2.1,2.3-3.2l1.9-2.9h-20.2c-2.2,3-4.5,5.7-7.4,7.9
		c-0.6-0.3-1.2-0.8-1.9-1.2c5.3-4.1,9.2-9.9,12.5-15.7c0.6,0.2,1.2,0.6,1.8,0.9c-1.1,2-2.4,4-3.6,6H358
		C356.6-414.4,354.7-411.5,352.6-408.6z M347.5-381.2c-0.7,1.1-1.9,1.9-3.1,1.9h-14.3c-2.3,0-3.8-1.9-3.8-3.5v-10.8h2.2v10.5
		c0.2,0.7,0.8,1.3,1.4,1.7l0.8,0.3h13.2c0.6-0.2,1.3-0.7,1.6-1.3c0.6-2.3,1.6-3.5,1.8-5.5c0.7,0.2,1.2,0.6,1.8,0.9
		C348.7-385.1,348.3-383,347.5-381.2z M338.3-385.5c-1.3-3-2.9-6-4.9-8.6c0.5-0.4,0.9-0.8,1.6-1c1.9,2.7,3.6,5.4,5.1,8.3
		L338.3-385.5z M341.5-396.7c-1.7,0.4-3.6,0.2-5.4,0.2l-0.9-2h5c0.5-0.1,1-0.6,1.2-1l0.2-0.9v-13.6h2.2v14.8
		C343.4-398.2,342.6-397.1,341.5-396.7z M357.6-398.6c-3.4-3.2-7-6.4-10.6-9l1.3-1.3c4.1,3,7.1,4.9,10.9,8.8L357.6-398.6z
		 M358.3-381.3c-2.2-3.4-4.9-6.7-7.9-10.1l1.6-1.2c3,2.9,5.9,7,8.2,10.3L358.3-381.3z"/>
	<path fill="#FFFFFF" d="M410.2-381.3c-1.4,2.1-3.3,2.8-5.6,2.6c-0.6,0-2.1,0.3-2.8,0l-1.1-2c1.2,0.2,3.4,0.4,5.1,0
		c3.2-0.7,3.5-4.2,4-6.6c1-4.6,0.9-10.2,0.9-14.8v-11.1h-14.5c-1.3,2.6-2.9,5.2-4.7,7.6l-2-0.9v23h-2.2v-4h-12.5v5.3h-2.2v-31.6h4.7
		c1.7-3.4,2.6-6.9,3.4-10.6l2,0.5c-0.5,3.4-1.5,6.9-3,10.1h9.7v6.8c0.3,0.2,0.3-0.3,0.5-0.4c2.3-3,4.2-5.8,5.2-9.3
		c0.8-3,1.8-6,2.1-9c0.7,0.2,1.4,0.4,2.1,0.7c-0.6,3.2-1.1,6.6-2.3,9.7l15.9,0.1v20C412.9-390.4,411.9-383.9,410.2-381.3z
		 M387.3-411.8h-12.5v9.8h12.5V-411.8z M387.3-400.2h-12.5v10.7h12.5V-400.2z M401.5-391.1c-1.1-4.5-3.2-8.6-5.6-12.6l1.7-1.2
		c2.2,4.2,4.6,8.1,5.9,12.7L401.5-391.1z"/>
	<path fill="#FFFFFF" d="M469.8-401.6c-7.6-4.4-15.4-10.4-21.1-20.1c-4.4,7.8-12.9,16.6-21.5,20.1l-1.8-1.5
		c10.5-5.2,17.9-12.3,23.1-22.6l1.8,0.8l-0.5,1c4.5,9.1,13.5,15.8,21.6,20.6L469.8-401.6z M447.4-379.6v-31.3h2.1v31.3H447.4z"/>
	<path fill="#FFFFFF" d="M524.6-379c-9.5-7.2-16.2-17.4-21.1-28.2c-3,11.4-10.4,21.5-19.9,28.3l-1.9-1.8
		c15.3-11.2,21.2-24.7,21.2-43.4h2.6c-0.3,4.5-0.4,9-1.2,13.4c4.1,9.6,10,18.7,17.4,26.1c1.5,1.5,3.1,2.9,4.9,4L524.6-379z"/>
	<path fill="#FFFFFF" d="M581.5-380.3h-24.3c-6.1-0.7-8.8-2.5-12-5.1l-7.1,5.8l-1.6-1.6c2.8-1.8,5.6-4,8.3-6.4v-16.7h-7v-1.9h9.1
		v19.7c3.6,3.2,7.7,4.4,12.4,4.4h18.6c1.5-0.2,3.1-0.2,4.5-0.3L581.5-380.3z M546.9-415.1c-1.2-2.8-3.4-5.2-5.7-7.3l1.6-1.1
		c2.4,2,4.4,4.5,5.8,7.1C548-415.9,547.5-415.5,546.9-415.1z M579.1-386.6c-1.1,0.3-2.3,0.3-3.5,0.3c-1.3-0.1-2.5-0.1-3.8-0.1
		c-1.7-0.6-2.1-1.6-2.5-3.2v-13.7h-5.8c0.1,8.1-2.3,14.8-10,18.7l-1.2-1.9c7.4-3.7,9.1-9,9.2-16.8H553v-1.9h12.6v-9.7h-8
		c-1,2.9-2,5.1-3.8,7.2l-1.6-1.1c2.4-3.6,4.8-8.3,5.3-14.2l1.7,0.6c-0.1,1.6-0.4,3.3-0.9,5.6h7.3v-7.2h2.1v7.2h8.6v1.9h-8.6v9.7
		h12.6v1.9h-9v13.7c0.3,0.7,0.7,1,1.3,1.2h5.1c0.8-0.2,1.5-0.8,1.8-1.6c0.2-0.9,0.2-1.9,0.3-2.9l1.9,0.9
		C581.5-389.5,581.1-387.3,579.1-386.6z"/>
	<path fill="#FFFFFF" d="M601.9-411.6v11.8c1.8-0.8,3.5-1.5,4.7-1.9v2.1c-1.4,0.7-3.1,1.2-4.7,2.2v15.3c-0.2,1.2-0.9,2.4-2.1,2.7
		c-0.7,0.2-1.5,0.3-2.3,0.3c-0.7,0-1.4-0.1-2.1-0.1l-0.8-2.2l3.8,0.2c0.6-0.2,1.1-0.7,1.5-1.2v-14.1c-2.4,1.2-4.5,2-6.2,2.8
		l-1.3-1.8c2.4-0.9,4.9-1.9,7.6-3.2v-13h-6.6v-1.9h6.6v-11.3h1.9v11.3h6.9v1.9H601.9z M636.9-403.2c-5-1.1-9.7-3.1-14.2-6
		c-4.6,2.8-9.2,4-14.2,5.2l-1.3-1.6c5.7-1.3,10.1-3,13.8-4.8c-4-3.4-6.5-6.9-8.5-10.8h-2.9v-1.9H634v2.1c-2.2,3.9-5.1,7.5-9.4,10.7
		c3.3,2,8.4,4.2,13.4,5.2L636.9-403.2z M623.4-390.3v11.2h-1.9v-11.2h-14v-1.9h14v-5.9h-11.9v-1.9h11.9v-3.9h1.9v3.9h11.6v1.9h-11.6
		v5.9h13.7v1.9H623.4z M614.5-421.2c2.3,3.9,4.7,7.3,8.3,9.7c3.8-2.3,6.4-5.6,9.2-9.7H614.5z"/>
</g>
<g>
	<path fill="#FFFFFF" d="M272.3-319.9c-1.2,2.4-2.8,2.3-5.2,2.3h-29.4c-1.6,0-2.8-1.7-2.8-3.2v-27.4h2.2v6.3h27.4v-13.7h-31.5v-2
		h33.7v21.6h-2.2v-4H237v18.5c0,0.9,0.6,1.8,1.6,1.8h30.2c1.8,0,2-3.5,2.1-4.7l0.4-2.7l2.2,0.8C273.2-324.4,273-321.4,272.3-319.9z"
		/>
	<path fill="#FFFFFF" d="M330.3-321.3c-9.2-3.3-14.2-7.2-20.2-13.6v15.2c0,1.9-0.6,3.2-2.1,3.5c-1.6,0.4-3.1,0.3-4.7,0.3l-0.7-2
		c0.7,0.1,1.2,0.1,1.7,0.2c0.7,0.1,1.4,0,2.2-0.1c1-0.2,1.6-0.8,1.6-2v-21.4H287v-1.9h30.3l0.7-6.5h-22v-1.9h22.2l0.7-6.6h-26.1
		v-1.9h28.3l-1.8,17h11.1v1.9h-20.3v3.6c0.7,1.6,4,4.8,6.6,6.7c3.1-1.8,6.3-4.3,8.8-6.7l1.2,1.2c-2.7,2.4-5.1,4.3-8.5,6.5
		c3,2.3,4.5,3.1,7.1,4.3c2.1,1,4.1,1.7,6.3,2.3L330.3-321.3z M289.4-321.2l-1.8-1.9c6.3-2.3,12.5-4.9,18.6-7.6v2.1
		C300.6-326.1,294.9-323.7,289.4-321.2z M298.6-331.2c-2-2.5-4.7-4.4-7.2-5.9l1.1-1.2c2.6,1.4,5.7,3.7,7.6,5.7L298.6-331.2z"/>
	<path fill="#FFFFFF" d="M386.9-316.9c-10.5-8-17.4-16.6-21.6-29.2c-5.8,14.4-10.7,19.3-21.9,29.4l-1.6-1.5c9.4-7.8,17-16,21.1-27.8
		c0.3-0.7,1.7-5.1,1.7-5.7c0-2-0.2-4-0.3-6.1h-10.1v-2h12.3c0,6.8,0.2,13.7,3.4,19.8c5.5,10.4,9.7,14.3,18.6,21.5L386.9-316.9z"/>
	<path fill="#FFFFFF" d="M440.9-316.1c-0.3,0.5-0.6,1-1.3,1c-2-0.2-3.4-1.8-4.9-3c-2.4-2.1-4.3-4.8-5.9-7.5
		c-3.9,3.9-8.2,6.9-12.6,9.7l-1.7-1.3c4.7-3,9.4-6.1,13.3-10.5c-2.4-5.1-3.5-10.7-3.8-16.6h-12.6v10.3c3.2-1.2,6.3-2.3,9.4-3.6v2.3
		l-9.4,3.6v14.7c0,1-1,2.1-2.2,2.1c-0.5,0.2-2.3,0.4-3.9,0l-1-1.9c1.6,0.2,3.1,0.3,3.8,0.2c0.8-0.2,1.1-0.6,1.1-1.3v-12.8l-10.1,3.9
		l-1.2-1.7l11.4-4.5v-11.2h-10.7l0.1-1.9h10.6v-8.9c-3.1,0.9-6.2,2-9.4,2.7l-1.1-1.7c7.1-1.7,13.9-3.9,20.3-7.2l1.6,1.4
		c-3,1.5-6,2.8-9.1,3.9v9.8h12.4v-16h2.2v12.8l0.2,3.3h14.7v1.9H426c0.2,5.2,1.3,10.1,3.3,14.6c3-3.6,5.7-7.5,7.2-11.9l2,0.9
		c-1.7,4.8-4.9,9-8.2,13.2c1.8,3.5,4.5,7.1,8,9.4c0.3,0.1,0.8,0.4,0.9,0c0.7-1.7,1.1-3.6,1.5-5.5l0.3-1.2l2,1.1
		C442.4-321.1,441.8-318.6,440.9-316.1z M436.6-350.8c-1.9-2.9-4.1-5.6-6.9-8.1l1.5-1.2c2.8,2.2,5.1,5.1,7.2,7.9L436.6-350.8z"/>
	<path fill="#FFFFFF" d="M462.9-348.1v32.5h-2.2v-27.3c-1.4,2.7-4.2,6.8-6.2,9l-1.7-1.6c6.7-7.4,9.7-16.5,11.2-26l2,0.7
		C465.2-356.4,464.2-352.1,462.9-348.1z M469.9-315.5v-33.7h2.2v33.7H469.9z M475-352c-1.1-2.9-3-5.2-5.1-6.9l1.8-1.1
		c2.3,1.9,4.2,4.4,5.2,6.9L475-352z M494.6-316.4c-1.4,0.3-3.5,0.4-5.5,0.2l-0.8-2.3l4.8,0.3c0.7-0.1,1.6-0.5,1.6-2.1v-36h-15.2v-2
		h17.4v39.4C496.9-317.3,495.9-316.8,494.6-316.4z"/>
	<path fill="#FFFFFF" d="M549.5-318.1c-1.4,2.1-3.3,2.8-5.6,2.6c-0.6,0-2.1,0.3-2.8,0l-1.1-2c1.2,0.2,3.4,0.4,5.1,0
		c3.2-0.7,3.5-4.2,4-6.6c1-4.6,0.9-10.2,0.9-14.8V-350h-14.5c-1.3,2.6-2.9,5.2-4.7,7.6l-2-0.9v23h-2.2v-4h-12.5v5.3H512v-31.6h4.7
		c1.7-3.4,2.6-6.9,3.4-10.6l2,0.5c-0.5,3.4-1.5,6.9-3,10.1h9.7v6.8c0.3,0.2,0.3-0.3,0.5-0.4c2.3-3,4.2-5.8,5.2-9.3
		c0.8-3,1.8-6,2.1-9c0.7,0.2,1.4,0.4,2.1,0.7c-0.6,3.2-1.1,6.6-2.3,9.7l15.9,0.1v20C552.2-327.2,551.2-320.7,549.5-318.1z
		 M526.6-348.7h-12.5v9.8h12.5V-348.7z M526.6-337h-12.5v10.7h12.5V-337z M540.8-328c-1.1-4.5-3.2-8.6-5.6-12.6l1.7-1.2
		c2.2,4.2,4.6,8.1,5.9,12.7L540.8-328z"/>
	<path fill="#FFFFFF" d="M580.7-323.4c1.8,1.2,3.6,2.4,5.2,3.9l-1.6,1.3c-1.6-1.6-3.3-2.8-5.1-3.8c-3.3,2.2-7.3,4.5-13.1,6.5
		l-1.3-1.6c4.1-1.1,8-2.9,12.4-6c-3.2-1.6-6-2.6-8.7-3.2c1-1.6,1.9-2.9,3.1-5.2h-5.9v-1.9h6.8c0.7-1.5,1.4-3.5,1.8-4.9l2,0.5
		c-0.5,1.7-0.6,1.8-1.9,4.5H586v2.4C585-328.6,583.4-326.4,580.7-323.4z M578.7-350.9v11.1h-2v-10.9H576c-1.5,3.9-5.5,7.6-8.9,9.6
		l-1.2-1.4c3.6-2.2,6.6-4.4,8.6-8.4h-8.8v-1.9h11.1v-9.2h2v9.2H589v1.9H578.7z M572.4-355.2c-1.2-1.7-2.9-3.2-4.5-4.4l1-1.1
		c1.6,0.9,3.7,2.8,4.8,4.6L572.4-355.2z M573.7-331.6c-0.8,1.4-1.1,2.1-2.4,4.3c3.1,0.8,5,1.8,7.5,2.8c2.5-2.5,3.6-4.4,4.9-7.1
		H573.7z M586.6-342.5c-1.2-1.8-3.2-3.5-5-4.8l1-0.8c2,1.1,3.7,2.6,5.1,4.5L586.6-342.5z M583.9-355l-1.3-1.1
		c1.6-1.2,3.1-2.8,4.4-4.3l1.3,0.9C587.2-357.8,585.5-356.2,583.9-355z M609.3-315.7c-3.3-2.7-6.2-6-8.9-10.1
		c-2.9,4.4-6.1,8.3-10,10.5L589-317c4.3-2.3,7.6-6.7,10.3-10.9c-2.8-5.1-4.3-10.5-5.3-16.2c-1.5,3.2-3.6,6.7-5.7,9.1
		c-0.5-0.4-1.1-0.8-1.6-1.2c5.8-7.1,8.2-15.5,8.7-24.7l2,0.5c-0.3,3.4-0.6,5.9-1.3,9.6h13.3v1.9h-2c-0.9,7.5-2.4,14.2-5.9,21
		c2.4,4,5.7,7.6,9.2,10.5L609.3-315.7z M595.4-348.9l-0.3,1.4c1,5.7,2.7,12,5.3,17.4c3.1-6,4.2-12,4.8-18.8H595.4z"/>
	<path fill="#FFFFFF" d="M629.1-349.2v11.2l6-2.9v2l-6,3.1v16.8c0,1.6-1.2,3.1-3.4,3.1h-4.5l-0.5-2.1l4.8,0.1c0.9,0,1.5-0.6,1.5-1.5
		v-15.4l-6.4,3.3l-1.3-1.8c3-1.3,4.6-2.1,7.7-3.7v-12.3h-7v-1.9h7V-362h2.1v10.9h6.2v1.9H629.1z M640.1-347.9v5.6
		c0,3.6-0.6,10.1-1.8,13.4c-1.1,3.3-2.5,6.4-4.3,9.4l-2.6,4.3l-1.7-1.3c3.7-5.6,6.6-11.1,7.6-18.1c0.4-2.3,0.6-6.7,0.6-9.2v-15.7
		h25.1v11.7H640.1z M661.1-357.7h-21v7.9h21V-357.7z M653.6-338.4v6.9h9.2v16.5h-2.1v-4.4h-16.1v4.4h-2.1v-16.5h8.9v-6.9h-10.4v-1.9
		h10.4v-6.1h2.1v6.1h13.2v1.9H653.6z M660.8-329.6h-16.1v8.2h16.1V-329.6z"/>
	<path fill="#FFFFFF" d="M683.2-356.3v16.2c0,8.5-1.3,17-5.9,23.8l-1.8-1.4c1.6-2.5,2.9-5.1,3.6-7.9c1.8-6.4,2-12.5,2-20v-12.6h20.6
		c-2-1.5-4.3-2.8-6.5-4.1c0.4-0.6,0.8-1,1.2-1.6c2.3,1.2,4.6,2.8,6.9,4.3l-1,1.5h18.6v1.9H683.2z M704.6-327.7v11.3h-2.2v-11.3
		h-17.7v-2h17.7v-6.1H690v-2.4l4-8.8h-8.2v-2h9l2-4.7l2,0.3L697-349h21.2v2h-22l-4.3,9.1h10.5v-5.9h2.2v5.9h11.7v2h-11.7v6.1h16.3v2
		H704.6z"/>
</g>
<g>
	<g>
		<path fill="#FFFFFF" d="M241.9-280c-0.2,1.5-0.7,3-1.4,4.4h6.3v15.6c0,0.5-0.5,1.1-1.1,1.2c-0.7,0.1-1.4,0.1-2.1,0.1l-0.5-1.1
			c0.6,0,1.6,0.2,2,0c0.5-0.1,0.6-0.6,0.6-0.9v-13.9h-2.4v12.6h-1.1v-12.6h-2.4v13.3h-1.1v-13.3h-2.4v15.9h-1.1v-16.9h4.1
			c0.8-1.2,1.3-2.9,1.6-4.4h-7l0-1h14.3v1H241.9z M254.5-274v13.7c0,0.6-0.2,1.2-0.8,1.3c-0.8,0.3-2,0.2-2.7,0.3l-0.5-1.2
			c0.7,0,1.6,0.2,2.3,0.1c0.3,0,0.6-0.5,0.6-0.8V-274h-5.8l0-1h5.8v-8.2h1.1v8.2h2.3v1H254.5z M251.2-265.3c-0.4-2-1.3-3.9-2.4-5.6
			l0.9-0.5c1.1,1.8,2,3.6,2.6,5.6L251.2-265.3z"/>
	</g>
	<g>
		<path fill="#FFFFFF" d="M286.9-260.1l-0.5,0h-6.2c-1.2,0-1.5-0.6-1.5-1.9v-6.4H274c0,3.8-2.5,7.6-6.1,9.1
			c-0.5,0.2-1.1,0.4-1.6,0.6l-0.9-0.9c2.4-0.8,4.7-1.9,6.3-4.5c0.8-1.3,1.2-2.8,1.2-4.3h-3.7v-7.2h7v-3.3h-9.8v-1h9.8v-3.5h1.1v3.5
			h9.9v1h-9.9v3.3h7v7.2h-4.4v6.7c0,0.4,0.3,0.6,0.8,0.6h5.7c0.6,0,0.6-0.9,0.7-1.4c0.2-0.8,0.2-1.7,0.2-2.5l1.1,0.8
			C288.2-263.3,288.2-260.1,286.9-260.1z M283.1-274.6h-12.9v5.2h12.9V-274.6z"/>
	</g>
	<g>
		<path fill="#FFFFFF" d="M306-263.8h-0.1c-0.9-0.7-1.7-1.5-2.5-2.1c-0.2,0.3-0.4,0.7-0.6,1c-1.2,2-2.5,3.6-4,5.4
			c-0.3-0.2-0.6-0.4-0.9-0.6c1.8-1.9,3.4-4.1,4.7-6.4c-0.8-0.6-1.7-1.3-2.6-1.8l-0.3,1.4l-1-0.3l1.8-7.2l0.4-1.8H298v-1h3
			c0.7-2,1-4.1,1.6-6.1l1,0.2c-0.4,2-1,3.9-1.5,5.9h3.9c-0.1,1.7-0.4,3.2-0.7,4.9c-0.3,1.9-0.9,3.8-1.6,5.5l2.9,2.3L306-263.8z
			 M301.9-276.2l-1.7,6.9c0.9,0.6,1.8,1.2,2.6,1.8h0.1c1.2-2.7,1.6-5.7,1.9-8.7H301.9z M321.1-259.7c-2.9-2.1-5.7-4.7-7-7.9
			l-0.1,8.7h-1.1v-8.7c-1.5,3.2-4.4,5.8-7.3,8l-0.9-0.6c5.2-3.9,5.6-5.3,7-7.6h-6.2l0-1h7.4v-2.8h-3.6v-7.8h-3.6v-1h3.6v-3.1h1.1
			v3.1h6.2v-3.1h1.1v3.1h3.8v1h-3.8v7.8H314v2.8h7.5v1h-6.4c2,3.8,3.7,5.1,6.8,7.2L321.1-259.7z M316.5-279.3h-6.2v2.7h6.2V-279.3z
			 M316.5-275.6h-6.2v3.1h6.2V-275.6z"/>
	</g>
	<g>
		<path fill="#FFFFFF" d="M334.7-276.7v17.7h-1.1v-15.4c-0.9,1.7-2.1,3.3-3.5,4.8l-0.9-0.9c3.2-3.6,5-7.7,7-12.9
			c0.3,0.1,0.6,0.3,0.9,0.5C336.4-280.8,335.5-278.7,334.7-276.7z M352.8-263.9c-1.1-0.9-2-2-2.9-3.1c-2.3-2.7-3.6-5.9-4.5-9.2h-0.2
			v10.7h4.7v1.1h-4.7v5.5h-1.1v-5.5h-4.7v-1.1h4.7v-10.7h-0.2c-1.6,4.9-3.3,9-7.4,12.2c-0.3-0.2-0.7-0.6-1-0.9
			c3.8-2.9,5.8-7.1,7.2-11.4h-6.3v-1.1h7.6v-6h1.1v6h7.8v1.1h-6.6c0.9,4.2,3.5,8.3,7.2,11.3L352.8-263.9z"/>
	</g>
	<g>
		<path fill="#FFFFFF" d="M381.3-267v-1.8h-8v10.1h-1.2v-10.1h-7.7v2.2h-1.2V-278h9v-5.5h1.2v5.5h9.2v11H381.3z M372.1-276.8h-7.7v7
			h7.7V-276.8z M381.3-276.8h-8v7h8V-276.8z"/>
	</g>
	<g>
		<path fill="#FFFFFF" d="M395.2-264.3l-1.2-0.6c1.9-2.5,2.8-5.6,3.2-8.7l1,0.3C397.8-270.1,396.9-267,395.2-264.3z M410.9-260.3
			h-8.6c-0.8,0-1.6-0.8-1.6-1.6v-14.7h1.2v14.4c0,0.6,0.6,0.9,1.2,0.9h7.3c1.2,0,1.5-3.8,1.5-4.7l1.1,0.5
			C412.9-264.5,412.6-260.3,410.9-260.3z M407.7-274.9c-1.5-2.4-3.6-4.4-5.6-6.4l0.8-0.7c2.1,1.9,4.2,4,5.8,6.4L407.7-274.9z
			 M416.6-265.2c-1.3-3-2.6-5.5-4.6-8.1l1-0.5c1.8,2.5,3.6,5.2,4.6,8.1L416.6-265.2z"/>
	</g>
	<g>
		<path fill="#FFFFFF" d="M465.3-259.6h-0.9l-0.6-1c0.3,0,0.7,0,1,0c0.7,0,2,0.2,2-0.9v-7.7h-10.4c-0.4,4-2.9,7.2-5.9,9.6l-0.8-0.8
			c3.3-2.5,5.6-5.9,5.6-10.2v-12.1h12.7v21.7C467.9-259.5,466.3-259.6,465.3-259.6z M466.8-281.6h-10.3v5h10.3V-281.6z M466.8-275.6
			h-10.3v5.4h10.3V-275.6z"/>
	</g>
	<g>
		<path fill="#FFFFFF" d="M523.8-260.8v-2.9h-12.9v2.9h-1.2v-20.6H525v20.6H523.8z M523.8-280.4h-12.9v7.2h12.9V-280.4z
			 M523.8-272.2h-12.9v7.5h12.9V-272.2z"/>
	</g>
	<g>
		<path fill="#FFFFFF" d="M542.8-263.4l-3.9,4.4l-1-0.6l3-3.2l1.7-2l0.9,0.5L542.8-263.4z M538.2-266.6l0-1h2.5v-11.3h-2.3v-1h2.3
			v-3.4h1.1v3.4h6.2v-3.5h1.1v3.5h2.5l0,1h-2.5v11.3h2.8v1H538.2z M548-278.8h-6.2v2.9h6.2V-278.8z M548-274.9h-6.2v3.1h6.2V-274.9z
			 M548-270.9h-6.2v3.3h6.2V-270.9z M549.7-261.3c-1.2-1.1-2.3-2.1-3.5-3.1l0.6-0.7l3.7,3.1L549.7-261.3z M559.3-259.6
			c-0.9,0.1-1.6,0.2-2.7,0.1l-0.4-1.1c0.7,0.1,1.8,0.2,2.3,0.1c0.4,0,0.8-0.5,0.8-0.8v-7h-5.4c-0.1,3.4-0.9,6.6-2.8,9.3
			c-0.4-0.1-0.7-0.4-1-0.5c1.6-2.4,2.6-5,2.7-8l0.1-2.7v-11.7h7.7v21.2C560.4-260.2,559.8-259.6,559.3-259.6z M559.2-280.9h-5.4v5
			h5.4V-280.9z M559.2-274.9h-5.4v5.6h5.4V-274.9z"/>
	</g>
	<g>
		<path fill="#FFFFFF" d="M574.3-272.8v13.9h-1.1v-12.4c-0.9,1.1-2,2.3-3,3.3l-0.7-0.7c2.5-2.5,4.8-5.4,6.4-8.4l0.8,0.5
			C576.1-275.3,575.2-274,574.3-272.8z M570.6-275.5l-0.8-0.6c2.1-2.3,4.2-4.5,5.7-7.1l0.8,0.5C575-280.4,572.2-277,570.6-275.5z
			 M588.4-268.7v8.3c0,0.6-0.4,1.4-1.2,1.4c-0.7,0.1-1.8,0.1-3.1,0.1l-0.3-1c1.2,0.1,2,0.1,2.6,0c0.5,0,0.9-0.4,0.9-0.8v-7.9h-11v-1
			h11v-3.1h1.1v3.1h5v1H588.4z M577.4-273.4v-1h6.7v-4.2h-5.4v-1h5.4v-3.8h1.1v3.8h6.1v1h-6.1v4.2h7.6v1H577.4z M582.7-262.8
			c-0.9-1.3-1.8-2.6-2.9-3.9l0.8-0.5c1.2,1.2,2,2.5,2.9,3.8L582.7-262.8z"/>
	</g>
	<g>
		<path fill="#FFFFFF" d="M609.7-281.8c-0.9,1.1-2.3,3-3,3.8v9.9h-1.1v-8.5c-1,1-2.7,2.4-3.6,2.9l-0.7-0.8c2-1.6,4.6-3.8,7.7-8.3
			c0.3,0.1,0.6,0.3,0.8,0.5L609.7-281.8z M602.3-260.5c-0.3-0.1-0.5-0.4-0.8-0.6c1.6-1.7,2.7-3.4,3.8-5.1c0.3,0.1,0.5,0.3,0.8,0.5
			C604.9-263.8,603.9-262.1,602.3-260.5z M608.4-269.3l-0.8-0.8c2.1-1.3,3.9-2.9,5.6-4.8c0.3,0.1,0.6,0.4,0.9,0.5
			C612.3-272.4,610.5-270.6,608.4-269.3z M621.8-274.5l-1-0.5c0.3-0.5,0.8-1.1,1.2-1.7l1-1.5h-10.5c-1.2,1.5-2.3,2.9-3.8,4.1
			c-0.3-0.2-0.6-0.4-1-0.6c2.7-2.1,4.7-5.1,6.5-8.1c0.3,0.1,0.6,0.3,0.9,0.5c-0.6,1-1.2,2.1-1.9,3.1h11.4
			C623.9-277.6,622.9-276,621.8-274.5z M619.2-260.4c-0.3,0.6-1,1-1.6,1h-7.4c-1.2,0-2-1-2-1.8v-5.6h1.1v5.4
			c0.1,0.3,0.4,0.7,0.7,0.9l0.4,0.2h6.8c0.3-0.1,0.7-0.3,0.8-0.7c0.3-1.2,0.8-1.8,0.9-2.8c0.3,0.1,0.6,0.3,0.9,0.5
			C619.8-262.4,619.6-261.4,619.2-260.4z M614.4-262.6c-0.7-1.5-1.5-3.1-2.5-4.4c0.3-0.2,0.5-0.4,0.8-0.5c1,1.4,1.9,2.8,2.6,4.3
			L614.4-262.6z M616.1-268.4c-0.9,0.2-1.8,0.1-2.8,0.1l-0.5-1h2.6c0.2-0.1,0.5-0.3,0.6-0.5l0.1-0.5v-7h1.1v7.6
			C617.1-269.2,616.7-268.6,616.1-268.4z M624.4-269.4c-1.7-1.6-3.6-3.3-5.5-4.7l0.7-0.7c2.1,1.6,3.6,2.5,5.6,4.6L624.4-269.4z
			 M624.8-260.4c-1.1-1.8-2.5-3.5-4.1-5.2l0.8-0.6c1.6,1.5,3,3.6,4.2,5.3L624.8-260.4z"/>
	</g>
	<g>
		<path fill="#FFFFFF" d="M654.9-260.4c-0.7,1.1-1.7,1.4-2.9,1.3c-0.3,0-1.1,0.2-1.4,0l-0.6-1c0.6,0.1,1.8,0.2,2.7,0
			c1.7-0.3,1.8-2.1,2.1-3.4c0.5-2.4,0.5-5.3,0.5-7.6v-5.7h-7.5c-0.7,1.4-1.5,2.7-2.4,3.9l-1-0.5v11.9h-1.1v-2.1h-6.4v2.7h-1.1v-16.3
			h2.4c0.9-1.7,1.4-3.5,1.7-5.5l1,0.3c-0.3,1.8-0.8,3.6-1.5,5.2h5v3.5c0.2,0.1,0.2-0.1,0.3-0.2c1.2-1.5,2.2-3,2.7-4.8
			c0.4-1.6,0.9-3.1,1.1-4.6c0.4,0.1,0.7,0.2,1.1,0.3c-0.3,1.6-0.6,3.4-1.2,5l8.2,0.1v10.3C656.3-265.1,655.8-261.7,654.9-260.4z
			 M643.1-276.2h-6.4v5h6.4V-276.2z M643.1-270.1h-6.4v5.5h6.4V-270.1z M650.4-265.5c-0.6-2.3-1.6-4.4-2.9-6.5l0.9-0.6
			c1.2,2.1,2.4,4.2,3.1,6.5L650.4-265.5z"/>
	</g>
	<g>
		<path fill="#FFFFFF" d="M666.6-260l-0.3-1.1c2.1-0.4,4.3-1,6.4-1.6v-5.1h-5.1v-1h5.1v-3.7h1.1v3.7h4.8v1h-4.8v4.8l6.2-1.5v1
			L666.6-260z M679.2-272.2l-1.2-2.3l-10.8,1.3l-0.2-1l1.7-0.2l3.1-6.7h-4.4v-1h12.8v1h-7.2c-0.9,2.2-2,4.4-3,6.6l0.2-0.1
			c2.5-0.3,5.1-0.6,7.5-0.9l-1.5-2.4l0.9-0.5c1.1,1.5,2.6,4.1,3.2,5.7L679.2-272.2z M682.1-265.3V-280h1.1v14.7H682.1z M687.5-258.9
			c-0.8,0.2-1.7,0-2.8,0l-0.5-1c1.1,0.1,2,0.2,2.4,0.1c0.4,0,0.7-0.4,0.7-0.8v-22.8h1.1v23.3C688.4-259.4,688-259,687.5-258.9z"/>
	</g>
	<g>
		<path fill="#FFFFFF" d="M720.9-260.8c-3.9-1.5-7.7-5.1-9.6-9.5h-1v11.1h-1.1v-10.9h-0.5c-1.2,3.3-4.3,6.3-6.8,7.8
			c-0.9,0.5-1.7,1-2.9,1.4l-0.8-0.8l1-0.5c3.2-1.5,6.6-4.3,8.5-8.1h-9v-1h10.6v-7.4h-9.5v-1h9.5v-3.3h1.1v3.3h9.8v1h-9.8v7.4h10.8v1
			h-8.8c1.4,3,3.1,4.6,5.2,6.2c1,0.8,2.8,1.9,4,2.4L720.9-260.8z M705.4-272.6c-0.8-1.6-2-3.1-3.4-4.2l0.8-0.6
			c1.4,1.2,2.7,2.7,3.5,4.3L705.4-272.6z M713.9-272.4l-0.8-0.6c1.5-1.3,2.9-2.8,3.9-4.4l0.7,0.5
			C716.8-275.3,715.5-273.7,713.9-272.4z"/>
	</g>
	<g>
		<path fill="#FFFFFF" d="M434.2-261.4h-1.8c0.4-6,1.9-10.7,6.9-17.4l0.6-0.8h-10.4v-1.5H442v1.1C439.4-277,435-271.5,434.2-261.4z"
			/>
	</g>
	<g>
		<path fill="#FFFFFF" d="M490.5-262v-16.6c-2.1,1.9-3.6,2.6-5.1,3.2v-1.5c4-2.2,4.9-3.6,5.6-5h1.1v19.9H490.5z"/>
	</g>
</g>
<g>
	<circle fill="none" stroke="#FFFFFF" stroke-width="2.6648" stroke-miterlimit="10" cx="472.8" cy="-507.8" r="31.8"/>
	<polyline fill="none" stroke="#FFFFFF" stroke-width="3" stroke-linejoin="round" stroke-miterlimit="10" points="456.2,-510.6 
		466.6,-496.7 489.4,-519.1 	"/>
</g>
<g>
	<path fill="#FFFFFF" d="M523.2-169.5l-65.3,17.3c-5.5,1.4-9.9,1.2-12.4-0.6c-6.4-4.7-1.5-14.1,0.2-17c-3.1,3.5-6.3,6.9-8.7,10.7
		c-3.8,5.9-5.5,12.3-2.9,16.5c4.7,7.5,15.8,4,23,1L523.2-169.5z"/>
</g>
</svg>
