<?xml version="1.0" encoding="utf-8"?>
<!-- Generator: Adobe Illustrator 18.0.0, SVG Export Plug-In . SVG Version: 6.00 Build 0)  -->
<!DOCTYPE svg PUBLIC "-//W3C//DTD SVG 1.1//EN" "http://www.w3.org/Graphics/SVG/1.1/DTD/svg11.dtd">
<svg version="1.1" id="图层_1" xmlns="http://www.w3.org/2000/svg" xmlns:xlink="http://www.w3.org/1999/xlink" x="0px" y="0px"
	 viewBox="0 0 960 560" enable-background="new 0 0 960 560" xml:space="preserve">
<g>
	<g>
		<path fill="#FFFFFF" d="M467.6,143.3c-18.3,0-33.1-14.9-33.1-33.1s14.9-33.1,33.1-33.1s33.2,14.8,33.2,33.1
			S485.9,143.3,467.6,143.3z M467.6,79.7c-16.8,0-30.5,13.7-30.5,30.5s13.7,30.5,30.5,30.5s30.5-13.7,30.5-30.5
			S484.4,79.7,467.6,79.7z"/>
	</g>
	<g>
		<path fill="#FFFFFF" d="M461.4,122.8h-0.1c-0.4,0-0.8-0.3-1.1-0.6l-10.4-13.9l2.4-1.8l9.3,12.5l21.6-21.2l2.1,2.1l-22.8,22.4
			C462.2,122.6,461.8,122.8,461.4,122.8z"/>
	</g>
</g>
<g>
	<g>
		<path fill="#FFFFFF" d="M512.8,448.5l-65.3,17.3c-5.5,1.4-9.9,1.2-12.4-0.6c-6.4-4.7-1.5-14.1,0.2-17c-3.1,3.5-6.3,6.9-8.7,10.7
			c-3.8,5.9-5.5,12.3-2.9,16.5c4.7,7.5,15.8,4,23,1L512.8,448.5z"/>
	</g>
</g>
<g>
	<path fill="#FFFFFF" d="M232.7,374.3c-0.4,1.2-1.2,1.6-2.2,1.6c-1.1-0.1-2.2-0.2-3.2-0.5c-0.1-0.4-0.1-0.8-0.2-1.2
		c1.1,0.3,2.3,0.7,3.5,0.5c1.3-0.1,1.3-2.5,1.6-3.9c0.3-1.7,0.5-7.2,0.4-10.5h-8c-0.9,2-1.8,4.1-3.1,5.9l-0.9-0.6
		c1.8-2.7,3.2-5.7,4.2-8.9c0.3,0.1,0.6,0.3,0.9,0.4c-0.2,0.7-0.4,1.4-0.7,2.1h8.6C233.7,364.5,233.7,369.3,232.7,374.3z
		 M230.5,354.9v2.7h-1.1v-2.7H227v2.7h-1.1v-2.7h-5.1v-1.1h5.1v-3.3h1.1v3.3h2.3v-3.3h1.1v3.3h5.2v1.1H230.5z M228.2,371.9v-1.7
		h-3.7v2.6h-1.1v-9.5h5.9v8.6H228.2z M228.2,364.4h-3.7v4.8h3.7V364.4z M245.2,376c-1.8-1.4-3.6-3.4-5.4-5.9c-1.4,2.2-3.5,4.3-5.6,6
		l-0.8-0.8c2.1-1.7,4.4-3.8,5.8-6.2c-0.8-1.3-1.9-4.6-2.5-8.9c-0.3,1.5-0.9,2.9-1.6,4.2l-0.9-0.6c2.1-4.1,3-8.8,3.7-13.4l1,0.3
		c-0.3,2.1-0.7,4.2-1.2,6.3h8.1v1h-2.6c-0.4,4-0.9,7.8-2.8,11.2c1.4,2.3,3.4,4.2,5.4,6.1L245.2,376z M237.5,358
		c0.8,6,1.4,8.2,2.4,10.2c1.4-2.9,1.8-4.9,2.3-10.2H237.5z"/>
	<path fill="#FFFFFF" d="M259.8,374.8l-0.8-1.1c0.4-0.4,0.6-0.8,0.6-1.5v-12.3h-4.2v-1.1h5.3V373l3.6-2.1v1.2L259.8,374.8z
		 M260.3,355c-0.7-1.4-1.8-2.6-3-3.6l0.8-0.6c1.3,0.9,2.5,2.2,3.2,3.6L260.3,355z M264,360.8v-1h6.7v-2.3h-5.6v-1h5.6v-2.2h-6.3v-1
		h6.3v-2.7h1.1v2.7h6.4v1h-6.4v2.2h5.8v1h-5.8v2.3h6.8v1H264z M276,376c-0.9,0.4-1.6,0.4-2.9,0.3l-0.4-1.2c0.9,0,1.6,0.1,2.2-0.1
		c0.4,0,0.7-0.5,0.7-0.8v-3.4h-8.7v5.5h-1.1V363h10.8v11.9C276.7,375.4,276.4,375.8,276,376z M275.6,364h-8.7v2.4h8.7V364z
		 M275.6,367.5h-8.7v2.4h8.7V367.5z"/>
	<path fill="#FFFFFF" d="M293.4,371.5l-4.1,4.6l-1-0.6l3.1-3.4l1.8-2.1l0.9,0.5L293.4,371.5z M288.6,368.1v-1h2.6v-11.9h-2.3v-1h2.3
		v-3.6h1.2v3.6h6.5v-3.6h1.2v3.6h2.6v1h-2.6v11.9h3v1H288.6z M298.9,355.2h-6.5v3.1h6.5V355.2z M298.9,359.3h-6.5v3.3h6.5V359.3z
		 M298.9,363.6h-6.5v3.5h6.5V363.6z M300.6,373.7c-1.2-1.2-2.4-2.2-3.7-3.3l0.7-0.7l3.8,3.3L300.6,373.7z M310.6,375.5
		c-0.9,0.1-1.7,0.3-2.8,0.1l-0.4-1.2c0.7,0.1,1.9,0.2,2.4,0.1c0.4,0,0.8-0.5,0.8-0.9v-7.4h-5.7c-0.1,3.6-0.9,7-2.9,9.8
		c-0.4-0.1-0.7-0.4-1.1-0.5c1.6-2.5,2.7-5.3,2.8-8.4l0.1-2.8v-12.4h8v22.3C311.7,374.8,311.1,375.4,310.6,375.5z M310.5,353h-5.6
		v5.3h5.6V353z M310.5,359.3h-5.6v5.9h5.6V359.3z"/>
	<path fill="#FFFFFF" d="M326.3,361.6v14.7h-1.2v-13.1c-1,1.2-2.1,2.4-3.2,3.5l-0.8-0.8c2.6-2.6,5-5.7,6.7-8.9l0.9,0.5
		C328.1,359,327.2,360.3,326.3,361.6z M322.4,358.8l-0.8-0.7c2.2-2.4,4.4-4.7,5.9-7.5l0.9,0.6C327,353.6,324.1,357.2,322.4,358.8z
		 M341,365.9v8.7c0,0.7-0.4,1.4-1.3,1.5c-0.7,0.1-1.9,0.1-3.2,0.1l-0.3-1.1c1.3,0.1,2.1,0.1,2.7,0c0.5,0,0.9-0.4,0.9-0.9v-8.3h-11.4
		v-1h11.4v-3.3h1.2v3.3h5.2v1L341,365.9L341,365.9z M329.5,360.9v-1h7v-4.4h-5.6v-1h5.6v-4h1.2v4h6.3v1h-6.3v4.4h7.9v1H329.5z
		 M335,372.1c-0.9-1.4-1.9-2.7-3-4.1l0.8-0.6c1.2,1.3,2.1,2.7,3.1,4L335,372.1z"/>
	<path fill="#FFFFFF" d="M358.2,355.9v10.2c0,3-0.8,6.9-2.4,9.6l-1-0.8c1.2-1.7,1.8-3.7,2.1-5.8c0.3-2.2,0.3-4.7,0.3-6.9v-10.6H378
		v4.3L358.2,355.9L358.2,355.9z M376.7,352.4h-18.6v2.5h18.6V352.4z M376.9,375.4c-0.3,0.1-0.7,0.2-1.2,0.2c-0.4,0-0.8,0-1.2,0
		l-0.4-1l1.7,0.1c0.4,0,0.9-0.2,0.9-0.8v-5.2h-7.4v3.3c1.4-0.2,2.7-0.4,4.1-0.7l-1.2-1.4l0.7-0.7c1.3,1.2,1.9,2.5,2.5,3.8l-0.9,0.5
		c-0.1-0.4-0.4-0.8-0.6-1.2l-10.4,1.7l-0.5-1.1c1.6-0.1,3.4-0.4,5.1-0.7v-3.6h-7v7.3H360v-8.2h8.1v-1.9H361v-4.5h7.1v-2.2
		c-2.5,0.2-5.3,0.1-7.5,0l-0.4-0.9c5.1,0.2,10.4-0.1,15.6-1.1l0.5,0.9c-1.8,0.4-4.6,0.9-7.2,1.1v2.2h7.3v4.5h-7.3v1.9h8.5v5.9
		C377.9,374.6,377.6,375.1,376.9,375.4z M368.3,362.2h-6v2.7h5.9v-2.7H368.3z M375.6,362.2h-6.2v2.7h6.2V362.2z"/>
	<path fill="#FFFFFF" d="M401.8,362.6v12.1c0,1.6-2.4,1.5-3.5,1.5c-0.5,0-1.1,0-1.6-0.1l-0.4-1.4c1.1,0.1,2.1,0.2,3.2,0.2
		c0.4,0,1.1-0.1,1.1-0.7v-11.7h-10.9v-1.1h10.9V353H392v-1.1h18.8v1.1h-9v8.4h11.1v1.1h-11.1V362.6z"/>
	<path fill="#FFFFFF" d="M430.1,352.1c-0.9,1.2-2.4,3.2-3.1,4v10.5h-1.2v-9c-1,1-2.8,2.5-3.7,3.1l-0.7-0.8c2.1-1.7,4.8-4,8-8.7
		c0.3,0.1,0.6,0.3,0.9,0.5L430.1,352.1z M422.5,374.7c-0.3-0.1-0.6-0.4-0.8-0.7c1.6-1.8,2.8-3.6,3.9-5.4c0.3,0.1,0.5,0.3,0.8,0.5
		C425.1,371.1,424.1,373,422.5,374.7z M428.8,365.4l-0.8-0.9c2.2-1.4,4-3.1,5.8-5.1c0.3,0.1,0.6,0.4,0.9,0.6
		C432.9,362.1,431,364,428.8,365.4z M442.8,359.8l-1.1-0.5c0.4-0.6,0.8-1.1,1.2-1.8l1-1.6H433c-1.2,1.6-2.4,3.1-4,4.3
		c-0.3-0.2-0.7-0.5-1-0.7c2.8-2.2,4.9-5.4,6.7-8.5c0.3,0.1,0.6,0.3,0.9,0.5c-0.6,1.1-1.3,2.2-2,3.3h11.9
		C445,356.6,443.9,358.2,442.8,359.8z M440,374.7c-0.4,0.6-1,1-1.7,1h-7.7c-1.2,0-2-1-2-1.9v-5.9h1.2v5.7c0.1,0.4,0.4,0.7,0.8,0.9
		l0.4,0.2h7.1c0.3-0.1,0.7-0.4,0.9-0.7c0.3-1.2,0.8-1.9,0.9-3c0.4,0.1,0.6,0.3,0.9,0.5C440.7,372.6,440.5,373.7,440,374.7z
		 M435.1,372.4c-0.7-1.6-1.6-3.3-2.6-4.7c0.3-0.2,0.5-0.5,0.8-0.6c1,1.5,2,2.9,2.7,4.5L435.1,372.4z M436.8,366.3
		c-0.9,0.2-1.9,0.1-2.9,0.1l-0.5-1.1h2.7c0.3-0.1,0.5-0.3,0.6-0.6l0.1-0.5v-7.4h1.2v8.1C437.9,365.5,437.4,366.1,436.8,366.3z
		 M445.5,365.3c-1.8-1.7-3.7-3.5-5.7-4.9l0.7-0.7c2.2,1.6,3.8,2.7,5.9,4.8L445.5,365.3z M445.9,374.7c-1.2-1.9-2.7-3.7-4.2-5.5
		l0.9-0.7c1.6,1.6,3.2,3.8,4.4,5.6L445.9,374.7z"/>
	<path fill="#FFFFFF" d="M477.3,374.7c-0.8,1.1-1.8,1.5-3,1.4c-0.3,0-1.1,0.2-1.5,0l-0.6-1.1c0.6,0.1,1.8,0.2,2.8,0
		c1.7-0.4,1.9-2.3,2.2-3.6c0.6-2.5,0.5-5.6,0.5-8.1v-6h-7.8c-0.7,1.4-1.5,2.9-2.5,4.1l-1.1-0.5v12.6h-1.2v-2.2h-6.8v2.9h-1.2V357
		h2.5c0.9-1.8,1.4-3.7,1.8-5.8l1.1,0.3c-0.3,1.9-0.8,3.8-1.6,5.5h5.2v3.7c0.2,0.1,0.2-0.1,0.3-0.2c1.2-1.6,2.3-3.2,2.8-5.1
		c0.4-1.6,0.9-3.3,1.1-4.9c0.4,0.1,0.8,0.2,1.1,0.4c-0.3,1.7-0.6,3.6-1.3,5.3l8.5,0.1v10.9C478.8,369.7,478.2,373.3,477.3,374.7z
		 M465,358h-6.7v5.3h6.7V358z M465,364.4h-6.7v5.9h6.7V364.4z M472.6,369.3c-0.6-2.4-1.7-4.7-3-6.9l0.9-0.7c1.2,2.3,2.5,4.4,3.2,6.9
		L472.6,369.3z"/>
	<path fill="#FFFFFF" d="M512.9,363.6c-4.1-2.4-8.3-5.7-11.3-10.9c-2.3,4.3-7,9-11.6,11l-1-0.8c5.6-2.8,9.6-6.7,12.4-12.3l1,0.5
		l-0.2,0.6c2.4,5,7.3,8.6,11.6,11.2L512.9,363.6z M500.8,375.6v-17.1h1.1v17.1H500.8z"/>
	<path fill="#FFFFFF" d="M523.5,363.1l-1-0.4c0.7-2.2,1.3-4.6,1.6-6.8l1.1,0.3C524.7,358.5,524.2,360.9,523.5,363.1z M526.6,376.2
		v-25.7h1.2v25.7H526.6z M530,361.2c-0.3-1.7-0.7-3.4-1.1-5l1-0.2c0.5,1.5,1,3.3,1.2,5L530,361.2z M529.9,374.4v-1.1h8.6v-7.8h-5.6
		v-1.1h5.6v-6.9H534c-0.5,2-1,4.1-1.9,6l-0.9-0.6c1.4-3.4,2.1-7.2,2.5-11.1c0.3,0,0.7,0,1.1,0c-0.2,1.6-0.4,3.1-0.6,4.6h4.3v-5.7
		h1.2v5.7h6.4v1.1h-6.4v6.9h5.7v1.1h-5.7v7.8h7.9v1.1H529.9z"/>
	<path fill="#FFFFFF" d="M561,357.9v18.7h-1.2v-16.8c-1,2.1-2.2,4-3.7,5.8l-0.9-0.7c1.7-2,3.1-4.2,4.2-6.5c1.2-2.5,2.4-5,3.4-7.7
		l0.9,0.5C562.9,353.5,562.1,355.7,561,357.9z M578,375.2h-8.8c-0.9,0-1.5-0.8-1.5-1.7v-9c-1.7,1-3.6,1.9-5.2,2.5l-0.9-0.8
		c2.1-0.9,4.3-2,6.1-2.9v-12.4h1.2v11.7c3.3-1.6,7-4,10.1-6.6l0.9,0.8c-3.5,2.9-7.1,5.3-11,7.2v8.9c0,0.6,0.2,1.2,0.9,1.2h8.1
		c0.8,0,1.1-0.7,1.3-1.4c0.3-1,0.6-2.1,0.9-3.2l0.9,0.7C580.5,371.8,580.1,375.2,578,375.2z"/>
	<path fill="#FFFFFF" d="M613.6,375.7h-13.5c-2.4-0.3-4.5-1.4-6.4-3.2c-1.2,1.1-2.3,2.3-3.5,3.5c-0.3-0.3-0.6-0.6-0.9-0.9
		c1.3-1,2.5-2.3,3.6-3.6v-8.8h-3v-1h4.1v9.8c2,2,4.2,3.2,6.8,3.2h10.9l2.2-0.1L613.6,375.7z M595.1,356.2c-0.8-1.4-2.2-2.7-3.5-3.6
		c0.2-0.2,0.6-0.4,0.8-0.7c1.4,0.9,2.7,2.2,3.5,3.5L595.1,356.2z M596.6,361v-1h16.8v1H596.6z M611.2,372.1c-0.3-0.7-0.8-1.3-1.1-2
		c-2.8,0.3-7.8,0.9-11.6,1.3c-0.2-0.4-0.5-0.9-0.7-1.4c1.4-1.3,4.2-5.3,5.6-7.8c0.3,0.1,0.6,0.3,1,0.5c-1.6,2.7-3.3,5.5-5.1,7.3
		c3.4-0.3,6.8-0.7,10.2-1c-0.9-1.3-1.9-2.2-3-3.3l0.8-0.6c2,1.8,3.9,3.8,4.9,6.2L611.2,372.1z M598.2,354.4v-1h13.6v1H598.2z"/>
	<path fill="#FFFFFF" d="M623.9,360.5v-1h11.6v1H623.9z M635.2,370.9c-0.2-0.6-0.6-1.2-0.9-1.8c-2.7,0.8-6.1,1.8-8.9,2.7
		c-0.4-0.6-0.8-1.2-1.2-1.8c2.1-2.9,3.7-5.5,4.9-9l1.1,0.7c-1.3,3.2-3.2,6.3-4.6,8.1l0.3,0.3c1.9-0.5,4.4-1.2,7.6-2
		c-0.4-0.8-0.9-1.2-1.4-1.7l0.8-0.6c1.4,1.3,2.6,2.6,3.3,4.3L635.2,370.9z M625,354.6v-1h9.3v1H625z M645.3,373.3
		c-0.2,0.9-0.7,1.7-1.6,2c-0.5,0.2-1,0.2-1.5,0.2s-1-0.1-1.5-0.1c-0.1-0.4-0.2-0.8-0.4-1.2c0.9,0.1,1.8,0.3,2.7,0.2
		c1-0.4,1.2-1.4,1.4-2.3c0.6-3.4,1.1-9.6,1.3-13.6h-4.6c0.1,7.1-0.4,11.8-7.7,17.4l-0.9-0.9c1.8-1.4,3.4-3,4.7-4.8
		c1.8-2.5,2.7-5.4,2.7-8.6v-3.1h-3.4v-1h3.4v-6.8h1.2v6.8h5.9C646.6,361.4,646.2,369.4,645.3,373.3z"/>
	<path fill="#FFFFFF" d="M665.1,375.4c-0.8,0.1-1.6,0.2-2.6,0.1l-0.6-1.2c1.2,0.1,2.2,0.2,2.6,0.1c0.3-0.1,0.6-0.4,0.6-0.8V366h-4.9
		c-0.1,3-0.9,5.8-1.9,8.4c-0.2,0.5-0.4,0.9-0.7,1.4c-0.3-0.1-0.6-0.4-0.9-0.6l0.7-1.6c0.1,0,0-0.1,0.1-0.2c1-2.5,1.6-5.4,1.6-8.3
		v-13.4h7.2V374C666.2,374.6,665.9,375.4,665.1,375.4z M665,352.7h-4.9v5.4h4.9V352.7z M665,359.1h-4.9v5.8h4.9V359.1z M680.5,375.9
		c-0.7-0.3-1.3-0.8-1.9-1.2c-1-0.8-1.9-1.6-2.8-2.6c-1.2,1.3-2.6,2.5-4,3.6c-0.3-0.2-0.5-0.6-0.7-0.8c1.4-1.1,2.8-2.2,4-3.6
		c-1.7-2.4-2.5-5.1-3.1-8h-1.6V376h-1.2v-24.5h10.1v4.8c0,1.2-0.3,2.5-1.5,2.9c-1,0.4-2.2,0.2-3.3,0.2l-0.5-1.2c1.1,0,2.2,0.1,3-0.1
		c0.4-0.1,0.8-0.3,0.9-0.7c0.4-1.5,0.1-3.3,0.2-5h-7.8v9.5h9.6c-0.2,3.3-1.4,6.4-3.3,9.1c1.4,1.5,3,2.9,4.7,3.9L680.5,375.9z
		 M673,363.1l0.5,2.1c0.4,1.8,1.2,3.5,2.3,4.9c1.5-2.1,2.5-4.4,2.8-7H673z"/>
	<path fill="#FFFFFF" d="M714.2,364.8c-3.9-0.9-7.7-2-11.2-4.1c-3.4,2.3-8.3,3.7-12.5,4.4L690,364c3.1-0.5,6-1.3,8.9-2.4
		c0.8-0.3,1.8-0.8,3-1.6c-1.9-1.4-3.3-2.9-4.7-4.8c-1.6,1.9-3.4,3.5-5.3,4.3l-0.9-1.1c3.4-1.1,5.8-4.5,7.3-7.4
		c0.3,0.2,0.6,0.4,0.9,0.6c-0.2,0.4-0.4,0.9-0.9,1.8h11.1v1.2c-1.6,2-3.3,3.7-5.6,5.4c2.6,1.9,7.9,3.2,10.9,3.8L714.2,364.8z
		 M709.4,374.2c-0.2,0.7-0.8,1.3-1.5,1.5c-1.1,0.3-2.2,0-3.3-0.2l-0.3-1.3c1.1,0.3,2.1,0.6,3.3,0.5c0.5-0.4,0.8-0.8,0.9-1.2
		c0.1-0.4,0.2-0.9,0.3-1.3c0.3-1.6,0.6-3.7,0.7-5.2h-7.2c-0.5,2.8-2.3,5.1-4.6,6.6c-1.6,1-4.4,2-6.1,2.3c-0.2-0.4-0.5-0.8-0.7-1.2
		c3.3-0.6,6.7-1.5,8.9-4.5c0.7-0.9,1-1.9,1.3-3.2h-8.4v-1h8.5c0.1-0.7,0.1-1.3,0.1-1.8c0-0.4,0-0.8,0-1.2l1.1,0.1
		c0,0.8,0,1.7-0.1,2.8h8.2C710.5,368.8,710.2,371.6,709.4,374.2z M697.7,354.4c1.9,2.3,3.2,3.7,5.2,5c1.9-1.2,3.5-2.9,5.4-5H697.7z"
		/>
</g>
<g>
	<g>
		<g>
			<path fill="#FFFFFF" d="M321.4,205.4c-1.7,2.2-4.5,5.8-5.8,7.4V232h-2.2v-16.6c-1.9,1.9-5.2,4.6-7,5.7l-1.3-1.5
				c3.9-3.1,8.9-7.4,14.9-16c0.6,0.1,1.1,0.6,1.6,0.9L321.4,205.4z M307.1,246.7c-0.6-0.3-1-0.8-1.6-1.2c3-3.2,5.2-6.5,7.3-9.9
				c0.6,0.2,1,0.5,1.5,0.9C312.1,240.2,310.2,243.6,307.1,246.7z M318.8,229.7l-1.5-1.6c4-2.5,7.5-5.6,10.8-9.3
				c0.6,0.3,1.1,0.7,1.7,1C326.5,223.6,323,227.2,318.8,229.7z M344.9,219.5l-2-0.9c0.7-1,1.6-2.1,2.3-3.2l1.9-2.9h-20.2
				c-2.2,3-4.5,5.7-7.4,7.9c-0.6-0.3-1.2-0.8-1.9-1.2c5.3-4.1,9.2-9.9,12.5-15.7c0.6,0.2,1.2,0.6,1.8,0.9c-1.1,2-2.4,4-3.6,6h22.1
				C348.9,213.6,347,216.6,344.9,219.5z M339.7,246.8c-0.7,1.1-1.9,1.9-3.1,1.9h-14.3c-2.3,0-3.8-1.9-3.8-3.5v-10.8h2.2v10.5
				c0.2,0.7,0.8,1.3,1.4,1.7l0.8,0.3h13.3c0.6-0.2,1.3-0.7,1.6-1.3c0.6-2.3,1.6-3.5,1.8-5.5c0.7,0.2,1.2,0.6,1.8,0.9
				C341,242.9,340.6,245,339.7,246.8z M330.6,242.6c-1.3-3-2.9-6-4.9-8.6c0.5-0.4,0.9-0.8,1.6-1c1.9,2.7,3.6,5.4,5.1,8.3
				L330.6,242.6z M333.8,231.4c-1.7,0.4-3.6,0.2-5.4,0.2l-0.9-2h5c0.5-0.1,1-0.6,1.2-1l0.2-0.9V214h2.2v14.8
				C335.7,229.9,334.9,231,333.8,231.4z M349.9,229.5c-3.4-3.2-7-6.4-10.6-9l1.3-1.3c4.1,3,7.1,4.9,10.9,8.8L349.9,229.5z
				 M350.6,246.8c-2.2-3.4-4.9-6.7-7.9-10.1l1.6-1.2c3,2.9,5.9,7,8.2,10.3L350.6,246.8z"/>
		</g>
		<g>
			<path fill="#FFFFFF" d="M402.4,246.8c-1.4,2.1-3.3,2.8-5.6,2.6c-0.6,0-2.1,0.3-2.8,0l-1.1-2c1.2,0.2,3.4,0.4,5.1,0
				c3.2-0.7,3.5-4.2,4-6.6c1-4.6,0.9-10.2,0.9-14.8v-11.1h-14.5c-1.3,2.6-2.9,5.2-4.7,7.6l-2-0.9v23h-2.2v-4h-12.3v5.3H365v-31.6
				h4.7c1.7-3.4,2.6-6.9,3.4-10.6l2,0.5c-0.5,3.4-1.5,6.9-3,10.1h9.7v6.8c0.3,0.2,0.3-0.3,0.5-0.4c2.3-3,4.2-5.8,5.2-9.3
				c0.8-3,1.8-6,2.1-9c0.7,0.2,1.4,0.4,2.1,0.7c-0.6,3.2-1.1,6.6-2.3,9.7l15.9,0.1v20C405.2,237.6,404.2,244.2,402.4,246.8z
				 M379.6,216.2h-12.4v9.8h12.5v-9.8H379.6z M379.6,227.9h-12.4v10.7h12.5v-10.7H379.6z M393.8,236.9c-1.1-4.5-3.2-8.6-5.6-12.6
				l1.7-1.2c2.2,4.2,4.6,8.1,5.9,12.7L393.8,236.9z"/>
		</g>
		<g>
			<path fill="#FFFFFF" d="M462.1,226.4c-7.6-4.4-15.4-10.4-21.1-20.1c-4.4,7.8-12.9,16.6-21.5,20.1l-1.8-1.5
				c10.5-5.2,17.9-12.3,23.1-22.6l1.8,0.8l-0.5,1c4.5,9.1,13.5,15.8,21.6,20.6L462.1,226.4z M439.7,248.4v-31.3h2.1v31.3H439.7z"/>
		</g>
		<g>
			<path fill="#FFFFFF" d="M516.9,249c-9.5-7.2-16.2-17.4-21.1-28.2c-3,11.4-10.4,21.5-19.9,28.3l-1.9-1.8
				c15.3-11.2,21.2-24.7,21.2-43.4h2.6c-0.3,4.5-0.4,9-1.2,13.4c4.1,9.6,10,18.7,17.4,26.1c1.5,1.5,3.1,2.9,4.9,4L516.9,249z"/>
		</g>
		<g>
			<path fill="#FFFFFF" d="M573.8,247.7h-24.3c-6.1-0.7-8.8-2.5-12-5.1l-7.1,5.8l-1.6-1.6c2.8-1.8,5.6-4,8.3-6.4v-16.7h-7v-1.9h9.1
				v19.7c3.6,3.2,7.7,4.4,12.4,4.4h18.6c1.5-0.2,3.1-0.2,4.5-0.3L573.8,247.7z M539.2,212.9c-1.2-2.8-3.4-5.2-5.7-7.3l1.6-1.1
				c2.4,2,4.4,4.5,5.8,7.1C540.3,212.1,539.8,212.6,539.2,212.9z M571.3,241.5c-1.1,0.3-2.3,0.3-3.5,0.3c-1.3-0.1-2.5-0.1-3.8-0.1
				c-1.7-0.6-2.1-1.6-2.5-3.2v-13.7h-5.8c0.1,8.1-2.3,14.8-10,18.7l-1.2-1.9c7.4-3.7,9.1-9,9.2-16.8h-8.5v-1.9h12.6v-9.7h-8
				c-1,2.9-2,5.1-3.8,7.2l-1.6-1.1c2.4-3.6,4.8-8.3,5.3-14.2l1.7,0.6c-0.1,1.6-0.4,3.3-0.9,5.6h7.3v-7.2h2.1v7.2h8.6v1.9h-8.6v9.7
				h12.6v1.9h-9v13.7c0.3,0.7,0.7,1,1.3,1.2h5.1c0.8-0.2,1.5-0.8,1.8-1.6c0.2-0.9,0.2-1.9,0.3-2.9l1.9,0.9
				C573.8,238.5,573.4,240.7,571.3,241.5z"/>
		</g>
		<g>
			<path fill="#FFFFFF" d="M594.2,216.4v11.8c1.8-0.8,3.5-1.5,4.7-1.9v2.1c-1.4,0.7-3.1,1.2-4.7,2.2V246c-0.2,1.2-0.9,2.4-2.1,2.7
				c-0.7,0.2-1.5,0.3-2.3,0.3c-0.7,0-1.4-0.1-2.1-0.1l-0.8-2.2l3.8,0.2c0.6-0.2,1.1-0.7,1.5-1.2v-14.1c-2.4,1.2-4.5,2-6.2,2.8
				l-1.3-1.8c2.4-0.9,4.9-1.9,7.6-3.2v-13h-6.6v-1.9h6.6v-11.3h1.9v11.3h6.9v1.9H594.2z M629.2,224.9c-5-1.1-9.7-3.1-14.2-6
				c-4.6,2.8-9.2,4-14.2,5.2l-1.3-1.6c5.7-1.3,10.1-3,13.8-4.8c-4-3.4-6.5-6.9-8.5-10.8h-2.9V205h24.3v2.1
				c-2.2,3.9-5.1,7.5-9.4,10.7c3.3,2,8.4,4.2,13.4,5.2L629.2,224.9z M615.7,237.7v11.2h-1.9v-11.2h-14v-1.9h14v-5.9h-11.9V228h11.9
				v-4h1.9v3.9h11.6v1.9h-11.6v5.9h13.7v1.9h-13.7V237.7z M606.7,206.8c2.3,3.9,4.7,7.3,8.3,9.7c3.8-2.3,6.4-5.6,9.2-9.7H606.7z"/>
		</g>
	</g>
	<g>
		<g>
			<path fill="#FFFFFF" d="M262.9,308.2c-1.2,2.4-2.8,2.3-5.2,2.3h-29.4c-1.6,0-2.8-1.7-2.8-3.2v-27.4h2.2v6.3h27.4v-13.7h-31.5v-2
				h33.7v21.6h-2.2v-4h-27.4v18.5c0,0.9,0.6,1.8,1.6,1.8h30.2c1.8,0,2-3.5,2.1-4.7l0.4-2.7l2.2,0.8
				C263.9,303.6,263.7,306.7,262.9,308.2z"/>
		</g>
		<g>
			<path fill="#FFFFFF" d="M321,306.8c-9.2-3.3-14.2-7.2-20.2-13.6v15.2c0,1.9-0.6,3.2-2.1,3.5c-1.6,0.4-3.1,0.3-4.7,0.3l-0.7-2
				c0.7,0.1,1.2,0.1,1.7,0.2c0.7,0.1,1.4,0,2.2-0.1c1-0.2,1.6-0.8,1.6-2v-21.4h-21.1V285H308l0.7-6.5h-22v-1.9h22.2l0.7-6.6h-26.1
				v-1.9h28.3l-1.8,17h11.1v1.9h-20.3v3.6c0.7,1.6,4,4.8,6.6,6.7c3.1-1.8,6.3-4.3,8.8-6.7l1.2,1.2c-2.7,2.4-5.1,4.3-8.5,6.5
				c3,2.3,4.5,3.1,7.1,4.3c2.1,1,4.1,1.7,6.3,2.3L321,306.8z M280.1,306.8l-1.8-1.9c6.3-2.3,12.5-4.9,18.6-7.6v2.1
				C291.3,302,285.6,304.4,280.1,306.8z M289.3,296.8c-2-2.5-4.7-4.4-7.2-5.9l1.1-1.2c2.6,1.4,5.7,3.7,7.6,5.7L289.3,296.8z"/>
		</g>
		<g>
			<path fill="#FFFFFF" d="M377.6,311.1c-10.5-8-17.4-16.6-21.6-29.2c-5.8,14.4-10.7,19.3-21.9,29.4l-1.6-1.5
				c9.4-7.8,17-16,21.1-27.8c0.3-0.7,1.7-5.1,1.7-5.7c0-2-0.2-4-0.3-6.1h-10.1v-2h12.3c0,6.8,0.2,13.7,3.4,19.8
				c5.5,10.4,9.7,14.3,18.6,21.5L377.6,311.1z"/>
		</g>
		<g>
			<path fill="#FFFFFF" d="M431.6,311.9c-0.3,0.5-0.6,1-1.3,1c-2-0.2-3.4-1.8-4.9-3c-2.4-2.1-4.3-4.8-5.9-7.5
				c-3.9,3.9-8.2,6.9-12.6,9.7l-1.7-1.3c4.7-3,9.4-6.1,13.3-10.5c-2.4-5.1-3.5-10.7-3.8-16.6h-12.6V294c3.2-1.2,6.3-2.3,9.4-3.6v2.3
				l-9.4,3.6V311c0,1-1,2.1-2.2,2.1c-0.5,0.2-2.3,0.4-3.9,0l-1-1.9c1.6,0.2,3.1,0.3,3.8,0.2c0.8-0.2,1.1-0.6,1.1-1.3v-12.8
				l-10.1,3.9l-1.2-1.7L400,295v-11.2h-10.7l0.1-1.9H400V273c-3.1,0.9-6.2,2-9.4,2.7l-1.1-1.7c7.1-1.7,13.9-3.9,20.3-7.2l1.6,1.4
				c-3,1.5-6,2.8-9.1,3.9v9.8h12.4v-16h2.2v12.8l0.2,3.3h14.7v1.9h-14.7c0.2,5.2,1.3,10.1,3.3,14.6c3-3.6,5.7-7.5,7.2-11.9l2,0.9
				c-1.7,4.8-4.9,9-8.2,13.2c1.8,3.5,4.5,7.1,8,9.4c0.3,0.1,0.8,0.4,0.9,0c0.7-1.7,1.1-3.6,1.5-5.5l0.3-1.2l2,1.1
				C433.1,306.9,432.5,309.5,431.6,311.9z M427.3,277.2c-1.9-2.9-4.1-5.6-6.9-8.1l1.5-1.2c2.8,2.2,5.1,5.1,7.2,7.9L427.3,277.2z"/>
		</g>
		<g>
			<path fill="#FFFFFF" d="M453.6,280v32.5h-2.2v-27.3c-1.4,2.7-4.2,6.8-6.2,9l-1.7-1.6c6.7-7.4,9.7-16.5,11.2-26l2,0.7
				C455.9,271.6,454.9,275.9,453.6,280z M460.6,312.5v-33.7h2.2v33.7H460.6z M465.7,276.1c-1.1-2.9-3-5.2-5.1-6.9l1.8-1.1
				c2.3,1.9,4.2,4.4,5.2,6.9L465.7,276.1z M485.3,311.7c-1.4,0.3-3.5,0.4-5.5,0.2l-0.8-2.3l4.8,0.3c0.7-0.1,1.6-0.5,1.6-2.1v-36
				h-15.2v-2h17.4v39.4C487.6,310.7,486.5,311.3,485.3,311.7z"/>
		</g>
		<g>
			<path fill="#FFFFFF" d="M540.2,310c-1.4,2.1-3.3,2.8-5.6,2.6c-0.6,0-2.1,0.3-2.8,0l-1.1-2c1.2,0.2,3.4,0.4,5.1,0
				c3.2-0.7,3.5-4.2,4-6.6c1-4.6,0.9-10.2,0.9-14.8V278h-14.5c-1.3,2.6-2.9,5.2-4.7,7.6l-2-0.9v23h-2.2v-4h-12.5v5.3h-2.2v-31.6h4.7
				c1.7-3.4,2.6-6.9,3.4-10.6l2,0.5c-0.5,3.4-1.5,6.9-3,10.1h9.7v6.8c0.3,0.2,0.3-0.3,0.5-0.4c2.3-3,4.2-5.8,5.2-9.3
				c0.8-3,1.8-6,2.1-9c0.7,0.2,1.4,0.4,2.1,0.7c-0.6,3.2-1.1,6.6-2.3,9.7l15.9,0.1v20C542.9,300.8,541.9,307.4,540.2,310z
				 M517.3,279.4h-12.5v9.8h12.5V279.4z M517.3,291.1h-12.5v10.7h12.5V291.1z M531.5,300.1c-1.1-4.5-3.2-8.6-5.6-12.6l1.7-1.2
				c2.2,4.2,4.6,8.1,5.9,12.7L531.5,300.1z"/>
		</g>
		<g>
			<path fill="#FFFFFF" d="M571.4,304.6c1.8,1.2,3.6,2.4,5.2,3.9l-1.6,1.3c-1.6-1.6-3.3-2.8-5.1-3.8c-3.3,2.2-7.3,4.5-13.1,6.5
				l-1.3-1.6c4.1-1.1,8-2.9,12.4-6c-3.2-1.6-6-2.6-8.7-3.2c1-1.6,1.9-2.9,3.1-5.2h-5.9v-1.9h6.8c0.7-1.5,1.4-3.5,1.8-4.9l2,0.5
				c-0.5,1.7-0.6,1.8-1.9,4.5h11.5v2.4C575.7,299.4,574.1,301.7,571.4,304.6z M569.4,277.1v11.1h-2v-10.9h-0.7
				c-1.5,3.9-5.5,7.6-8.9,9.6l-1.2-1.4c3.6-2.2,6.6-4.4,8.6-8.4h-8.8v-1.9h11.1V266h2v9.2h10.3v1.9H569.4z M563,272.9
				c-1.2-1.7-2.9-3.2-4.5-4.4l1-1.1c1.6,0.9,3.7,2.8,4.8,4.6L563,272.9z M564.4,296.4c-0.8,1.4-1.1,2.1-2.4,4.3
				c3.1,0.8,5,1.8,7.5,2.8c2.5-2.5,3.6-4.4,4.9-7.1L564.4,296.4L564.4,296.4z M577.3,285.5c-1.2-1.8-3.2-3.5-5-4.8l1-0.8
				c2,1.1,3.7,2.6,5.1,4.5L577.3,285.5z M574.6,273.1l-1.3-1.1c1.6-1.2,3.1-2.8,4.4-4.3l1.3,0.9
				C577.8,270.2,576.2,271.9,574.6,273.1z M600,312.3c-3.3-2.7-6.2-6-8.9-10.1c-2.9,4.4-6.1,8.3-10,10.5l-1.5-1.7
				c4.3-2.3,7.6-6.7,10.3-10.9c-2.8-5.1-4.3-10.5-5.3-16.2c-1.5,3.2-3.6,6.7-5.7,9.1c-0.5-0.4-1.1-0.8-1.6-1.2
				c5.8-7.1,8.2-15.5,8.7-24.7l2,0.5c-0.3,3.4-0.6,5.9-1.3,9.6H600v1.9h-2c-0.9,7.5-2.4,14.2-5.9,21c2.4,4,5.7,7.6,9.2,10.5
				L600,312.3z M586,279.1l-0.3,1.4c1,5.7,2.7,12,5.3,17.4c3.1-6,4.2-12,4.8-18.8H586z"/>
		</g>
		<g>
			<path fill="#FFFFFF" d="M619.8,278.9v11.2l6-2.9v2l-6,3.1v16.8c0,1.6-1.2,3.1-3.4,3.1h-4.5l-0.5-2.1l4.8,0.1
				c0.9,0,1.5-0.6,1.5-1.5v-15.4l-6.4,3.3l-1.3-1.8c3-1.3,4.6-2.1,7.7-3.7v-12.3h-7v-1.9h7V266h2.1v10.9h6.2v1.9h-6.2V278.9z
				 M630.8,280.2v5.6c0,3.6-0.6,10.1-1.8,13.4c-1.1,3.3-2.5,6.4-4.3,9.4l-2.6,4.3l-1.7-1.3c3.7-5.6,6.6-11.1,7.6-18.1
				c0.4-2.3,0.6-6.7,0.6-9.2v-15.7h25.1v11.7L630.8,280.2L630.8,280.2z M651.8,270.4h-21v7.9h21V270.4z M644.3,289.7v6.9h9.2V313
				h-2.1v-4.4h-16.1v4.4h-2.1v-16.5h8.9v-6.9h-10.4v-1.9h10.4v-6.1h2.1v6.1h13.2v1.9h-13.1V289.7z M651.4,298.5h-16.1v8.2h16.1
				V298.5z"/>
		</g>
		<g>
			<path fill="#FFFFFF" d="M673.9,271.8V288c0,8.5-1.3,17-5.9,23.8l-1.8-1.4c1.6-2.5,2.9-5.1,3.6-7.9c1.8-6.4,2-12.5,2-20v-12.6
				h20.6c-2-1.5-4.3-2.8-6.5-4.1c0.4-0.6,0.8-1,1.2-1.6c2.3,1.2,4.6,2.8,6.9,4.3l-1,1.5h18.6v1.9L673.9,271.8L673.9,271.8z
				 M695.3,300.4v11.3h-2.2v-11.3h-17.7v-2h17.7v-6.1h-12.5v-2.4l4-8.8h-8.2v-2h9l2-4.7l2,0.3l-1.8,4.4h21.2v2h-22l-4.3,9.1H693
				v-5.9h2.2v5.9h11.7v2h-11.7v6.1h16.4v2h-16.3V300.4z"/>
		</g>
	</g>
</g>
</svg>
