<?xml version="1.0" encoding="utf-8"?>
<!-- Generator: Adobe Illustrator 19.0.0, SVG Export Plug-In . SVG Version: 6.00 Build 0)  -->
<svg version="1.1" id="图层_1" xmlns="http://www.w3.org/2000/svg" xmlns:xlink="http://www.w3.org/1999/xlink" x="0px" y="0px"
	 viewBox="59 18.3 960 560" style="enable-background:new 59 18.3 960 560;" xml:space="preserve">
<style type="text/css">
	.st0{fill:#FFFFFF;}
</style>
<g>
	<g>
		<path class="st0" d="M388.1,217.8c-1.7,2.2-4.5,5.8-5.8,7.4v19.3h-2.2v-16.6c-1.9,1.9-5.2,4.6-7,5.7l-1.3-1.5
			c3.9-3.1,8.9-7.4,14.9-16c0.6,0.1,1.1,0.6,1.6,0.9L388.1,217.8z M373.8,259.2c-0.6-0.3-1-0.8-1.6-1.2c3-3.2,5.2-6.5,7.3-9.9
			c0.6,0.2,1,0.5,1.5,0.9C378.8,252.6,376.9,256.1,373.8,259.2z M385.5,242.2l-1.5-1.7c4-2.5,7.5-5.6,10.8-9.3
			c0.6,0.3,1.1,0.7,1.7,1C393.2,236,389.7,239.6,385.5,242.2z M411.6,231.9l-2-0.9c0.7-1,1.6-2.1,2.3-3.2l1.9-2.9h-20.2
			c-2.2,3-4.5,5.7-7.4,7.9c-0.6-0.3-1.2-0.8-1.9-1.2c5.3-4.1,9.2-9.9,12.5-15.7c0.6,0.2,1.2,0.6,1.8,0.9c-1.1,2-2.4,4-3.6,6h22
			C415.6,226.1,413.7,229,411.6,231.9z M406.5,259.3c-0.7,1.1-1.9,1.9-3.1,1.9h-14.3c-2.3,0-3.8-1.9-3.8-3.5v-10.8h2.2v10.5
			c0.2,0.7,0.8,1.3,1.4,1.7l0.8,0.3h13.2c0.6-0.2,1.3-0.7,1.6-1.3c0.6-2.3,1.6-3.5,1.8-5.5c0.7,0.2,1.2,0.6,1.8,0.9
			C407.7,255.4,407.3,257.5,406.5,259.3z M397.3,255c-1.3-3-2.9-6-4.9-8.6c0.5-0.4,0.9-0.8,1.6-1c1.9,2.7,3.6,5.4,5.1,8.3L397.3,255
			z M400.5,243.8c-1.7,0.4-3.6,0.2-5.4,0.2l-0.9-2h5c0.5-0.1,1-0.6,1.2-1l0.2-0.9v-13.6h2.2v14.8
			C402.4,242.3,401.6,243.4,400.5,243.8z M416.6,241.9c-3.4-3.2-7-6.4-10.6-9l1.3-1.3c4.1,3,7.1,4.9,10.9,8.8L416.6,241.9z
			 M417.3,259.2c-2.2-3.4-4.9-6.7-7.9-10.1l1.6-1.2c3,2.9,5.9,7,8.2,10.3L417.3,259.2z"/>
		<path class="st0" d="M469.2,259.2c-1.4,2.1-3.3,2.8-5.6,2.6c-0.6,0-2.1,0.3-2.8,0l-1.1-2c1.2,0.2,3.4,0.4,5.1,0
			c3.2-0.7,3.5-4.2,4-6.6c1-4.6,0.9-10.2,0.9-14.8v-11.1h-14.5c-1.3,2.6-2.9,5.2-4.7,7.6l-2-0.9v23h-2.2v-4h-12.5v5.3h-2.2v-31.6
			h4.7c1.7-3.4,2.6-6.9,3.4-10.6l2,0.5c-0.5,3.4-1.5,6.9-3,10.1h9.7v6.8c0.3,0.2,0.3-0.3,0.5-0.4c2.3-3,4.2-5.8,5.2-9.3
			c0.8-3,1.8-6,2.1-9c0.7,0.2,1.4,0.4,2.1,0.7c-0.6,3.2-1.1,6.6-2.3,9.7l15.9,0.1v20C471.9,250.1,470.9,256.6,469.2,259.2z
			 M446.3,228.7h-12.5v9.8h12.5V228.7z M446.3,240.3h-12.5V251h12.5V240.3z M460.5,249.4c-1.1-4.5-3.2-8.6-5.6-12.6l1.7-1.2
			c2.2,4.2,4.6,8.1,5.9,12.7L460.5,249.4z"/>
		<path class="st0" d="M528.8,238.9c-7.6-4.4-15.4-10.4-21.1-20.1c-4.4,7.8-12.9,16.6-21.5,20.1l-1.8-1.5
			c10.5-5.2,17.9-12.3,23.1-22.6l1.8,0.8l-0.5,1c4.5,9.1,13.5,15.8,21.6,20.6L528.8,238.9z M506.4,260.9v-31.3h2.1v31.3H506.4z"/>
		<path class="st0" d="M583.6,261.5c-9.5-7.2-16.2-17.4-21.1-28.2c-3,11.4-10.4,21.5-19.9,28.3l-1.9-1.8
			c15.3-11.2,21.2-24.7,21.2-43.4h2.6c-0.3,4.5-0.4,9-1.2,13.4c4.1,9.6,10,18.7,17.4,26.1c1.5,1.5,3.1,2.9,4.9,4L583.6,261.5z"/>
		<path class="st0" d="M640.5,260.2h-24.3c-6.1-0.7-8.8-2.5-12-5.1l-7.1,5.8l-1.6-1.6c2.8-1.8,5.6-4,8.3-6.4v-16.7h-7v-1.9h9.1V254
			c3.6,3.2,7.7,4.4,12.4,4.4h18.6c1.5-0.2,3.1-0.2,4.5-0.3L640.5,260.2z M605.9,225.4c-1.2-2.8-3.4-5.2-5.7-7.3l1.6-1.1
			c2.4,2,4.4,4.5,5.8,7.1C607,224.6,606.5,225,605.9,225.4z M638.1,253.9c-1.1,0.3-2.3,0.3-3.5,0.3c-1.3-0.1-2.5-0.1-3.8-0.1
			c-1.7-0.6-2.1-1.6-2.5-3.2v-13.7h-5.8c0.1,8.1-2.3,14.8-10,18.7l-1.2-1.9c7.4-3.7,9.1-9,9.2-16.8H612v-1.9h12.6v-9.7h-8
			c-1,2.9-2,5.1-3.8,7.2l-1.6-1.1c2.4-3.6,4.8-8.3,5.3-14.2l1.7,0.6c-0.1,1.6-0.4,3.3-0.9,5.6h7.3v-7.2h2.1v7.2h8.6v1.9h-8.6v9.7
			h12.6v1.9h-9v13.7c0.3,0.7,0.7,1,1.3,1.2h5.1c0.8-0.2,1.5-0.8,1.8-1.6c0.2-0.9,0.2-1.9,0.3-2.9l1.9,0.9
			C640.5,251,640.1,253.2,638.1,253.9z"/>
		<path class="st0" d="M660.9,228.9v11.8c1.8-0.8,3.5-1.5,4.7-1.9v2.1c-1.4,0.7-3.1,1.2-4.7,2.2v15.3c-0.2,1.2-0.9,2.4-2.1,2.7
			c-0.7,0.2-1.5,0.3-2.3,0.3c-0.7,0-1.4-0.1-2.1-0.1l-0.8-2.2l3.8,0.2c0.6-0.2,1.1-0.7,1.5-1.2V244c-2.4,1.2-4.5,2-6.2,2.8l-1.3-1.8
			c2.4-0.9,4.9-1.9,7.6-3.2v-13h-6.6v-1.9h6.6v-11.3h1.9v11.3h6.9v1.9h-6.9V228.9z M695.9,237.3c-5-1.1-9.7-3.1-14.2-6
			c-4.6,2.8-9.2,4-14.2,5.2l-1.3-1.6c5.7-1.3,10.1-3,13.8-4.8c-4-3.4-6.5-6.9-8.5-10.8h-2.9v-1.9H693v2.1c-2.2,3.9-5.1,7.5-9.4,10.7
			c3.3,2,8.4,4.2,13.4,5.2L695.9,237.3z M682.4,250.2v11.2h-1.9v-11.2h-14v-1.9h14v-5.9h-11.9v-1.9h11.9v-3.9h1.9v3.9H694v1.9h-11.6
			v5.9h13.7v1.9H682.4z M673.5,219.3c2.3,3.9,4.7,7.3,8.3,9.7c3.8-2.3,6.4-5.6,9.2-9.7H673.5z"/>
	</g>
	<g>
		<path class="st0" d="M331.3,320.6c-1.2,2.4-2.8,2.3-5.2,2.3h-29.4c-1.6,0-2.8-1.7-2.8-3.2v-27.4h2.2v6.3h27.4v-13.7H292v-2h33.7
			v21.6h-2.2v-4H296V319c0,0.9,0.6,1.8,1.6,1.8h30.2c1.8,0,2-3.5,2.1-4.7l0.4-2.7l2.2,0.8C332.2,316.1,332,319.1,331.3,320.6z"/>
		<path class="st0" d="M389.3,319.2c-9.2-3.3-14.2-7.2-20.2-13.6v15.2c0,1.9-0.6,3.2-2.1,3.5c-1.6,0.4-3.1,0.3-4.7,0.3l-0.7-2
			c0.7,0.1,1.2,0.1,1.7,0.2c0.7,0.1,1.4,0,2.2-0.1c1-0.2,1.6-0.8,1.6-2v-21.4H346v-1.9h30.3l0.7-6.5h-22V289h22.2l0.7-6.6h-26.1
			v-1.9h28.3l-1.8,17h11.1v1.9h-20.3v3.6c0.7,1.6,4,4.8,6.6,6.7c3.1-1.8,6.3-4.3,8.8-6.7l1.2,1.2c-2.7,2.4-5.1,4.3-8.5,6.5
			c3,2.3,4.5,3.1,7.1,4.3c2.1,1,4.1,1.7,6.3,2.3L389.3,319.2z M348.4,319.3l-1.8-1.9c6.3-2.3,12.5-4.9,18.6-7.6v2.1
			C359.6,314.4,353.9,316.8,348.4,319.3z M357.6,309.3c-2-2.5-4.7-4.4-7.2-5.9l1.1-1.2c2.6,1.4,5.7,3.7,7.6,5.7L357.6,309.3z"/>
		<path class="st0" d="M445.9,323.6c-10.5-8-17.4-16.6-21.6-29.2c-5.8,14.4-10.7,19.3-21.9,29.4l-1.6-1.5c9.4-7.8,17-16,21.1-27.8
			c0.3-0.7,1.7-5.1,1.7-5.7c0-2-0.2-4-0.3-6.1h-10.1v-2h12.3c0,6.8,0.2,13.7,3.4,19.8c5.5,10.4,9.7,14.3,18.6,21.5L445.9,323.6z"/>
		<path class="st0" d="M499.9,324.4c-0.3,0.5-0.6,1-1.3,1c-2-0.2-3.4-1.8-4.9-3c-2.4-2.1-4.3-4.8-5.9-7.5c-3.9,3.9-8.2,6.9-12.6,9.7
			l-1.7-1.3c4.7-3,9.4-6.1,13.3-10.5c-2.4-5.1-3.5-10.7-3.8-16.6h-12.6v10.3c3.2-1.2,6.3-2.3,9.4-3.6v2.3l-9.4,3.6v14.7
			c0,1-1,2.1-2.2,2.1c-0.5,0.2-2.3,0.4-3.9,0l-1-1.9c1.6,0.2,3.1,0.3,3.8,0.2c0.8-0.2,1.1-0.6,1.1-1.3v-12.8l-10.1,3.9l-1.2-1.7
			l11.4-4.5v-11.2h-10.7l0.1-1.9h10.6v-8.9c-3.1,0.9-6.2,2-9.4,2.7l-1.1-1.7c7.1-1.7,13.9-3.9,20.3-7.2l1.6,1.4
			c-3,1.5-6,2.8-9.1,3.9v9.8H483v-16h2.2v12.8l0.2,3.3h14.7v1.9H485c0.2,5.2,1.3,10.1,3.3,14.6c3-3.6,5.7-7.5,7.2-11.9l2,0.9
			c-1.7,4.8-4.9,9-8.2,13.2c1.8,3.5,4.5,7.1,8,9.4c0.3,0.1,0.8,0.4,0.9,0c0.7-1.7,1.1-3.6,1.5-5.5l0.3-1.2l2,1.1
			C501.4,319.4,500.8,321.9,499.9,324.4z M495.6,289.7c-1.9-2.9-4.1-5.6-6.9-8.1l1.5-1.2c2.8,2.2,5.1,5.1,7.2,7.9L495.6,289.7z"/>
		<path class="st0" d="M521.9,292.4v32.5h-2.2v-27.3c-1.4,2.7-4.2,6.8-6.2,9l-1.7-1.6c6.7-7.4,9.7-16.5,11.2-26l2,0.7
			C524.2,284.1,523.2,288.4,521.9,292.4z M528.9,325v-33.7h2.2V325H528.9z M534,288.5c-1.1-2.9-3-5.2-5.1-6.9l1.8-1.1
			c2.3,1.9,4.2,4.4,5.2,6.9L534,288.5z M553.6,324.1c-1.4,0.3-3.5,0.4-5.5,0.2l-0.8-2.3l4.8,0.3c0.7-0.1,1.6-0.5,1.6-2.1v-36h-15.2
			v-2h17.4v39.4C555.9,323.2,554.9,323.7,553.6,324.1z"/>
		<path class="st0" d="M608.5,322.4c-1.4,2.1-3.3,2.8-5.6,2.6c-0.6,0-2.1,0.3-2.8,0l-1.1-2c1.2,0.2,3.4,0.4,5.1,0
			c3.2-0.7,3.5-4.2,4-6.6c1-4.6,0.9-10.2,0.9-14.8v-11.1h-14.5c-1.3,2.6-2.9,5.2-4.7,7.6l-2-0.9v23h-2.2v-4h-12.5v5.3H571v-31.6h4.7
			c1.7-3.4,2.6-6.9,3.4-10.6l2,0.5c-0.5,3.4-1.5,6.9-3,10.1h9.7v6.8c0.3,0.2,0.3-0.3,0.5-0.4c2.3-3,4.2-5.8,5.2-9.3
			c0.8-3,1.8-6,2.1-9c0.7,0.2,1.4,0.4,2.1,0.7c-0.6,3.2-1.1,6.6-2.3,9.7l15.9,0.1v20C611.2,313.3,610.2,319.8,608.5,322.4z
			 M585.6,291.8h-12.5v9.8h12.5V291.8z M585.6,303.5h-12.5v10.7h12.5V303.5z M599.8,312.5c-1.1-4.5-3.2-8.6-5.6-12.6l1.7-1.2
			c2.2,4.2,4.6,8.1,5.9,12.7L599.8,312.5z"/>
		<path class="st0" d="M639.7,317.1c1.8,1.2,3.6,2.4,5.2,3.9l-1.6,1.3c-1.6-1.6-3.3-2.8-5.1-3.8c-3.3,2.2-7.3,4.5-13.1,6.5l-1.3-1.6
			c4.1-1.1,8-2.9,12.4-6c-3.2-1.6-6-2.6-8.7-3.2c1-1.6,1.9-2.9,3.1-5.2h-5.9v-1.9h6.8c0.7-1.5,1.4-3.5,1.8-4.9l2,0.5
			c-0.5,1.7-0.6,1.8-1.9,4.5H645v2.4C644,311.9,642.4,314.1,639.7,317.1z M637.7,289.6v11.1h-2v-10.9H635c-1.5,3.9-5.5,7.6-8.9,9.6
			l-1.2-1.4c3.6-2.2,6.6-4.4,8.6-8.4h-8.8v-1.9h11.1v-9.2h2v9.2H648v1.9L637.7,289.6L637.7,289.6z M631.4,285.3
			c-1.2-1.7-2.9-3.2-4.5-4.4l1-1.1c1.6,0.9,3.7,2.8,4.8,4.6L631.4,285.3z M632.7,308.9c-0.8,1.4-1.1,2.1-2.4,4.3
			c3.1,0.8,5,1.8,7.5,2.8c2.5-2.5,3.6-4.4,4.9-7.1L632.7,308.9L632.7,308.9z M645.6,298c-1.2-1.8-3.2-3.5-5-4.8l1-0.8
			c2,1.1,3.7,2.6,5.1,4.5L645.6,298z M642.9,285.5l-1.3-1.1c1.6-1.2,3.1-2.8,4.4-4.3l1.3,0.9C646.2,282.7,644.5,284.3,642.9,285.5z
			 M668.3,324.8c-3.3-2.7-6.2-6-8.9-10.1c-2.9,4.4-6.1,8.3-10,10.5l-1.4-1.7c4.3-2.3,7.6-6.7,10.3-10.9c-2.8-5.1-4.3-10.5-5.3-16.2
			c-1.5,3.2-3.6,6.7-5.7,9.1c-0.5-0.4-1.1-0.8-1.6-1.2c5.8-7.1,8.2-15.5,8.7-24.7l2,0.5c-0.3,3.4-0.6,5.9-1.3,9.6h13.3v1.9h-2
			c-0.9,7.5-2.4,14.2-5.9,21c2.4,4,5.7,7.6,9.2,10.5L668.3,324.8z M654.4,291.6l-0.3,1.4c1,5.7,2.7,12,5.3,17.4
			c3.1-6,4.2-12,4.8-18.8H654.4z"/>
		<path class="st0" d="M688.1,291.3v11.2l6-2.9v2l-6,3.1v16.8c0,1.6-1.2,3.1-3.4,3.1h-4.5l-0.5-2.1l4.8,0.1c0.9,0,1.5-0.6,1.5-1.5
			v-15.4l-6.4,3.3l-1.3-1.8c3-1.3,4.6-2.1,7.7-3.7v-12.3h-7v-1.9h7v-10.8h2.1v10.9h6.2v1.9H688.1z M699.1,292.6v5.6
			c0,3.6-0.6,10.1-1.8,13.4c-1.1,3.3-2.5,6.4-4.3,9.4l-2.6,4.3l-1.7-1.3c3.7-5.6,6.6-11.1,7.6-18.1c0.4-2.3,0.6-6.7,0.6-9.2V281H722
			v11.7L699.1,292.6L699.1,292.6z M720.1,282.8h-21v7.9h21V282.8z M712.6,302.1v6.9h9.2v16.5h-2.1v-4.4h-16.1v4.4h-2.1V309h8.9v-6.9
			H700v-1.9h10.4v-6.1h2.1v6.1h13.2v1.9H712.6z M719.8,310.9h-16.1v8.2h16.1V310.9z"/>
		<path class="st0" d="M742.2,284.2v16.2c0,8.5-1.3,17-5.9,23.8l-1.8-1.4c1.6-2.5,2.9-5.1,3.6-7.9c1.8-6.4,2-12.5,2-20v-12.6h20.6
			c-2-1.5-4.3-2.8-6.5-4.1c0.4-0.6,0.8-1,1.2-1.6c2.3,1.2,4.6,2.8,6.9,4.3l-1,1.5h18.6v1.9L742.2,284.2L742.2,284.2z M763.6,312.8
			v11.3h-2.2v-11.3h-17.7v-2h17.7v-6.1H749v-2.4l4-8.8h-8.2v-2h9l2-4.7l2,0.3l-1.8,4.4h21.2v2h-22l-4.3,9.1h10.5v-5.9h2.2v5.9h11.7
			v2h-11.7v6.1h16.3v2L763.6,312.8L763.6,312.8z"/>
	</g>
	<g>
		<g>
			<path class="st0" d="M300.9,360.5c-0.2,1.5-0.7,3-1.4,4.4h6.3v15.6c0,0.5-0.5,1.1-1.1,1.2c-0.7,0.1-1.4,0.1-2.1,0.1l-0.5-1.1
				c0.6,0,1.6,0.2,2,0c0.5-0.1,0.6-0.6,0.6-0.9v-13.9h-2.4v12.6h-1.1v-12.6h-2.4v13.3h-1.1v-13.3h-2.4v15.9h-1.1v-16.9h4.1
				c0.8-1.2,1.3-2.9,1.6-4.4h-7v-1h14.3v1L300.9,360.5L300.9,360.5z M313.5,366.5v13.7c0,0.6-0.2,1.2-0.8,1.3
				c-0.8,0.3-2,0.2-2.7,0.3l-0.5-1.2c0.7,0,1.6,0.2,2.3,0.1c0.3,0,0.6-0.5,0.6-0.8v-13.4h-5.8v-1h5.8v-8.2h1.1v8.2h2.3v1H313.5z
				 M310.2,375.2c-0.4-2-1.3-3.9-2.4-5.6l0.9-0.5c1.1,1.8,2,3.6,2.6,5.6L310.2,375.2z"/>
		</g>
		<g>
			<path class="st0" d="M345.9,380.4h-0.5h-6.2c-1.2,0-1.5-0.6-1.5-1.9v-6.4H333c0,3.8-2.5,7.6-6.1,9.1c-0.5,0.2-1.1,0.4-1.6,0.6
				l-0.9-0.9c2.4-0.8,4.7-1.9,6.3-4.5c0.8-1.3,1.2-2.8,1.2-4.3h-3.7v-7.2h7v-3.3h-9.8v-1h9.8v-3.5h1.1v3.5h9.9v1h-9.9v3.3h7v7.2
				h-4.4v6.7c0,0.4,0.3,0.6,0.8,0.6h5.7c0.6,0,0.6-0.9,0.7-1.4c0.2-0.8,0.2-1.7,0.2-2.5l1.1,0.8
				C347.2,377.2,347.2,380.4,345.9,380.4z M342.1,365.9h-12.9v5.2h12.9V365.9z"/>
		</g>
		<g>
			<path class="st0" d="M365,376.7h-0.1c-0.9-0.7-1.7-1.5-2.5-2.1c-0.2,0.3-0.4,0.7-0.6,1c-1.2,2-2.5,3.6-4,5.4
				c-0.3-0.2-0.6-0.4-0.9-0.6c1.8-1.9,3.4-4.1,4.7-6.4c-0.8-0.6-1.7-1.3-2.6-1.8l-0.3,1.4l-1-0.3l1.8-7.2l0.4-1.8H357v-1h3
				c0.7-2,1-4.1,1.6-6.1l1,0.2c-0.4,2-1,3.9-1.5,5.9h3.9c-0.1,1.7-0.4,3.2-0.7,4.9c-0.3,1.9-0.9,3.8-1.6,5.5l2.9,2.3L365,376.7z
				 M360.9,364.3l-1.7,6.9c0.9,0.6,1.8,1.2,2.6,1.8h0.1c1.2-2.7,1.6-5.7,1.9-8.7L360.9,364.3L360.9,364.3z M380.1,380.8
				c-2.9-2.1-5.7-4.7-7-7.9l-0.1,8.7h-1.1v-8.7c-1.5,3.2-4.4,5.8-7.3,8l-0.9-0.6c5.2-3.9,5.6-5.3,7-7.6h-6.2v-1h7.4v-2.8h-3.6v-7.8
				h-3.6v-1h3.6V357h1.1v3.1h6.2V357h1.1v3.1h3.8v1h-3.8v7.8H373v2.8h7.5v1h-6.4c2,3.8,3.7,5.1,6.8,7.2L380.1,380.8z M375.5,361.2
				h-6.2v2.7h6.2V361.2z M375.5,364.9h-6.2v3.1h6.2V364.9z"/>
		</g>
		<g>
			<path class="st0" d="M393.7,363.8v17.7h-1.1v-15.4c-0.9,1.7-2.1,3.3-3.5,4.8l-0.9-0.9c3.2-3.6,5-7.7,7-12.9
				c0.3,0.1,0.6,0.3,0.9,0.5C395.4,359.7,394.5,361.8,393.7,363.8z M411.8,376.6c-1.1-0.9-2-2-2.9-3.1c-2.3-2.7-3.6-5.9-4.5-9.2
				h-0.2V375h4.7v1.1h-4.7v5.5h-1.1v-5.5h-4.7V375h4.7v-10.7h-0.2c-1.6,4.9-3.3,9-7.4,12.2c-0.3-0.2-0.7-0.6-1-0.9
				c3.8-2.9,5.8-7.1,7.2-11.4h-6.3v-1.1h7.6v-6h1.1v6h7.8v1.1h-6.6c0.9,4.2,3.5,8.3,7.2,11.3L411.8,376.6z"/>
		</g>
		<g>
			<path class="st0" d="M440.3,373.5v-1.8h-8v10.1h-1.2v-10.1h-7.7v2.2h-1.2v-11.4h9V357h1.2v5.5h9.2v11H440.3z M431.1,363.7h-7.7v7
				h7.7V363.7z M440.3,363.7h-8v7h8V363.7z"/>
		</g>
		<g>
			<path class="st0" d="M454.2,376.2l-1.2-0.6c1.9-2.5,2.8-5.6,3.2-8.7l1,0.3C456.8,370.4,455.9,373.5,454.2,376.2z M469.9,380.2
				h-8.6c-0.8,0-1.6-0.8-1.6-1.6v-14.7h1.2v14.4c0,0.6,0.6,0.9,1.2,0.9h7.3c1.2,0,1.5-3.8,1.5-4.7l1.1,0.5
				C471.9,376,471.6,380.2,469.9,380.2z M466.7,365.6c-1.5-2.4-3.6-4.4-5.6-6.4l0.8-0.7c2.1,1.9,4.2,4,5.8,6.4L466.7,365.6z
				 M475.6,375.3c-1.3-3-2.6-5.5-4.6-8.1l1-0.5c1.8,2.5,3.6,5.2,4.6,8.1L475.6,375.3z"/>
		</g>
		<g>
			<path class="st0" d="M524.3,380.9h-0.9l-0.6-1c0.3,0,0.7,0,1,0c0.7,0,2,0.2,2-0.9v-7.7h-10.4c-0.4,4-2.9,7.2-5.9,9.6l-0.8-0.8
				c3.3-2.5,5.6-5.9,5.6-10.2v-12.1H527v21.7C526.9,381,525.3,380.9,524.3,380.9z M525.8,358.9h-10.3v5h10.3V358.9z M525.8,364.9
				h-10.3v5.4h10.3V364.9z"/>
		</g>
		<g>
			<path class="st0" d="M582.8,379.7v-2.9h-12.9v2.9h-1.2v-20.6H584v20.6H582.8z M582.8,360.1h-12.9v7.2h12.9V360.1z M582.8,368.3
				h-12.9v7.5h12.9V368.3z"/>
		</g>
		<g>
			<path class="st0" d="M601.8,377.1l-3.9,4.4l-1-0.6l3-3.2l1.7-2l0.9,0.5L601.8,377.1z M597.2,373.9v-1h2.5v-11.3h-2.3v-1h2.3v-3.4
				h1.1v3.4h6.2v-3.5h1.1v3.5h2.5v1h-2.5v11.3h2.8v1H597.2z M607,361.7h-6.2v2.9h6.2V361.7z M607,365.6h-6.2v3.1h6.2V365.6z
				 M607,369.6h-6.2v3.3h6.2V369.6z M608.7,379.2c-1.2-1.1-2.3-2.1-3.5-3.1l0.6-0.7l3.7,3.1L608.7,379.2z M618.3,380.9
				c-0.9,0.1-1.6,0.2-2.7,0.1l-0.4-1.1c0.7,0.1,1.8,0.2,2.3,0.1c0.4,0,0.8-0.5,0.8-0.8v-7h-5.4c-0.1,3.4-0.9,6.6-2.8,9.3
				c-0.4-0.1-0.7-0.4-1-0.5c1.6-2.4,2.6-5,2.7-8l0.1-2.7v-11.7h7.7v21.2C619.4,380.3,618.8,380.9,618.3,380.9z M618.2,359.6h-5.4v5
				h5.4V359.6z M618.2,365.6h-5.4v5.6h5.4V365.6z"/>
		</g>
		<g>
			<path class="st0" d="M633.3,367.7v13.9h-1.1v-12.4c-0.9,1.1-2,2.3-3,3.3l-0.7-0.7c2.5-2.5,4.8-5.4,6.4-8.4l0.8,0.5
				C635.1,365.2,634.2,366.5,633.3,367.7z M629.6,365l-0.8-0.6c2.1-2.3,4.2-4.5,5.7-7.1l0.8,0.5C634,360.1,631.2,363.5,629.6,365z
				 M647.4,371.8v8.3c0,0.6-0.4,1.4-1.2,1.4c-0.7,0.1-1.8,0.1-3.1,0.1l-0.3-1c1.2,0.1,2,0.1,2.6,0c0.5,0,0.9-0.4,0.9-0.8v-7.9h-11
				v-1h11v-3.1h1.1v3.1h5v1h-5V371.8z M636.4,367.1v-1h6.7v-4.2h-5.4v-1h5.4v-3.8h1.1v3.8h6.1v1h-6.1v4.2h7.6v1H636.4z M641.7,377.7
				c-0.9-1.3-1.8-2.6-2.9-3.9l0.8-0.5c1.2,1.2,2,2.5,2.9,3.8L641.7,377.7z"/>
		</g>
		<g>
			<path class="st0" d="M668.7,358.7c-0.9,1.1-2.3,3-3,3.8v9.9h-1.1v-8.5c-1,1-2.7,2.4-3.6,2.9l-0.7-0.8c2-1.6,4.6-3.8,7.7-8.3
				c0.3,0.1,0.6,0.3,0.8,0.5L668.7,358.7z M661.3,380c-0.3-0.1-0.5-0.4-0.8-0.6c1.6-1.7,2.7-3.4,3.8-5.1c0.3,0.1,0.5,0.3,0.8,0.5
				C663.9,376.7,662.9,378.4,661.3,380z M667.4,371.2l-0.8-0.8c2.1-1.3,3.9-2.9,5.6-4.8c0.3,0.1,0.6,0.4,0.9,0.5
				C671.3,368.1,669.5,369.9,667.4,371.2z M680.8,366l-1-0.5c0.3-0.5,0.8-1.1,1.2-1.7l1-1.5h-10.5c-1.2,1.5-2.3,2.9-3.8,4.1
				c-0.3-0.2-0.6-0.4-1-0.6c2.7-2.1,4.7-5.1,6.5-8.1c0.3,0.1,0.6,0.3,0.9,0.5c-0.6,1-1.2,2.1-1.9,3.1h11.4
				C682.9,362.9,681.9,364.5,680.8,366z M678.2,380.1c-0.3,0.6-1,1-1.6,1h-7.4c-1.2,0-2-1-2-1.8v-5.6h1.1v5.4
				c0.1,0.3,0.4,0.7,0.7,0.9l0.4,0.2h6.8c0.3-0.1,0.7-0.3,0.8-0.7c0.3-1.2,0.8-1.8,0.9-2.8c0.3,0.1,0.6,0.3,0.9,0.5
				C678.8,378.1,678.6,379.1,678.2,380.1z M673.4,377.9c-0.7-1.5-1.5-3.1-2.5-4.4c0.3-0.2,0.5-0.4,0.8-0.5c1,1.4,1.9,2.8,2.6,4.3
				L673.4,377.9z M675.1,372.1c-0.9,0.2-1.8,0.1-2.8,0.1l-0.5-1h2.6c0.2-0.1,0.5-0.3,0.6-0.5l0.1-0.5v-7h1.1v7.6
				C676.1,371.3,675.7,371.9,675.1,372.1z M683.4,371.1c-1.7-1.6-3.6-3.3-5.5-4.7l0.7-0.7c2.1,1.6,3.6,2.5,5.6,4.6L683.4,371.1z
				 M683.8,380.1c-1.1-1.8-2.5-3.5-4.1-5.2l0.8-0.6c1.6,1.5,3,3.6,4.2,5.3L683.8,380.1z"/>
		</g>
		<g>
			<path class="st0" d="M713.9,380.1c-0.7,1.1-1.7,1.4-2.9,1.3c-0.3,0-1.1,0.2-1.4,0l-0.6-1c0.6,0.1,1.8,0.2,2.7,0
				c1.7-0.3,1.8-2.1,2.1-3.4c0.5-2.4,0.5-5.3,0.5-7.6v-5.7h-7.5c-0.7,1.4-1.5,2.7-2.4,3.9l-1-0.5V379h-1.1v-2.1h-6.4v2.7h-1.1v-16.3
				h2.4c0.9-1.7,1.4-3.5,1.7-5.5l1,0.3c-0.3,1.8-0.8,3.6-1.5,5.2h5v3.5c0.2,0.1,0.2-0.1,0.3-0.2c1.2-1.5,2.2-3,2.7-4.8
				c0.4-1.6,0.9-3.1,1.1-4.6c0.4,0.1,0.7,0.2,1.1,0.3c-0.3,1.6-0.6,3.4-1.2,5l8.2,0.1v10.3C715.3,375.4,714.8,378.8,713.9,380.1z
				 M702.1,364.3h-6.4v5h6.4V364.3z M702.1,370.4h-6.4v5.5h6.4V370.4z M709.4,375c-0.6-2.3-1.6-4.4-2.9-6.5l0.9-0.6
				c1.2,2.1,2.4,4.2,3.1,6.5L709.4,375z"/>
		</g>
		<g>
			<path class="st0" d="M725.6,380.5l-0.3-1.1c2.1-0.4,4.3-1,6.4-1.6v-5.1h-5.1v-1h5.1V368h1.1v3.7h4.8v1h-4.8v4.8l6.2-1.5v1
				L725.6,380.5z M738.2,368.3L737,366l-10.8,1.3l-0.2-1l1.7-0.2l3.1-6.7h-4.4v-1h12.8v1H732c-0.9,2.2-2,4.4-3,6.6l0.2-0.1
				c2.5-0.3,5.1-0.6,7.5-0.9l-1.5-2.4l0.9-0.5c1.1,1.5,2.6,4.1,3.2,5.7L738.2,368.3z M741.1,375.2v-14.7h1.1v14.7H741.1z
				 M746.5,381.6c-0.8,0.2-1.7,0-2.8,0l-0.5-1c1.1,0.1,2,0.2,2.4,0.1c0.4,0,0.7-0.4,0.7-0.8v-22.8h1.1v23.3
				C747.4,381.1,747,381.5,746.5,381.6z"/>
		</g>
		<g>
			<path class="st0" d="M779.9,379.7c-3.9-1.5-7.7-5.1-9.6-9.5h-1v11.1h-1.1v-10.9h-0.5c-1.2,3.3-4.3,6.3-6.8,7.8
				c-0.9,0.5-1.7,1-2.9,1.4l-0.8-0.8l1-0.5c3.2-1.5,6.6-4.3,8.5-8.1h-9v-1h10.6v-7.4h-9.5v-1h9.5v-3.3h1.1v3.3h9.8v1h-9.8v7.4h10.8
				v1h-8.8c1.4,3,3.1,4.6,5.2,6.2c1,0.8,2.8,1.9,4,2.4L779.9,379.7z M764.4,367.9c-0.8-1.6-2-3.1-3.4-4.2l0.8-0.6
				c1.4,1.2,2.7,2.7,3.5,4.3L764.4,367.9z M772.9,368.1l-0.8-0.6c1.5-1.3,2.9-2.8,3.9-4.4l0.7,0.5
				C775.8,365.2,774.5,366.8,772.9,368.1z"/>
		</g>
		<g>
			<path class="st0" d="M493.2,379.1h-1.8c0.4-6,1.9-10.7,6.9-17.4l0.6-0.8h-10.4v-1.5H501v1.1C498.4,363.5,494,369,493.2,379.1z"/>
		</g>
		<g>
			<path class="st0" d="M549.5,378.5v-16.6c-2.1,1.9-3.6,2.6-5.1,3.2v-1.5c4-2.2,4.9-3.6,5.6-5h1.1v19.9H549.5z"/>
		</g>
	</g>
	<g>
		<g>
			<path class="st0" d="M531.8,159.1c-14.6,0-26.4-11.9-26.4-26.4c0-14.6,11.9-26.4,26.4-26.4c14.6,0,26.4,11.9,26.4,26.4
				C558.2,147.2,546.4,159.1,531.8,159.1z M531.8,107.8c-13.7,0-24.8,11.1-24.8,24.8c0,13.7,11.1,24.8,24.8,24.8
				s24.8-11.1,24.8-24.8C556.6,119,545.5,107.8,531.8,107.8z"/>
		</g>
		<g>
			<polygon class="st0" points="526.7,142.8 517.8,130.9 519.1,129.9 526.9,140.4 544.6,123 545.8,124.1 			"/>
		</g>
	</g>
	<g>
		<path class="st0" d="M582.2,471l-65.3,17.3c-5.5,1.4-9.9,1.2-12.4-0.6c-6.4-4.7-1.5-14.1,0.2-17c-3.1,3.5-6.3,6.9-8.7,10.7
			c-3.8,5.9-5.5,12.3-2.9,16.5c4.7,7.5,15.8,4,23,1L582.2,471z"/>
	</g>
</g>
</svg>
