<?xml version="1.0" encoding="utf-8"?>
<!-- Generator: Adobe Illustrator 18.0.0, SVG Export Plug-In . SVG Version: 6.00 Build 0)  -->
<!DOCTYPE svg PUBLIC "-//W3C//DTD SVG 1.1//EN" "http://www.w3.org/Graphics/SVG/1.1/DTD/svg11.dtd">
<svg version="1.1" id="图层_1" xmlns="http://www.w3.org/2000/svg" xmlns:xlink="http://www.w3.org/1999/xlink" x="0px" y="0px"
	 viewBox="0 0 960 560" enable-background="new 0 0 960 560" xml:space="preserve">
<g>
	<path fill="#FFFFFF" d="M249.2,172.5h-3.6v-56.9h3.6V172.5z"/>
	<path fill="#FFFFFF" d="M312.8,174.3L265,123.5v48.9h-3.6v-57.7l47.8,50.4v-49.7h3.6V174.3z"/>
	<path fill="#FFFFFF" d="M376.4,174.3l-47.8-50.8v48.9H325v-57.7l47.8,50.4v-49.7h3.6V174.3z"/>
	<path fill="#FFFFFF" d="M444.3,144c0,16-13.5,29.2-29.5,29.2c-16,0-29.5-13.2-29.5-29.2c0-16,13.4-29.2,29.5-29.2
		C430.8,114.8,444.3,128,444.3,144z M388.9,144c0,14,11.7,25.8,25.9,25.8c14.1,0,25.9-11.8,25.9-25.8c0-14-11.8-25.8-25.9-25.8
		C400.6,118.2,388.9,130,388.9,144z"/>
	<path fill="#FFFFFF" d="M467.9,164.1h0.2l16.8-48.6h3.6l-20.7,58.8l-20.5-58.8h3.6L467.9,164.1z"/>
	<path fill="#FFFFFF" d="M500.6,153.7l-7.6,18.7h-3.7l23.8-58.8l23.8,58.8h-3.7l-7.6-18.7H500.6z M513.1,122.9l-11.2,27.5h22.3
		L513.1,122.9z"/>
	<path fill="#FFFFFF" d="M556.1,172.5h-3.6v-53.5h-14.7v-3.4h33.1v3.4h-14.7V172.5z"/>
	<path fill="#FFFFFF" d="M581,172.5h-3.6v-56.9h3.6V172.5z"/>
	<path fill="#FFFFFF" d="M648.8,144c0,16-13.5,29.2-29.5,29.2S589.8,160,589.8,144c0-16,13.4-29.2,29.5-29.2
		C635.3,114.8,648.8,128,648.8,144z M593.4,144c0,14,11.7,25.8,25.9,25.8c14.1,0,25.9-11.8,25.9-25.8c0-14-11.8-25.8-25.9-25.8
		C605.1,118.2,593.4,130,593.4,144z"/>
	<path fill="#FFFFFF" d="M709,174.3l-47.8-50.8v48.9h-3.6v-57.7l47.8,50.4v-49.7h3.6V174.3z"/>
	<path fill="#FFFFFF" d="M490.6,253.6c-6.3,5.4-13.6,10.6-21,10.6c-8.4,0-14.9-6.8-14.9-15c0-10,9.5-15.8,17.3-20.7
		c-2.6-3.7-6-7.5-6-12.5c0-6,5.1-10.9,11.1-10.9c5.9,0,10.3,4.8,10.3,10.6c0,6.5-5.1,10.3-10.6,14l14,19.2l7.2-7.9l2.8,1.5l-7.9,9.1
		l8.7,11.5h-3.9L490.6,253.6z M470.5,233.7c-5.4,3.5-12.2,7.8-12.2,15c0,6.4,4.6,12,11.2,12c6.6,0,13.6-5.7,18.9-10l-14.3-19.4
		L470.5,233.7z M469.7,216.4c0,4.1,3,7.1,5.1,10.5c4-3.2,9.1-5.6,9.1-11.3c0-3.8-3-7.1-6.9-7.1C472.8,208.5,469.7,212.4,469.7,216.4
		z"/>
	<path fill="#FFFFFF" d="M387.5,306c-2.6-4.1-6.2-6.7-11.5-6.7c-6.1,0-10.7,4.9-10.7,10.9c0,6,5.7,8.5,10.3,10.6l10.9,5.7
		c4.3,2.7,6.5,6.2,6.5,11.3c0,9.4-8.6,16.5-17.8,16.5c-7.9,0-14.1-4.9-16.8-12.2l3.2-1.4c2.4,6,6.9,10.3,13.7,10.3
		c7.5,0,14-5.9,14-13.4c0-6.4-6.6-9.1-11.5-11.5l-10.3-5.4c-3.8-2.3-5.9-5.7-5.9-10.2c0-8.5,6-14.4,14.6-14.4c5.7,0,11.2,3.1,13.9,8
		L387.5,306z"/>
	<path fill="#FFFFFF" d="M405.8,300.1v20.7h22.9v3.4h-22.9v26h23.5v3.4h-27.2v-56.9h27.2v3.4H405.8z"/>
	<path fill="#FFFFFF" d="M468.6,353.6h-4.2l-18.6-26.9h-1.8v26.9h-3.6v-56.9h7.1c4.6,0,9.1,0.1,13,2.9c4.1,2.9,5.7,7.4,5.7,12.2
		c0,9.9-6.9,15-16.3,14.9L468.6,353.6z M448.7,323.3c3.5,0,7.1-0.2,10-2.6c2.7-2.2,4-5.6,4-9c0-4.2-2-8.5-6-10.3
		c-3-1.4-6.9-1.3-10.2-1.3h-2.3v23.2H448.7z"/>
	<path fill="#FFFFFF" d="M492.1,345.3h0.2l16.8-48.6h3.6L492,355.5l-20.5-58.8h3.6L492.1,345.3z"/>
	<path fill="#FFFFFF" d="M522.8,353.6h-3.6v-56.9h3.6V353.6z"/>
	<path fill="#FFFFFF" d="M580.2,308.3c-4.4-5.4-12.1-9-19.1-9c-14.2,0-25.9,12.2-25.9,26.2c0,6.6,2.9,12.9,7.6,17.6
		c4.8,4.5,11.5,7.8,18.3,7.8c6.6,0,14.9-3.5,19.1-8.7v5c-5.4,4.5-11.9,7.1-18.9,7.1c-15.8,0-29.7-13.2-29.7-29.1
		c0-16.2,13.6-29.3,29.7-29.3c6.9,0,13.8,2.7,18.9,7.4V308.3z"/>
	<path fill="#FFFFFF" d="M594.4,300.1v20.7h22.9v3.4h-22.9v26H618v3.4h-27.2v-56.9H618v3.4H594.4z"/>
	<path fill="#FFFFFF" d="M210,390.7v20.7h18.8v3.4H210v29.4h-3.6v-56.9h22.9v3.4H210z"/>
	<path fill="#FFFFFF" d="M295.5,415.7c0,16-13.5,29.2-29.5,29.2s-29.5-13.2-29.5-29.2c0-16,13.4-29.2,29.5-29.2
		C282,386.5,295.5,399.7,295.5,415.7z M240.1,415.7c0,14,11.7,25.8,25.9,25.8c14.1,0,25.9-11.8,25.9-25.8c0-14-11.8-25.8-25.9-25.8
		C251.8,389.9,240.1,401.7,240.1,415.7z"/>
	<path fill="#FFFFFF" d="M332.5,444.2h-4.2l-18.6-26.9h-1.8v26.9h-3.6v-56.9h7.1c4.6,0,9.1,0.1,13,2.9c4.1,2.9,5.7,7.4,5.7,12.2
		c0,9.9-6.9,15-16.3,14.9L332.5,444.2z M312.5,413.8c3.5,0,7.1-0.2,10-2.6c2.7-2.2,4-5.6,4-9c0-4.2-2-8.5-6-10.3
		c-3-1.4-6.9-1.3-10.2-1.3h-2.3v23.2H312.5z"/>
	<path fill="#FFFFFF" d="M368.2,390.7v20.7h22.9v3.4h-22.9v26h23.5v3.4h-27.2v-56.9h27.2v3.4H368.2z"/>
	<path fill="#FFFFFF" d="M417.6,435.9h0.2l16.8-48.6h3.6l-20.7,58.8l-20.5-58.8h3.6L417.6,435.9z"/>
	<path fill="#FFFFFF" d="M448.3,390.7v20.7h22.9v3.4h-22.9v26h23.5v3.4h-27.2v-56.9h27.2v3.4H448.3z"/>
	<path fill="#FFFFFF" d="M511.1,444.2H507l-18.6-26.9h-1.8v26.9H483v-56.9h7.1c4.6,0,9.1,0.1,13,2.9c4.1,2.9,5.7,7.4,5.7,12.2
		c0,9.9-6.9,15-16.3,14.9L511.1,444.2z M491.2,413.8c3.5,0,7.1-0.2,10-2.6c2.7-2.2,4-5.6,4-9c0-4.2-2-8.5-6-10.3
		c-3-1.4-6.9-1.3-10.2-1.3h-2.3v23.2H491.2z"/>
	<path fill="#FFFFFF" d="M514,387.3h4l16.8,28.8l16.8-28.8h4l-18.9,32.6v24.3h-3.6v-24.3L514,387.3z"/>
	<path fill="#FFFFFF" d="M562,444.2v-56.9h11.4c4.3,0,8.4,0.3,11.8,3.3c3.5,3,4.8,7.2,4.8,11.8c0,5.2-2,9.1-6.6,11.6
		c7,1.4,11.8,7.1,11.8,14.3c0,4.6-1.7,8.8-5.3,11.8c-4,3.4-8.2,4.1-13.3,4.1H562z M565.6,413.1h6.3c3.8,0,6.9,0.2,10.2-2.1
		c3.2-2.3,4.2-5.2,4.2-9.1c0-3.7-1.4-7.3-4.7-9.4c-2.9-1.8-6.4-1.8-9.7-1.8h-6.3V413.1z M565.6,440.8h8.7c4,0,8.2,0.2,11.6-2.2
		c3.5-2.3,5.6-5.9,5.6-10.1c0-4.2-2-8.3-5.9-10.2c-3.5-1.7-8.2-1.8-12-1.8h-8V440.8z"/>
	<path fill="#FFFFFF" d="M660.2,415.7c0,16-13.5,29.2-29.5,29.2s-29.5-13.2-29.5-29.2c0-16,13.4-29.2,29.5-29.2
		C646.7,386.5,660.2,399.7,660.2,415.7z M604.9,415.7c0,14,11.7,25.8,25.9,25.8c14.1,0,25.9-11.8,25.9-25.8
		c0-14-11.8-25.8-25.9-25.8C616.6,389.9,604.9,401.7,604.9,415.7z"/>
	<path fill="#FFFFFF" d="M669.1,387.3h10.3c8.3,0,14.9,1.4,21.1,7.2c6,5.6,9.1,13.2,9.1,21.4c0,7.8-3,15.3-8.8,20.8
		c-6.3,6-13,7.5-21.4,7.5h-10.3V387.3z M679.3,440.8c7.5,0,13.7-1.5,19.1-6.9c4.8-4.8,7.5-11.3,7.5-18.1c0-7.2-2.9-14-8.2-18.9
		c-5.4-4.9-11.3-6.2-18.4-6.2h-6.6v50.1H679.3z"/>
	<path fill="#FFFFFF" d="M712.5,387.3h4l16.8,28.8l16.8-28.8h4L735,419.9v24.3h-3.6v-24.3L712.5,387.3z"/>
</g>
</svg>
