<?xml version="1.0" encoding="utf-8"?>
<!-- Generator: Adobe Illustrator 19.0.0, SVG Export Plug-In . SVG Version: 6.00 Build 0)  -->
<svg version="1.1" id="图层_1" xmlns="http://www.w3.org/2000/svg" xmlns:xlink="http://www.w3.org/1999/xlink" x="0px" y="0px"
	 viewBox="0 0 750 1334" style="enable-background:new 0 0 750 1334;" xml:space="preserve">
<style type="text/css">
	.st0{fill:#040000;}
	.st1{fill:none;stroke:#040000;stroke-width:2;stroke-miterlimit:10;}
</style>
<g id="XMLID_319_">
	<path id="XMLID_320_" class="st0" d="M279.2,1051.4l-0.5,3.2h4.6l-0.5,3.8h-4.6l-1.5,10.5h-12.5l-1.1-3.8h8.4l0.9-6.7h-26.5
		l0.5-3.8H273l0.5-3.2H247l0.5-3.8h15.6l0.5-3.4h-13.8l0.5-3.8h13.8l0.3-2.1H260l-1.3-5h-2l-2.9,5h-6.1l6.2-10.9h6.1l-1.2,2.1h9.8
		l-0.5,3.8h-3.6l1.1,4.1h1.4l5.7-10h6.2l-1.2,2.1h9.3l-0.5,3.8H283l1.3,5h-5.8l-1.3-5h-1.7l-2.9,5h-2.5l-0.3,2.1h14.1l-0.5,3.8
		h-14.1l-0.5,3.4h15.6l-0.5,3.8H279.2z M255.7,1067.9l-4.8-8.2h6.9l4.8,8.2H255.7z"/>
	<path id="XMLID_323_" class="st0" d="M293.2,1068.9h-5.9l5.8-13.2h5.9L293.2,1068.9z M297.8,1039.1h2.3l-2.1,14.8h-5.6l1.8-13h-3.5
		l7.9-13.4h6L297.8,1039.1z M315.6,1068.9h-17.3l2-14h5.7l-1.4,10.2h13.2L315.6,1068.9z M305.5,1051.8h-5.9l5.6-11.8h5.9
		L305.5,1051.8z M323.3,1038.8l0.6-4.2h-4.5l-2.7,19.3h-8.1l-1.1-3.8h4l2.2-15.6h-3.4l-2.7,4.2h-5.7l6.9-11.3h6l-2.1,3.3H330l-1.1,8
		H323.3z M309.3,1063.3l-0.6-8.3h5.8l0.7,8.3H309.3z M319.4,1068.9l-1.3-13.4h5.9l1.3,13.4H319.4z M322.4,1051.8l-1.9-11.8h5.9
		l1.9,11.8H322.4z"/>
	<path id="XMLID_332_" class="st0" d="M341.8,1068.9l-1-3.8h4.7l0.8-5.6h-7.2l-1.3,9.4h-5.5l4.2-30.1h18.3l-4.2,30.1H341.8z
		 M335.9,1036.1l0.5-3.8h7.4l-1.9-4.8h7l1.8,4.8h8.5l3.2-4.8h7l-3.2,4.8h7.4l-0.5,3.8H335.9z M347.5,1051h-7.2l-0.7,4.7h7.2
		L347.5,1051z M348.7,1042.5h-7.2l-0.7,4.8h7.2L348.7,1042.5z M354.6,1068.9l-1.1-3.8h8.9l3.8-27.4h5.6l-4.4,31.1H354.6z
		 M354.5,1061.7l3.1-21.9h5.5l-3.1,21.9H354.5z"/>
	<path id="XMLID_339_" class="st0" d="M381.3,1068.3h-6.6l10-14.9h6.4L381.3,1068.3z M398.7,1051.4l-2.5,17.6h-5.4l2.5-17.6h-15.9
		l0.5-3.8h15.9l1.7-12H380l0.5-3.8H396l0.6-4.3h5.4l-0.6,4.3h15.4l-0.5,3.8h-15.4l-1.7,12h16.3l-0.5,3.8H398.7z M385.6,1045.9
		l-4.7-8.7h6.5l4.8,8.7H385.6z M406,1068.3l-5.6-14.9h6.4l5.8,14.9H406z M408,1045.9h-6.6l7.2-8.7h6.5L408,1045.9z"/>
	<path id="XMLID_345_" class="st0" d="M429.9,1049.6l-2.7,19.3h-7.5l-1.1-3.8h3.7l1.6-11.2l-4.2,3l0.7-5l4.2-3l1.5-10.9h-3.7
		l0.5-3.8h3.7l0.9-6.7h5.4l-0.9,6.7h2.6l-0.5,3.8h-2.6l-0.9,6.6l3.2-2.3l-0.7,5L429.9,1049.6z M436.1,1068.9h-6.1l8.3-9.6l4.5-31.8
		h5.3l-4.6,33L436.1,1068.9z M434.8,1061.3h-4l4.5-15.3h3.9L434.8,1061.3z M435.6,1044l-0.5-13.9h4.1l0.5,13.9H435.6z M455,1068.9
		h-11l5.8-41.4h5.3l-5.3,37.6h7.3L455,1068.9z M453.3,1061.3l-0.1-15.3h4.1l0.1,15.3H453.3z M457.7,1044h-4.2l4.2-13.9h4.2
		L457.7,1044z"/>
	<path id="XMLID_353_" class="st0" d="M498.4,1068.9h-8.9l-0.4-6.6l-4,4.9h-5.6l-0.2,1.7h-16.9l2.9-20.8h4.9l2.9-20.6h5.7l-1.1,7.6
		h7.2l-0.5,3.8h-7.2l-1.3,9.2h6.3l-2.6,18.3l9.1-10.9l-0.6-11.5l-5.5,0.8l0.5-3.8l4.8-0.7l-0.7-12.7h5.7l0.6,11.9l10.2-1.5l-0.5,3.8
		l-9.5,1.4l0.3,5.8l3-3.5h6.2l-8.8,10.5l0.5,9.2h5.6L498.4,1068.9z M476.1,1051.8h-5.7l-1.9,13.3h5.7L476.1,1051.8z M497.8,1036.5
		l-1.1-7.7h5.2l1.1,7.7H497.8z"/>
</g>
<g id="XMLID_177_">
	<g id="XMLID_296_">
		<path id="XMLID_297_" class="st0" d="M311,287.1h-5l5.9-14.1h5L311,287.1z M312.6,271.5l-2.8-9.3h5.1l2.8,9.3H312.6z M314.1,260.9
			l-3.2-8.6h5.1l3.2,8.6H314.1z M340.1,257.3h-6.7l-0.8,5.3h9l-0.4,3.2h-9l-0.7,5.1h7.7l-2.3,16.2h-20.3l2.3-16.2h7.7l0.7-5.1h-9
			l0.4-3.2h9l0.8-5.3h-8l0.4-3.2h15.7l1.2-1.8h5.4L340.1,257.3z M333.9,274.1h-10.7l-1.4,9.8h10.7L333.9,274.1z"/>
		<path id="XMLID_303_" class="st0" d="M366.5,287.1l-0.9-3.2h4.3l3.2-22.5h-3.7l-2.6,18.5l-3.9,7.2h-5.1l0.5-0.9h-3.7l-0.1-2.5
			l-1.5,2.5h-9.4l0.4-3.2l5.9-15.3h-4.1l0.4-3.2h16l-0.4,3.2h-7l-5.9,15.3h5.7l-0.4-10.7h4.6l0.4,12.3l3.1-5.6l2.5-17.6h-2.8
			l0.4-3.2h2.8l0.8-5.9h4.7l-0.8,5.9h8.4l-4.1,28.8H366.5z M348,256.9l0.4-3.2h14.5l-0.4,3.2H348z"/>
		<path id="XMLID_306_" class="st0" d="M380.2,286.2l4.6-32.6H397l-4.6,32.6H380.2z M390,270.9h-3.1l-1.7,12h3.1L390,270.9z
			 M392,256.7h-3.1l-1.5,11h3.1L392,256.7z M412.5,262.5l-3.4,24.5h-10.3l-1.1-3.2h6.9l3-21.3h-11.1l0.4-3.2h11.1l1-7.1h4.8l-1,7.1
			h2.2l-0.4,3.2H412.5z M398.6,280.4l-1.5-15.4h4.9l1.5,15.4H398.6z"/>
		<path id="XMLID_312_" class="st0" d="M416.6,287.1l3.9-27.8h4.8l-3.9,27.8H416.6z M425.5,257.9l-4.5-5.6h6l4.5,5.6H425.5z
			 M425.1,281.4l3.1-21.7h15.3l-3.1,21.7H425.1z M436.8,272.1h-5.6l-0.9,6.1h5.6L436.8,272.1z M432.5,287.1l-0.9-3.2h11.2l3.9-28
			h-15.3l0.5-3.2H452l-4.8,34.4H432.5z M438.1,262.8h-5.6l-0.9,6.1h5.6L438.1,262.8z"/>
	</g>
	<g id="XMLID_276_">
		<path id="XMLID_277_" class="st0" d="M311,510.4h-5l5.9-14.1h5L311,510.4z M312.6,494.9l-2.8-9.3h5.1l2.8,9.3H312.6z M314.1,484.3
			l-3.2-8.6h5.1l3.2,8.6H314.1z M340.1,480.7h-6.7l-0.8,5.3h9l-0.4,3.2h-9l-0.7,5.1h7.7l-2.3,16.2h-20.3l2.3-16.2h7.7l0.7-5.1h-9
			l0.4-3.2h9l0.8-5.3h-8l0.4-3.2h15.7l1.2-1.8h5.4L340.1,480.7z M333.9,497.4h-10.7l-1.4,9.8h10.7L333.9,497.4z"/>
		<path id="XMLID_283_" class="st0" d="M366.5,510.4l-0.9-3.2h4.3l3.2-22.5h-3.7l-2.6,18.5l-3.9,7.2h-5.1l0.5-0.9h-3.7l-0.1-2.5
			l-1.5,2.5h-9.4l0.4-3.2l5.9-15.3h-4.1l0.4-3.2h16l-0.4,3.2h-7l-5.9,15.3h5.7l-0.4-10.7h4.6l0.4,12.3l3.1-5.6l2.5-17.6h-2.8
			l0.4-3.2h2.8l0.8-5.9h4.7l-0.8,5.9h8.4l-4.1,28.8H366.5z M348,480.3l0.4-3.2h14.5l-0.4,3.2H348z"/>
		<path id="XMLID_286_" class="st0" d="M379.6,510l0.5-3.6l3.1-1.3l2.6-18.3h-2.6l0.4-3.2h2.6l1.1-8h4.7l-1.1,8h2.6l-0.4,3.2h-2.6
			l-2.3,16.2l3-1.3l-0.5,3.6L379.6,510z M410.4,510.5h-19.4l2.8-19.6l-2.6,0.9l0.4-3.2l2.6-0.9l1.3-9h4.6l-1,7.3l2.9-1.1l1.3-9.2
			h4.6l-1.1,7.5l7.8-2.8l-3.2,22.7h-5.7l-0.9-3.2h2.5l2.1-14.6l-3,1.1l-2.6,18.8h-4.6l2.4-17.1l-2.9,1l-2.5,18.1h16.2L410.4,510.5z"
			/>
		<path id="XMLID_289_" class="st0" d="M420.7,510.4h-5l3.8-8.7h5L420.7,510.4z M437.5,482.2l-0.7,5h12.6l-1.8,12.7h-28.4l1.8-12.7
			h11l1.6-11.5h4.8l-0.5,3.4H452l-0.4,3.1H437.5z M444.1,490.4h-18.8l-0.9,6.3h18.8L444.1,490.4z M426.9,510.4l-1.4-8.7h5.1l1.4,8.7
			H426.9z M434.9,510.4l-1.4-8.7h5.1l1.4,8.7H434.9z M443,510.4l-1.4-8.7h5.1l1.4,8.7H443z"/>
	</g>
	<g id="XMLID_241_">
		<path id="XMLID_242_" class="st0" d="M249.2,346.4c0.1-1.1,0.3-1.6,0.7-2.4c0.8-1.5,2-3,4.1-4.6l0.9-0.8c3.7-3,5.1-4.9,5.1-6.8
			c0-2-1.6-3.5-3.8-3.5c-2.4,0-3.9,1.5-3.9,4l-2.5-0.3c0.3-3.8,2.6-5.8,6.5-5.8c3.7,0,6.3,2.3,6.3,5.6c0,2.4-1.4,4.5-4.9,7.5l-2,1.7
			c-1.7,1.4-2.3,2.1-2.9,3h9.9v2.4H249.2z"/>
		<path id="XMLID_244_" class="st0" d="M272.4,346.8c-2.6,0-4.6-1.4-5.6-3.9c-0.6-1.6-0.9-3.6-0.9-6.4c0-6.7,2.2-10.2,6.5-10.2
			s6.5,3.4,6.5,10.2S276.7,346.8,272.4,346.8z M275.6,330.8c-0.6-1.5-1.8-2.5-3.3-2.5c-2.7,0-4,2.6-4,8.2c0,2.5,0.3,4.4,0.7,5.7
			c0.6,1.6,1.8,2.5,3.3,2.5s2.7-1,3.3-2.5c0.5-1.3,0.7-3.2,0.7-5.7S276.1,332.2,275.6,330.8z"/>
		<path id="XMLID_247_" class="st0" d="M288.9,346.4v-15.7c-0.8,0.8-1.6,1.3-3.1,2.1c-0.9,0.5-1.1,0.6-1.9,0.9v-2.4
			c2.7-1.2,4.9-3.2,5.8-5h1.6v20.1H288.9z"/>
		<path id="XMLID_249_" class="st0" d="M305.2,346.8c-2.5,0-4.8-1.4-5.9-3.6c-0.8-1.6-1.1-3.4-1.1-6.1c0-7,2.5-10.8,7.2-10.8
			c3.2,0,5.3,1.8,5.7,5l-2.5,0.2c-0.3-2.1-1.4-3.2-3.2-3.2c-1.8,0-3.2,1-3.9,2.7c-0.5,1.3-0.8,3.1-0.8,4.6v0.4
			c0.4-0.7,0.7-1,1.2-1.4c1-0.8,2.4-1.3,3.7-1.3c3.4,0,5.9,2.8,5.9,6.5C311.5,343.9,308.9,346.8,305.2,346.8z M305.1,335.6
			c-2.3,0-4,1.8-4,4.3c0,2.7,1.8,4.8,4.1,4.8c2.2,0,3.8-2,3.8-4.7C309,337.4,307.4,335.6,305.1,335.6z"/>
		<path id="XMLID_252_" class="st0" d="M329.1,340.2l0,8.3l-1.8,0l0-8.3l-11.3,0v-1.7l3.6,0v-6.8h7.7v-4.1h-6.3c-1,2-2,4-3.8,5.7
			l-1.5-1.2c2.2-2,3.7-4.5,4.5-7.2l0.6-2.1c0.5,0.2,1,0.4,1.5,0.7c-0.1,0.8-0.4,1.5-0.6,2.3h16.2v1.7l-8.8,0l0,4.1h7.3l0,1.7l-7.3,0
			v5.1h9.9v1.7L329.1,340.2z M321.3,333.4v5.1h5.9l0-5.1L321.3,333.4z"/>
		<path id="XMLID_255_" class="st0" d="M350.8,337.6c-1.1,3-1.8,6.2-2,8.8h-2.5c0.1-2.7,0.9-6.3,2.3-9.7c0.9-2.1,1.8-3.7,3.1-5.7
			c0.7-1,1-1.3,1.6-2.1h-9.8v-2.4h13v1.9C354,331.1,352.1,334,350.8,337.6z"/>
		<path id="XMLID_257_" class="st0" d="M378.6,347.6l-0.7,0.1l-3.3,0.1c-0.2-0.6-0.4-1.2-0.7-1.9l3.5,0.1c0.6,0,0.7-0.3,0.9-0.6v-6
			h-10.2c-0.3,0.9-0.5,1.9-0.9,2.8c-1,2.5-3.1,4.6-5.2,6.4l-1.2-1.7c0.3-0.4,0.8-0.7,1.2-1c2.6-2.2,4.2-5.1,4.2-8.4l0-13.1h13.9
			l0,21.4C380.1,346.6,379.4,347.5,378.6,347.6z M378.2,326l-10.1,0l0,5l10,0V326z M378.3,332.6h-10c-0.1,1.8,0.1,3.3-0.1,5h10.1
			V332.6z"/>
		<path id="XMLID_261_" class="st0" d="M395.1,346.4v-15.7c-0.8,0.8-1.6,1.3-3.1,2.1c-0.9,0.5-1.1,0.6-1.9,0.9v-2.4
			c2.7-1.2,4.9-3.2,5.8-5h1.6v20.1H395.1z"/>
		<path id="XMLID_263_" class="st0" d="M423.4,347.4v-2.9h-11.9v2.9h-1.8v-22h15.5v22H423.4z M423.4,327.1h-11.9v6.9h11.9V327.1z
			 M423.4,335.6h-11.9v7.3h11.9V335.6z"/>
		<path id="XMLID_267_" class="st0" d="M433.9,346.9v-1.8l10.9,0v-4.5H437v-1.8l7.8,0v-2.7h1.9v2.7h7.8l0,1.7l-7.8,0v4.5h10.9v1.7
			H433.9z M456.4,336.1l-0.7,0.5c-0.6-0.8-1.2-1.8-2-2.5l-7.9,0.8l-5.5,0.6c-1.1,0.1-2.1,0.3-3.1,0.5c-0.5-0.6-0.7-1.2-1.2-1.8
			c2.9-2.2,5.8-4.7,7.9-7.8l-9.2,0v-1.8h22v1.7l-10.6,0l-0.8,1.1c-1.8,2.4-3.8,4.4-6.2,6.3l0.1,0.1l11.6-1.2
			c0.4-0.1,0.8-0.1,1.2-0.2c-1.2-1.1-2.1-1.8-3.2-2.4l1.3-1.1c1.9,1,3.4,2.3,4.8,3.8c0.9,0.9,1.5,1.7,2.2,2.7
			C456.9,335.6,456.6,335.9,456.4,336.1z"/>
		<path id="XMLID_270_" class="st0" d="M468.4,346.8c-3.5,0-6-2.2-6.4-5.6l2.5-0.3c0.2,0.9,0.3,1.2,0.5,1.8c0.6,1.4,1.9,2.2,3.4,2.2
			c2.3,0,4.1-1.8,4.1-4.2c0-2.2-1.6-3.9-3.9-3.9c-0.5,0-0.9,0.1-1.7,0.3l0.3-2.2c0.2,0,0.3,0,0.4,0c2.4,0,4.1-1.4,4.1-3.4
			c0-1.8-1.4-3.1-3.3-3.1c-2,0-3.3,1.3-3.6,3.6l-2.5-0.4c0.6-3.3,2.8-5.2,6-5.2c3.3,0,5.9,2.3,5.9,5.2c0,1.8-1,3.2-2.7,4
			c0.9,0.3,1.2,0.4,1.8,0.8c1.3,0.9,2,2.4,2,4.2C475.1,344.1,472.2,346.8,468.4,346.8z"/>
		<path id="XMLID_272_" class="st0" d="M497.1,347.4v-2.9h-11.9v2.9h-1.8v-22h15.5v22H497.1z M497.1,327.1h-11.9v6.9h11.9V327.1z
			 M497.1,335.6h-11.9v7.3h11.9V335.6z"/>
	</g>
	<g id="XMLID_127_">
		<path id="XMLID_129_" class="st0" d="M307.6,578.2c-7.8-4.1-10.6-7.9-12.1-12.7h-4.1l0,10.8c1.9-0.8,3.8-1.7,5.9-2.6v1.7
			c-1.5,0.7-5,2.3-7.1,3.4l-0.8-1.5c0.1-0.3,0.3-0.3,0.3-0.5v-11.2h-5.9v-1.6h5.9v-10.8h1.7v8.1c4.1-1.4,8.8-3.9,12-6.4l1.2,1.3
			c-3.5,2.6-8.3,5-13.2,6.7v1h16.5l0,1.6h-10.8c1.5,5.1,6.8,9.2,11.6,11.2L307.6,578.2z"/>
		<path id="XMLID_131_" class="st0" d="M313.3,572.9l-1.5-1.4c1.3-0.4,2.5-1,3.8-1.5v-7.7h-3v-1.7l3.1,0v-6.1h1.7l0,6.1h2.5l0,1.7
			h-2.5v6.8l3-1.2v1.8L313.3,572.9z M336.3,577.4c-0.3,0.6-0.8,0.8-1.3,0.8c-0.9,0-1.6-0.7-2.2-1.4c-0.7-0.9-1.2-1.9-1.6-3
			c-1.4,1.5-3.1,3-4.7,4.1l-1.4-1.2c2-1.3,4.1-3,5.5-4.9c-1-3.8-1.2-7.6-1.5-11.5h-6l0,3.8h5.3c-0.1,2.4-0.2,5.3-0.7,7.9
			c-0.1,0.7-0.5,1.5-1.3,1.7c-1,0.2-1.9-0.1-2.7-0.4l-0.3-1.9c0.7,0.3,1.4,0.7,2.3,0.7c0.5-0.3,0.5-0.9,0.6-1.4
			c0.2-1.7,0.4-3.3,0.4-5h-3.6c-0.1,3.6-0.4,7.6-2.3,10.6c-0.5,0.8-1,1.5-1.6,2.3l-1.6-1.2c1.9-2.2,3.2-4.8,3.4-7.7l0.2-3.3v-7.8
			l7.7,0c-0.1-1.6-0.1-4.1-0.1-5.5h1.6c0.1,1.6,0,3.1,0.1,5.5l5.9,0v1.7l-5.7,0c0,1.7,0.3,3.5,0.4,5.1c0.1,1.5,0.3,3,0.6,4.4
			c1.4-2.4,2.1-4.9,2.5-7.6l1.5,0.6c-0.4,2.6-1.1,4.9-2.2,7.2c-0.3,0.6-0.9,1.4-1.2,2.1c0.5,1.5,1.1,3,2.3,4.1
			c0.3,0.1,0.4-0.1,0.5-0.3c0.3-1.2,0.5-2.4,0.6-3.7l1.7,0.6C337.2,574.6,336.9,576.1,336.3,577.4z M334.8,557.8
			c-0.9-1.3-2.1-2.3-3.6-2.8l1.2-1.1c0.9,0.3,1.7,0.8,2.5,1.4c0.4,0.4,0.8,0.8,1.1,1.2L334.8,557.8z"/>
		<path id="XMLID_135_" class="st0" d="M348,577.8c-0.7,0.4-1.7,0.3-2.5,0.3l-0.6-1.7l1.9,0.2c0.2-0.1,0.4-0.2,0.5-0.4v-7h-2.9
			c-0.1,3.5-1,6.7-2.4,9.4l-1.4-1.2c1-2.1,1.7-4.6,2.1-7.2v-15.8h6.3v22C348.9,576.9,348.5,577.4,348,577.8z M347.2,555.9h-3l0,4.8
			h3V555.9z M347.2,562.3h-3c0.1,2.1,0,3.8,0,5h2.9V562.3z M363.5,573c-0.7,0.1-1.5,0.1-2.3,0.1l-0.7-1.7l2,0.2
			c0.3-0.1,0.4-0.2,0.5-0.5v-14.7h-3.1v22l-1.7,0V575c-0.4,0.1-0.6,0.4-1,0.6l-0.6-1.4c-2.2,0.3-4.3,0.6-6.4,1.2
			c-0.3-0.6-0.6-1.1-0.8-1.7c1-1.8,2.9-4.9,3.3-8h-3.3l0-1.6h3.2v-3.8H350v-1.6h2.7v-4.9h1.7v4.9h2.7v1.6h-2.7v3.8h3.3v1.7h-4.6
			l1.5,0.8c-1.1,2.7-2.4,5.9-3,6.7c1.3-0.1,2.7-0.4,4-0.6c-0.4-0.5-0.9-1-1.3-1.5l1.4-0.9c1.1,0.9,1.8,1.8,2.6,3l0.1-18.5h6.5v16.7
			C364.6,572.1,364.2,572.8,363.5,573z"/>
		<path id="XMLID_140_" class="st0" d="M393.7,557.1h-12.1l0,21.6h-1.8l0-21.6h-9.7v-1.7l23.6,0L393.7,557.1z M390.3,569.4
			c-2.1-2.9-5.1-4.7-6.9-5.7l0.8-1.3c1.6,0.6,3.1,1.6,4.5,2.7c1,0.9,2,1.9,2.9,2.9L390.3,569.4z"/>
		<path id="XMLID_143_" class="st0" d="M407.4,577.8c-0.1-0.8,0-1.6,0-2.4l-5.3,0l0,2.3h-1.8v-19.5h2.6c0.6-1.1,1.4-3.1,1.8-5
			l1.6,0.6c-0.4,1.7-0.9,3.1-1.7,4.4h4.6v19.5L407.4,577.8z M407.2,559.9H402v6l5.2,0V559.9z M407.3,567.6l-5.3,0v6.3l5.3,0
			L407.3,567.6z M420.5,575.9c-0.3,1-1,2.1-2,2.3c-1.2,0.2-2.3-0.2-3.4-0.4c-0.5-0.1-1.1-0.3-1.6-0.5c-0.1-0.6-0.2-1.3-0.3-1.9
			c1.3,0.5,2.7,0.9,4.1,1.1c0.6,0.1,1-0.2,1.3-0.6c0.4-0.8,0.7-1.9,0.9-2.8c0.6-2.7,0.7-5.6,0.9-8.5c0.1-1.7,0.1-3.4,0.2-5.2l-6.5,0
			c-0.8,2.2-1.8,4.1-3.2,5.9c-0.5-0.3-1.1-0.7-1.6-1c0.1-0.2,0.3-0.3,0.4-0.5c2.4-3.2,3.6-6.9,4.3-10.8c0.5,0.2,1.2,0.3,1.7,0.5
			c-0.1,0.9-0.4,1.9-0.6,2.8c-0.1,0.5-0.3,1-0.4,1.5h7.8C422.2,563.7,422.3,570.3,420.5,575.9z M416.9,571.3l-0.2,0.1
			c-0.9-2.4-2.2-4.5-3.8-6.5l1.4-0.9h0.1c1.7,2,3,4.2,3.9,6.6C417.8,570.8,417.4,571.1,416.9,571.3z"/>
		<path id="XMLID_149_" class="st0" d="M429.3,567l-1.4-1.3c2.9-2.2,7.1-6.7,8.1-10.9l1.5,1C436.6,559.6,431.6,565.5,429.3,567z
			 M447.6,577.8c-0.3-1-0.7-2.2-1.2-3.1l-11.1,1.7c-1.1,0.2-2.1,0.4-3.2,0.6l-1.3-1.9c3.1-2.5,6.3-7.9,6.9-12.6l1.8,0.7
			c-0.9,5.3-3.9,9.5-6.2,11.7c2.3-0.2,9.6-1.3,12.3-1.8c-0.9-1.4-1.8-2.7-3.1-3.8l1.7-0.8c2.4,2.3,4.1,5.3,5.1,8.4L447.6,577.8z
			 M450.2,567c-3.3-1.9-7.1-7.9-8.3-11.3l1.5-0.9c1.5,4.1,4.3,8.3,8.1,10.9L450.2,567z"/>
		<path id="XMLID_153_" class="st0" d="M465.8,570.7c-1.1-1.3-2.4-2.6-3.8-3.5v11.4h-1.8v-11.3c-1,1.2-2.3,2.2-3.5,3.2l-1.3-1.5
			c2.1-1.4,3.7-3.1,5.5-5l0.1-0.2c0.9-1,1.5-2.1,2.2-3.3H456l0-1.7l9.1,0l0,1.6c-0.7,1.8-1.8,3.4-3.1,4.9v1.5l1.1-1
			c1.5,0.8,2.9,2.2,3.9,3.5C466.7,569.9,466.2,570.3,465.8,570.7z M460.9,558.4c-0.6-1.6-1.5-3.1-2.7-4.5l1.4-0.8
			c1.3,1.3,2.3,2.7,2.9,4.3C462,557.8,461.4,558.2,460.9,558.4z M463.9,576.7l0-1.7l7.4,0v-10.8h-6.2v-1.7h6.2v-9.2l1.9,0l0,9.2h6.6
			l0,1.7h-6.6V575h7.6v1.7L463.9,576.7z"/>
		<path id="XMLID_157_" class="st0" d="M487.4,579.1l-0.7-1c1.3-0.6,1.5-1.7,1.5-2.9h-1.4v-2.8h2.8v2.8
			C489.7,576.1,489.7,578.1,487.4,579.1z"/>
		<path id="XMLID_159_" class="st0" d="M135.4,617.8v-3.1l-6.5,1.8l-1.1-1.8l7.6-1.8v-8.8h-7.1v-1.8h7.1v-7.7h1.8v23.2H135.4z
			 M150.4,615.5c-0.4,1-1.3,1.6-2.5,1.6h-3.5c-2,0-2.8-1.3-2.8-2.3v-20.2h1.8v9c2.4-0.6,4.6-1.7,6.4-3.5l1.5,1.1
			c-2.2,2.2-5,3.3-7.8,4.1v8.8c0,0.6,0.3,1.1,1,1.1h3.5c1.1-0.2,1.1-1.2,1.5-2.4c0.1-0.5,0.2-1.8,0.3-2.4l1.8,0.6
			C151.3,612.7,151,614.1,150.4,615.5z"/>
		<path id="XMLID_162_" class="st0" d="M157.1,616.7l-1.1-1.6c2.3-0.7,4.5-1.8,6.4-3.4c0.6-0.4,1.1-1,1.5-1.5l1.2,1.2
			C162.9,614.1,160.1,615.7,157.1,616.7z M156.8,598.1v-1.7h11.6c-1-1.2-2.3-2-3.6-2.6l1.3-1.1c1.6,0.6,2.9,1.7,4.1,3l-0.7,0.7h10.8
			v1.7H156.8z M169.8,608.9v7.7c0,1.1-0.9,2-2.1,2h-3l-0.6-1.9c1.1,0.1,2.1,0.2,3.2,0.1c0.4,0,0.8-0.1,0.8-0.6v-7.3h-7.3v-8.1h15.6
			v8.1H169.8z M174.5,602.4h-12v4.8h12V602.4z M180,616.6c-0.6-0.5-1.3-1.3-1.9-1.7c-1.9-1.4-3.7-2.7-5.9-3.2l1.1-1.3
			c2.2,0.6,4.3,1.7,6,3.2l1.9,1.7L180,616.6z"/>
		<path id="XMLID_168_" class="st0" d="M195.2,616.9c-6.2,0-10.2-4.1-10.2-10.3c0-4.1,1.8-7.6,4.7-9.2c1.5-0.8,3.3-1.2,5.3-1.2
			c3.5,0,6.1,1.3,7.4,3.7c0.4,0.8,0.5,1.1,0.8,2.2l-2.4,0.7c-0.3-1-0.4-1.3-0.7-1.8c-0.9-1.6-2.8-2.5-5.1-2.5c-4.6,0-7.3,3-7.3,8
			c0,5.1,2.7,8.1,7.4,8.1c1.5,0,2.7-0.3,4.3-1.1c0.8-0.4,1-0.5,1.5-0.9v-3.8H195v-2.4h8.5v7.4C200.8,616,198.2,616.9,195.2,616.9z"
			/>
		<path id="XMLID_170_" class="st0" d="M214.1,616.9c-2.5,0-4.8-1.4-5.9-3.6c-0.8-1.6-1.1-3.4-1.1-6.1c0-7,2.5-10.8,7.2-10.8
			c3.2,0,5.3,1.8,5.7,5l-2.5,0.2c-0.3-2.1-1.4-3.2-3.2-3.2c-1.8,0-3.2,1-3.9,2.7c-0.5,1.3-0.8,3.1-0.8,4.6v0.4
			c0.4-0.7,0.7-1,1.2-1.4c1-0.8,2.4-1.3,3.7-1.3c3.4,0,5.9,2.8,5.9,6.5C220.4,614.1,217.8,616.9,214.1,616.9z M213.9,605.8
			c-2.3,0-4,1.8-4,4.3c0,2.7,1.8,4.8,4.1,4.8c2.2,0,3.8-2,3.8-4.7C217.8,607.6,216.3,605.8,213.9,605.8z"/>
		<path id="XMLID_173_" class="st0" d="M224.6,616.7l-1.1-1.6c2.3-0.7,4.5-1.8,6.4-3.4c0.6-0.4,1.1-1,1.5-1.5l1.2,1.2
			C230.3,614.1,227.5,615.7,224.6,616.7z M224.2,598.1v-1.7h11.6c-1-1.2-2.3-2-3.6-2.6l1.3-1.1c1.6,0.6,2.9,1.7,4.1,3l-0.7,0.7h10.8
			v1.7H224.2z M237.3,608.9v7.7c0,1.1-0.9,2-2.1,2h-3l-0.6-1.9c1.1,0.1,2.1,0.2,3.2,0.1c0.4,0,0.8-0.1,0.8-0.6v-7.3h-7.3v-8.1h15.6
			v8.1H237.3z M242,602.4h-12v4.8h12V602.4z M247.5,616.6c-0.6-0.5-1.3-1.3-1.9-1.7c-1.9-1.4-3.7-2.7-5.9-3.2l1.1-1.3
			c2.2,0.6,4.3,1.7,6,3.2l1.9,1.7L247.5,616.6z"/>
		<path id="XMLID_188_" class="st0" d="M276.7,617.6c-0.2,0.4-0.8,0.6-1.1,0.6c-1,0.3-1.6-0.6-2.1-1.3l-1.3-2.3
			c-1,1.4-2.5,2.8-3.9,3.8l-1.4-1.1c0.8-0.4,1-0.7,1.8-1.2l-7.3-0.1v-12h7.7v1.7h-2.2v1.6h2.2v5h-2.1v2h2.6v0.9
			c0.7-0.6,1.4-1.5,1.9-2.4c-0.9-3.3-1.3-6.9-1.5-10.5h-9.9v9.6c0,2.4-0.7,4.8-1.9,6.8l-1.7-0.8c1.5-2.2,2-4.6,1.9-7.4h-1.7
			c-0.1,2.6-0.7,5-2.6,6.9l-1.4-1c2.1-1.8,2.2-4.2,2.4-5.8h-2.2l0-1.7h5.6v-2.2h-4.5v-5.2h1.7v3.6h2.7v-4.4h11.5v-1.4H269v-1.8h-8.6
			v2h-1.7v-2h-5.9v-1.6h5.9v-2.7h1.7v2.7h8.6v-2.7h1.8v2.6h5.9v1.7h-5.9v1.1h0.8v2h1.7c-0.3-0.7-0.6-1.5-1.1-2.1l1.7-0.5
			c0.4,0.8,0.8,1.7,1,2.5h1.4v1.7h-4.5c0,3,0.4,5.4,0.8,8.1l0.1,0.3c0.7-2.1,1.2-4.3,1.3-7l1.5,0.5c-0.3,3.1-0.9,6-2.2,8.6
			c0.5,1.5,1,2.5,1.9,3.5c0.2,0,0.3-0.4,0.3-0.5l0.3-2.4l1.5,0.6C277.3,615.4,277.1,616.5,276.7,617.6z M265.2,605.7h-2v1.7h2V605.7
			z M267.3,608.9h-4.2v1.7h4.2V608.9z M265.2,612.3h-2v2h2V612.3z"/>
		<path id="XMLID_193_" class="st0" d="M282.2,597.1l0-1.7h10.8c-0.5-0.6-1.3-1.4-2-1.8l1.7-0.7c0.8,0.8,1.5,1.6,2,2.6h10.5l0,1.7
			L282.2,597.1z M302.6,617.9c-1,0.2-2.2,0.1-3.3,0.1c-0.2-0.6-0.4-1.1-0.6-1.8c1,0,2.1,0.2,3.1,0c0.5-0.3,0.5-0.9,0.5-1.4v-7.4
			h-17.2v11.1l-1.8,0l0-12.8l20.9,0v9.9C304.1,616.6,303.4,617.6,302.6,617.9z M286.8,604.2l0-5.3h13.7v5.3H286.8z M288.2,614.8
			v-5.7h10.9l0,5.7H288.2z M298.8,600.5h-10.3l0,2.1l10.3,0V600.5z M297.4,610.8h-7.5v2.4h7.5L297.4,610.8z"/>
		<path id="XMLID_200_" class="st0" d="M334.8,617.7h-12.1c-3.9,0-6.3-2.5-7.9-3.9c-1.3,1.3-2.5,2.4-4.2,3.7l-1.1-1.3
			c1.4-1.1,2.7-2.1,4.3-3.9v-7.6H310v-1.7h5.6v9.3c1.8,1.9,3.9,3.7,7.1,3.8c3.3,0.2,7.4,0.1,12.8-0.2L334.8,617.7z M314.3,599.6
			c-0.7-1.5-2.1-3.1-3.5-4.3l1.4-1.1c1.4,1.2,2.4,2.5,3.6,4.3L314.3,599.6z M326.5,598.1v2.2h5.9v6.3h-5.9v8.5h-1.7v-8.5
			c-1.1,3.1-4.1,5.3-6.7,7.1l-1.1-1.4c2.6-1.5,5-3.8,5.9-5.8h-3.9v-6.3h5.9v-2.2h-7.4v-1.6h7.4v-3.1h1.7v3.1h7.3v1.6H326.5z
			 M324.8,601.9h-4.2v3.1h4.2V601.9z M330.7,601.9h-4.2v3.1h4.2V601.9z M333,613.4c-1.8-1.9-3.8-3.7-6.2-4.5l1.1-1.2
			c2.4,0.8,4.5,2.6,6.2,4.4L333,613.4z"/>
		<path id="XMLID_207_" class="st0" d="M340.6,607l-1.4-1.3c2.9-2.2,7.1-6.7,8.1-10.9l1.5,1C348,599.6,342.9,605.5,340.6,607z
			 M359,617.8c-0.3-1-0.7-2.2-1.2-3.1l-11.1,1.7c-1.1,0.2-2.1,0.4-3.2,0.6l-1.3-1.9c3.1-2.5,6.3-7.9,6.9-12.6l1.8,0.7
			c-0.9,5.3-3.9,9.5-6.2,11.7c2.3-0.2,9.6-1.3,12.3-1.8c-0.9-1.4-1.8-2.7-3.1-3.8l1.7-0.8c2.4,2.3,4.1,5.3,5.1,8.4L359,617.8z
			 M361.5,607c-3.3-1.9-7.1-7.9-8.3-11.3l1.5-0.9c1.5,4.1,4.3,8.3,8.1,10.9L361.5,607z"/>
		<path id="XMLID_211_" class="st0" d="M391.3,608.7c-2.5-0.9-4.9-2.3-7-4.2c-2.4,1.9-4.9,3.2-7.6,4.3l-0.5-0.8h-2.8v5.4
			c1.2-0.5,2.6-1.1,3.8-1.5l0,1.8c-1.3,0.6-2.6,1.1-3.8,1.7l-5.8,2.4h-0.1l-1.3-1.5c0.6-0.2,1.1-0.3,1.7-0.6l0-10.1h1.7v9.4l1.9-0.8
			l0-11.4h-3.3v-8.1l7.8,0l0,8.1h-2.8v3.6l2.8,0l0,0.8c2.4-0.9,4.9-2.1,7-3.8c-1.1-1.2-1.8-2.6-2.6-3.9c-0.8,1.3-1.6,2.7-2.7,3.7
			l-1.5-1c2.6-2.5,3.7-5.8,4.7-9c0.5,0.2,1.2,0.4,1.7,0.6c-0.1,0.7-0.6,1.5-0.8,2.2l7.7,0v1.5c-1.1,3.2-2.5,4.5-4.1,6
			c1.7,1.6,4.7,3.1,7.1,3.9L391.3,608.7z M374.4,596.2H370v4.8l4.4,0L374.4,596.2z M388.8,618.5H387v-1.7l-6,0v1.8h-1.8l0-10.6h9.5
			L388.8,618.5z M387,609.7l-5.9,0.1v5.5h5.9V609.7z M381.5,597.4c0.7,1.7,1.7,3.1,2.9,4.6c1.1-1,2.7-3,3.2-4.6H381.5z"/>
		<path id="XMLID_217_" class="st0" d="M402.2,616.9c-3.6,0-6.1-2.2-6.4-5.6l2.6-0.2c0.4,2.4,1.8,3.8,3.9,3.8c2.4,0,4.2-2.1,4.2-4.9
			c0-2.7-1.7-4.5-4.3-4.5c-1.5,0-2.9,0.7-3.6,1.9l-2.3-0.3l2-10.3h9.9v2.4h-8l-1.1,5.4c1.2-0.8,2.5-1.3,3.8-1.3
			c3.6,0,6.2,2.8,6.2,6.5C409,613.9,406.1,616.9,402.2,616.9z"/>
		<path id="XMLID_219_" class="st0" d="M418.4,616.9c-3.5,0-6-2.2-6.4-5.6l2.5-0.3c0.2,0.9,0.3,1.2,0.5,1.8c0.6,1.4,1.9,2.2,3.4,2.2
			c2.3,0,4.1-1.8,4.1-4.2c0-2.2-1.6-3.9-3.9-3.9c-0.5,0-0.9,0.1-1.7,0.3l0.3-2.2c0.2,0,0.3,0,0.4,0c2.4,0,4.1-1.4,4.1-3.4
			c0-1.8-1.4-3.1-3.3-3.1c-2,0-3.3,1.3-3.6,3.6l-2.5-0.4c0.6-3.3,2.8-5.2,6-5.2c3.3,0,5.9,2.3,5.9,5.2c0,1.8-1,3.2-2.7,4
			c0.9,0.3,1.2,0.4,1.8,0.8c1.3,0.9,2,2.4,2,4.2C425.1,614.3,422.2,616.9,418.4,616.9z"/>
		<path id="XMLID_221_" class="st0" d="M438,605.1c-0.3,0.9-0.5,1.8-0.8,2.7h11.6c-0.5,2.9-1.1,6-2.2,8.7c-0.5,1.2-1.4,1.8-2.6,1.8
			c-1,0-1.9-0.3-2.8-0.5l-0.7-2.2c1,0.4,2.1,0.8,3.2,1c0.4,0.1,0.9-0.2,1.1-0.6c1.1-2.2,1.4-4,1.9-6.5h-11.9l1.3-4.3h-7.6v-1.6h24.1
			v1.6H438z M433.1,601.8v-7.6h14.8v7.6H433.1z M446.1,595.8h-11.3v4.4h11.3V595.8z"/>
		<path id="XMLID_225_" class="st0" d="M466.1,604.6c-0.3,1.1-0.8,2.1-1.3,3.1c-1.5,2.7-4.1,5.3-6.7,7.1l-1.3-1.3
			c2.2-1.4,4.4-3.3,5.8-5.5c1.7-2,2.3-5,2.6-6.5h-6.7v-1.7l8.7,0C467,601.6,466.6,603,466.1,604.6z M480.8,614.6
			c-4.8-2.1-8.7-7.4-10.4-12.1l-0.1,13.7c0,0.9-0.5,2.2-1.8,2.4h-3.4c-0.2-0.6-0.4-1.3-0.6-1.9c1.1,0.1,2.1,0.1,3.2,0.1
			c0.6,0,0.8-0.4,0.9-0.8l0-22.7h1.8v5.2c0.6,1.8,1.5,3.7,2.4,5.4c0.6-0.2,1.2-0.7,1.7-1.1c1.5-1.2,2.6-2.5,3.8-4.1l1.6,0.8
			c-0.4,0.7-1,1.4-1.6,2.1c-1.4,1.5-2.9,2.8-4.6,3.8c0.3,0.7,0.9,1.5,1.4,2.1c1.9,2.4,4.2,4.5,7,5.5L480.8,614.6z"/>
		<path id="XMLID_228_" class="st0" d="M509,618.4c-6.1-2.5-8.3-6-10.1-10.6h-0.7c-1.6,5-6.9,9.5-11.4,10.6l-1.2-1.4
			c5.2-1.7,9.4-5.4,10.8-9.2h-10.4v-1.6h10.8c0.3-1.8,0.1-3.8,0.1-5.5h-9.2v-1.6h6.9c-0.7-1.3-2.1-3.4-3.6-5.3l1.4-0.7
			c1.7,1.8,3,4,3.9,5.6l-0.6,0.3l3.8,0.1c1.2-1.8,2.5-3.8,3.2-6c0.6,0.2,1.1,0.5,1.6,0.8c-0.6,1.6-1.9,4.1-2.9,5.3h7.1v1.6h-9.8
			c-0.1,1.9,0,3.7-0.2,5.5h11.6c0.1,0.5,0,1.1,0,1.6h-9.3c1.2,2.9,3.1,6.5,9.4,9.3L509,618.4z"/>
		<path id="XMLID_230_" class="st0" d="M538.5,618.2c-7.8-4.1-10.6-7.9-12.1-12.7h-4.1l0,10.8c1.9-0.8,3.8-1.7,5.9-2.6v1.7
			c-1.5,0.7-5,2.3-7.1,3.4l-0.8-1.5c0.1-0.3,0.3-0.3,0.3-0.5v-11.2h-5.9v-1.6h5.9v-10.8h1.7v8.1c4.1-1.4,8.8-3.9,12-6.4l1.2,1.3
			c-3.5,2.6-8.3,5-13.2,6.7v1h16.5l0,1.6H528c1.5,5.1,6.8,9.2,11.6,11.2L538.5,618.2z"/>
		<path id="XMLID_232_" class="st0" d="M544.2,612.9l-1.5-1.4c1.3-0.4,2.5-1,3.8-1.5v-7.7h-3v-1.7l3.1,0v-6.1h1.7l0,6.1h2.5l0,1.7
			h-2.5v6.8l3-1.2v1.8L544.2,612.9z M567.2,617.4c-0.3,0.6-0.8,0.8-1.3,0.8c-0.9,0-1.6-0.7-2.2-1.4c-0.7-0.9-1.2-1.9-1.6-3
			c-1.4,1.5-3.1,3-4.7,4.1l-1.4-1.2c2-1.3,4.1-3,5.5-4.9c-1-3.8-1.2-7.6-1.5-11.5h-6l0,3.8h5.3c-0.1,2.4-0.2,5.3-0.7,7.9
			c-0.1,0.7-0.5,1.5-1.3,1.7c-1,0.2-1.9-0.1-2.7-0.4l-0.3-1.9c0.7,0.3,1.4,0.7,2.3,0.7c0.5-0.3,0.5-0.9,0.6-1.4
			c0.2-1.7,0.4-3.3,0.4-5H554c-0.1,3.6-0.4,7.6-2.3,10.6c-0.5,0.8-1,1.5-1.6,2.3l-1.6-1.2c1.9-2.2,3.2-4.8,3.4-7.7l0.2-3.3v-7.8
			l7.7,0c-0.1-1.6-0.1-4.1-0.1-5.5h1.6c0.1,1.6,0,3.1,0.1,5.5l5.9,0v1.7l-5.7,0c0,1.7,0.3,3.5,0.4,5.1c0.1,1.5,0.3,3,0.6,4.4
			c1.4-2.4,2.1-4.9,2.5-7.6l1.5,0.6c-0.4,2.6-1.1,4.9-2.2,7.2c-0.3,0.6-0.9,1.4-1.2,2.1c0.5,1.5,1.1,3,2.3,4.1
			c0.3,0.1,0.4-0.1,0.5-0.3c0.3-1.2,0.5-2.4,0.6-3.7l1.7,0.6C568.1,614.6,567.8,616.1,567.2,617.4z M565.7,597.8
			c-0.9-1.3-2.1-2.3-3.6-2.8l1.2-1.1c0.9,0.3,1.7,0.8,2.5,1.4c0.4,0.4,0.8,0.8,1.1,1.2L565.7,597.8z"/>
		<path id="XMLID_236_" class="st0" d="M592.8,618.3v-1.8h-18.6l0.1-8.9h1.9v7.2h7.4V605h-8.6v-9.3l1.9,0v7.5h6.7l0-10.3h2v10.3h6.8
			v-7.5h1.9v9.2h-8.7v9.8l7.3,0v-7.1l1.9,0v10.6H592.8z"/>
		<path id="XMLID_238_" class="st0" d="M620.4,616.5l0-2.4h-14.3l0,2.4h-1.8l0-19.5l17.9,0l0,19.5H620.4z M606.1,598.7l-0.1,13.7
			h14.3l0-13.7H606.1z"/>
	</g>
	<line id="XMLID_181_" class="st1" x1="284.4" y1="268.3" x2="206.1" y2="268.3"/>
	<line id="XMLID_180_" class="st1" x1="554.6" y1="268.3" x2="477.2" y2="268.3"/>
	<line id="XMLID_179_" class="st1" x1="284.4" y1="493.9" x2="206.1" y2="493.9"/>
	<line id="XMLID_178_" class="st1" x1="554.6" y1="493.9" x2="477.2" y2="493.9"/>
</g>
<g id="XMLID_59_">
	<path id="XMLID_63_" d="M314.4,921.7l1.8-5.6l-4.7,3.4l-4.8-3.4l1.8,5.6l-4.7,3.5l5.9,0l1.9,5.6l1.8-5.6l5.9-0.1L314.4,921.7z
		 M442.7,916.1l-4.7,3.4l-4.8-3.4l1.8,5.6l-4.7,3.5l5.9,0l1.9,5.6l1.8-5.6l5.9-0.1l-4.7-3.5L442.7,916.1z M375,750
		c-63.8,0-115.8,51.9-115.8,115.8c0,63.8,51.9,115.8,115.8,115.8s115.8-51.9,115.8-115.8C490.8,801.9,438.8,750,375,750z M375,977.9
		c-61.9,0-112.2-50.3-112.2-112.2c0-61.9,50.3-112.2,112.2-112.2c61.9,0,112.2,50.3,112.2,112.2C487.2,927.6,436.9,977.9,375,977.9z
		 M375,760c-58.3,0-105.8,47.4-105.8,105.8c0,58.3,47.4,105.8,105.8,105.8c58.3,0,105.8-47.4,105.8-105.8
		C480.8,807.4,433.3,760,375,760z M375,968c-56.4,0-102.2-45.9-102.2-102.2S318.6,763.5,375,763.5c56.4,0,102.2,45.9,102.2,102.2
		S431.4,968,375,968z M388.5,784.2l1.5,0.3c1.1,0.2,2.1,0.3,2.9,0.2c0.9-0.1,1.6-0.3,2.2-0.7c0.6-0.4,1.1-0.9,1.5-1.7
		c0.4-0.7,0.7-1.6,0.9-2.7c0.4-2.2,0.2-3.9-0.7-5c-0.9-1.1-2.4-1.9-4.6-2.3l-5.1-1l-3.9,20.7l3.5,0.7L388.5,784.2z M390.3,775
		l1.4,0.3c0.6,0.1,1,0.3,1.4,0.4c0.4,0.2,0.7,0.4,0.8,0.7c0.2,0.3,0.3,0.6,0.3,1.1c0,0.4,0,0.9-0.1,1.6c-0.1,0.6-0.3,1.1-0.4,1.5
		c-0.2,0.4-0.4,0.7-0.7,0.9c-0.3,0.2-0.6,0.3-1,0.3c-0.4,0-0.9,0-1.5-0.1l-1.4-0.3L390.3,775z M373.3,788.9c-0.6,0-1.1-0.2-1.5-0.8
		c-0.4-0.5-0.7-1.3-0.8-2.4l-3.4,0.6c0.1,0.8,0.2,1.5,0.5,2.2c0.3,0.7,0.6,1.3,1.1,1.8c0.5,0.5,1,0.9,1.7,1.2
		c0.7,0.3,1.4,0.4,2.3,0.4c0.8,0,1.6-0.2,2.3-0.4c0.7-0.2,1.3-0.6,1.8-1.1c0.5-0.5,0.9-1,1.1-1.7c0.3-0.7,0.4-1.5,0.4-2.3
		c0-1-0.2-1.8-0.6-2.5c-0.4-0.7-0.8-1.4-1.4-2c-0.6-0.6-1.2-1.2-1.8-1.7c-0.7-0.5-1.3-1-1.8-1.5c-0.6-0.5-1-1-1.4-1.5
		c-0.4-0.5-0.6-1-0.6-1.6c0-0.7,0.1-1.2,0.4-1.5c0.3-0.4,0.7-0.6,1.3-0.6c0.2,0,0.4,0,0.6,0.1c0.2,0.1,0.4,0.2,0.6,0.4
		c0.2,0.2,0.3,0.4,0.5,0.7c0.1,0.3,0.2,0.7,0.3,1.1l3.4-0.5c-0.1-0.7-0.3-1.4-0.6-2c-0.3-0.6-0.6-1.1-1.1-1.6
		c-0.4-0.4-0.9-0.8-1.5-1c-0.6-0.2-1.3-0.4-2-0.3c-1.8,0-3.2,0.5-4.1,1.4c-1,0.9-1.4,2.2-1.4,3.9c0,1,0.2,1.9,0.6,2.6
		c0.4,0.7,0.8,1.4,1.4,2c0.6,0.6,1.2,1.1,1.8,1.6c0.7,0.5,1.3,1,1.8,1.5c0.6,0.5,1,1,1.4,1.5c0.4,0.5,0.6,1.2,0.6,1.9
		c0,0.6-0.2,1.1-0.6,1.4C374.4,788.7,373.9,788.9,373.3,788.9z M448.9,861.7l4.7,0.5l0.1,4l-4.6,0.7l0.1,3.5l21-4.3l-0.1-4.5
		l-21.1-3.4L448.9,861.7z M465.8,863.9L465.8,863.9l-9,1.7l-0.1-2.9L465.8,863.9z M448.8,843.2c-0.6,0.4-1.1,0.8-1.4,1.4
		c-0.4,0.6-0.6,1.2-0.7,1.9c-0.1,0.7-0.1,1.6,0.1,2.5c0.2,0.9,0.5,1.6,0.9,2.2c0.4,0.6,0.9,1.1,1.5,1.4c0.6,0.3,1.2,0.5,1.9,0.6
		c0.7,0.1,1.4,0,2.1-0.2l2.4-0.6l-0.8-3.5l-2.5,0.6c-0.7,0.2-1.2,0.2-1.6,0c-0.4-0.2-0.7-0.6-0.9-1.2c-0.2-0.7-0.1-1.3,0.2-1.6
		c0.3-0.4,0.8-0.6,1.6-0.8l10.4-2.4c0.8-0.2,1.4-0.2,1.8,0c0.4,0.2,0.7,0.6,0.9,1.3c0.1,0.5,0,0.9-0.3,1.3c-0.3,0.4-0.9,0.7-1.8,1
		l-1.6,0.4l0.8,3.5l1.5-0.4c0.8-0.2,1.5-0.5,2.1-0.8c0.6-0.4,1.2-0.8,1.6-1.4c0.4-0.5,0.7-1.2,0.8-1.9c0.1-0.7,0.1-1.5-0.1-2.4
		c-0.2-0.9-0.5-1.7-1-2.3c-0.4-0.6-0.9-1.1-1.5-1.4c-0.6-0.3-1.2-0.5-1.9-0.6c-0.7-0.1-1.4,0-2.1,0.2l-10.6,2.5
		C450,842.6,449.4,842.9,448.8,843.2z M348,796.9l-0.9-4.6l3.7-1.3l2.2,4.2l3.3-1.2l-10.6-18.6l-4.2,1.5l3.3,21.1L348,796.9z
		 M344.9,780.1l4.3,8l-2.7,1L344.9,780.1L344.9,780.1z M446.7,815.6c-0.5,0.7-0.8,1.4-1,2.2c-0.2,0.8-0.4,1.6-0.5,2.4
		c-0.1,0.8-0.2,1.6-0.4,2.3c-0.1,0.7-0.4,1.4-0.6,2c-0.3,0.6-0.7,1.1-1.3,1.4c-0.5,0.3-1,0.4-1.5,0.3c-0.5-0.2-0.9-0.5-1.2-1
		c-0.3-0.5-0.3-1-0.1-1.7c0.2-0.6,0.8-1.2,1.7-1.9l-2.2-2.7c-0.7,0.5-1.2,1-1.7,1.6c-0.5,0.6-0.8,1.2-1,1.9
		c-0.2,0.7-0.3,1.4-0.2,2.1c0.1,0.7,0.3,1.4,0.8,2.2c0.4,0.7,0.9,1.3,1.5,1.8c0.6,0.5,1.2,0.8,1.8,1c0.6,0.2,1.3,0.2,2.1,0.1
		c0.7-0.1,1.4-0.4,2.2-0.9c0.8-0.5,1.4-1.1,1.9-1.8c0.4-0.7,0.8-1.4,1-2.2c0.2-0.8,0.4-1.6,0.5-2.4c0.1-0.8,0.2-1.6,0.4-2.3
		c0.1-0.7,0.3-1.4,0.6-1.9c0.2-0.6,0.6-1,1.1-1.3c0.6-0.3,1.1-0.5,1.5-0.4c0.5,0.1,0.9,0.4,1.2,0.9c0.1,0.2,0.2,0.4,0.2,0.6
		c0,0.2,0,0.5,0,0.7c-0.1,0.2-0.2,0.5-0.4,0.8c-0.2,0.3-0.5,0.5-0.8,0.8l2.1,2.7c0.6-0.5,1.1-1,1.5-1.5c0.4-0.6,0.7-1.1,0.8-1.7
		c0.2-0.6,0.2-1.2,0.1-1.8c-0.1-0.6-0.3-1.3-0.7-1.9c-0.9-1.5-2.1-2.5-3.3-2.8c-1.3-0.3-2.6-0.1-4.1,0.8
		C447.8,814.3,447.2,814.9,446.7,815.6z M402,796.7c0.5,0.5,1.2,1,2.1,1.4c0.9,0.4,1.7,0.6,2.4,0.6c0.7,0,1.4-0.1,2-0.4
		c0.6-0.3,1.1-0.7,1.6-1.2c0.5-0.5,0.8-1.1,1.1-1.8l4.2-10c0.3-0.7,0.5-1.4,0.5-2.1c0.1-0.7,0-1.4-0.3-2c-0.2-0.6-0.6-1.2-1.1-1.7
		c-0.5-0.5-1.2-1-2.1-1.4c-0.9-0.4-1.7-0.6-2.4-0.6c-0.7,0-1.4,0.1-2,0.4c-0.6,0.3-1.1,0.7-1.6,1.2c-0.5,0.5-0.8,1.1-1.1,1.8
		l-4.2,10c-0.3,0.7-0.5,1.4-0.5,2.1c-0.1,0.7,0,1.4,0.3,2S401.5,796.2,402,796.7z M404.5,792.3l4.2-9.8c0.3-0.7,0.7-1.2,1.1-1.5
		c0.4-0.2,0.9-0.2,1.6,0.1c0.7,0.3,1.1,0.7,1.2,1.1c0.1,0.5,0,1-0.3,1.8l-4.2,9.8c-0.3,0.7-0.7,1.2-1.1,1.5
		c-0.4,0.2-0.9,0.2-1.6-0.1c-0.7-0.3-1.1-0.7-1.2-1.1C404.1,793.6,404.2,793,404.5,792.3z M428.1,814.3l2.4,2.7l13.2-12.1l2.4,2.6
		l2.3-2.1l-7.2-7.8l-2.3,2.1l2.4,2.6L428.1,814.3z M416.8,804.7l5.1-7c0.3,0.2,0.5,0.4,0.8,0.6c0.3,0.2,0.5,0.3,0.7,0.4l-3,8.6
		l3,2.2l3.1-9.5c0.3,0.1,0.7,0.1,1.1,0.1c0.4,0,0.8-0.1,1.3-0.3c0.4-0.2,0.9-0.5,1.4-0.9c0.5-0.4,1-0.9,1.5-1.6
		c1.3-1.8,1.8-3.4,1.5-4.8c-0.3-1.4-1.2-2.7-2.9-3.8l-4.1-3l-12.3,17.1L416.8,804.7z M427.4,790.1l1,0.8c0.8,0.6,1.2,1.2,1.3,1.8
		c0.1,0.6-0.3,1.4-1,2.4c-0.4,0.5-0.7,0.9-1,1.2c-0.3,0.3-0.6,0.5-1,0.5c-0.3,0.1-0.6,0.1-1-0.1c-0.3-0.1-0.7-0.3-1.1-0.6l-1-0.8
		L427.4,790.1z M320.6,815.3l-2.5-2l-4,5.1l-4.8-3.9l2.9-3.6l-2.5-2l-2.9,3.6l-4.2-3.4l3.8-4.7l-2.5-2l-6,7.6l16.4,13.1L320.6,815.3
		z M442.4,896.1l7.8,3.7l-0.7,1.4c-0.5,1-0.8,1.9-1,2.8c-0.2,0.8-0.1,1.6,0.1,2.3c0.2,0.7,0.6,1.3,1.2,1.9c0.6,0.6,1.4,1.1,2.4,1.6
		c2,1,3.7,1.2,5,0.6c1.3-0.5,2.5-1.8,3.4-3.8l2.3-4.7l-19-9.1L442.4,896.1z M451.8,903.8c0.1-0.4,0.3-0.9,0.5-1.4l0.6-1.3l5.8,2.8
		l-0.6,1.3c-0.3,0.5-0.5,0.9-0.8,1.3c-0.3,0.3-0.6,0.5-0.9,0.6c-0.3,0.1-0.7,0.1-1.1,0c-0.4-0.1-0.9-0.3-1.5-0.5
		c-0.6-0.3-1-0.5-1.3-0.8c-0.3-0.3-0.6-0.6-0.7-0.9C451.7,904.6,451.7,904.2,451.8,903.8z M303.2,883.6l-20.3,5.6l1,3.5l20.3-5.6
		L303.2,883.6z M309.3,899.8l-11.9,5.7l0-0.1l9.9-9.8l-1.4-2.8l-19,9.1l1.4,2.9l10.9-5.2l0,0.1l-9,9.2l1.4,3l19-9.1L309.3,899.8z
		 M448.2,877l16.1,3.4l0,0.1l-16.8-0.2l-0.4,1.7l15.4,6.6l0,0.1l-16.1-3.4l-0.7,3.1l20.6,4.4l1-4.6l-11.5-5.1l0-0.1l12.6,0.1l1-4.6
		l-20.6-4.4L448.2,877z M301.9,853.1l-3.1-0.3l-0.6,6.4l-6.1-0.6l0.5-4.6l-3.1-0.3l-0.5,4.6l-5.4-0.5l0.6-6l-3.1-0.3l-1,9.6
		l20.9,2.1L301.9,853.1z M301.5,874.4l-7.4,0.8l-2.4-1l0-0.1l9.4-3.9l-0.4-3.7l-12.7,5.7l-8.2-3.1l0.4,3.6l8.1,3l0,0.1l-7.7,0.8
		l0.4,3.6l20.9-2.1L301.5,874.4z M328,808.6c1.5-1.2,2.2-2.5,2.3-3.9c0.1-1.4-0.5-3-1.9-4.6l-5.3-6.5c-1.4-1.7-2.8-2.6-4.2-2.8
		c-1.4-0.2-2.8,0.3-4.3,1.5l-4.2,3.4l13.3,16.3L328,808.6z M316.2,794.9c0.8-0.6,1.4-0.9,2-0.8c0.6,0.1,1.2,0.6,1.9,1.4l5.8,7.1
		c0.7,0.9,1,1.6,1,2.1c0,0.6-0.4,1.2-1.2,1.8l-1,0.8l-9.6-11.7L316.2,794.9z M306.5,837.6l-14.8-7.1l0-0.1l16.2,4.1l0.8-1.6
		l-13.4-10l0-0.1l14.8,7.1l1.4-2.8l-19-9.1l-2,4.3l10,7.6l0,0.1l-12.2-3l-2,4.3l19,9.1L306.5,837.6z M340.7,800.2l-10.2-18.4
		l-3.2,1.8l10.2,18.4L340.7,800.2z M358.9,909.6c0.5,0.8,1.6,1.1,2.4,0.6c0.8-0.5,1.1-1.6,0.6-2.4l-3.2-5.3
		c-0.3-0.5-0.9-0.8-1.5-0.8c-0.6,0-1.2,0.3-1.5,0.8l-28.1,44.6c-0.5,0.8-0.3,1.9,0.6,2.4c0.3,0.2,0.6,0.3,0.9,0.3
		c0.6,0,1.2-0.3,1.5-0.8l26.5-42.2L358.9,909.6z M416.9,918.4c15.5-12.4,25.5-31.4,25.5-52.7c0-37.1-30.2-67.4-67.4-67.4
		c-37.1,0-67.4,30.2-67.4,67.4c0,21.5,10.1,40.7,25.9,53l-15,22.5c-0.5,0.8-0.3,1.9,0.5,2.5c0.3,0.2,0.6,0.3,1,0.3
		c0.6,0,1.1-0.3,1.5-0.8l19.9-29.7c0.5-0.8,0.3-1.9-0.5-2.5c-0.8-0.5-1.9-0.3-2.5,0.5l-2.9,4.3c-14.8-11.7-24.3-29.8-24.3-50.1
		c0-35.2,28.6-63.8,63.8-63.8c35.2,0,63.8,28.6,63.8,63.8c0,20.1-9.3,38-23.9,49.8l-2.7-4c-0.5-0.8-1.6-1-2.5-0.5
		c-0.8,0.5-1,1.6-0.5,2.5l20.1,30c0.3,0.5,0.9,0.8,1.5,0.8c0.3,0,0.7-0.1,1-0.3c0.8-0.5,1-1.6,0.5-2.5L416.9,918.4z M376.5,896.8
		c-0.3-0.5-0.9-0.9-1.5-0.9h0c-0.6,0-1.2,0.3-1.5,0.9l-33.4,57c-0.5,0.8-0.2,1.9,0.6,2.4c0.8,0.5,1.9,0.2,2.4-0.6l31.8-54.4
		l31.7,54.5c0.3,0.6,0.9,0.9,1.5,0.9c0.3,0,0.6-0.1,0.9-0.2c0.8-0.5,1.1-1.6,0.6-2.4L376.5,896.8z M394.9,902.5
		c-0.3-0.5-0.9-0.8-1.5-0.8h0c-0.6,0-1.2,0.3-1.5,0.8l-3.2,5.3c-0.5,0.8-0.2,1.9,0.6,2.4c0.8,0.5,1.9,0.2,2.4-0.6l1.7-2.8l26.1,41.5
		c0.3,0.5,0.9,0.8,1.5,0.8c0.3,0,0.6-0.1,0.9-0.3c0.8-0.5,1.1-1.6,0.6-2.4L394.9,902.5z"/>
	<path id="XMLID_62_" d="M340.5,848.2c-3.2,4.9-4.6,10.4-2.4,13.9c3.9,6.3,13.3,3.4,19.3,0.9l55.5-23.4L358.1,854
		c-4.6,1.2-8.3,1-10.4-0.5c-5.4-4-1.3-11.9,0.2-14.3C345.2,842.2,342.6,845.1,340.5,848.2z"/>
</g>
</svg>
