<?xml version="1.0" encoding="utf-8"?>
<!-- Generator: Adobe Illustrator 18.0.0, SVG Export Plug-In . SVG Version: 6.00 Build 0)  -->
<!DOCTYPE svg PUBLIC "-//W3C//DTD SVG 1.1//EN" "http://www.w3.org/Graphics/SVG/1.1/DTD/svg11.dtd">
<svg version="1.1" id="图层_1" xmlns="http://www.w3.org/2000/svg" xmlns:xlink="http://www.w3.org/1999/xlink" x="0px" y="0px"
	 viewBox="0 0 610.5 834" enable-background="new 0 0 610.5 834" xml:space="preserve">
<g>
	<path d="M64.6,655.9v-34.4h5.5l7.2,19.7h0.1v-19.7h5.3v34.4h-5.1L70,634.4h-0.1v21.5H64.6z"/>
	<path d="M90.4,655.9v-34.4h5.9v34.4H90.4z"/>
	<path d="M103.8,655.9v-34.4h5.9v12.7h0.1l6.2-12.7h5.9l-6.4,12.8l7.2,21.6h-6l-4.8-16h-0.1l-2.1,3.8v12.2H103.8z"/>
	<path d="M126.4,655.9v-34.4h15.8v5.1h-9.9v8.9h7.6v5.1h-7.6v10.1h10.6v5.1H126.4z"/>
	<path d="M184.2,621.5v34.4H179V629H179l-5.3,26.9h-2.9l-5.3-26.9h-0.1v26.9h-5.1v-34.4h7.8l4.2,20.1h0.1l4.2-20.1H184.2z"/>
	<path d="M190.8,655.9v-34.4h15.8v5.1h-9.9v8.9h7.6v5.1h-7.6v10.1h10.6v5.1H190.8z"/>
	<path d="M213.2,621.5h8.8c3.1,0,5.4,0.8,7,2.5s2.4,4.3,2.4,7.9v13.6c0,3.6-0.8,6.2-2.4,7.9c-1.6,1.7-3.9,2.5-7,2.5h-8.8V621.5z
		 M219.1,651h2c1.6,0,2.7-0.3,3.3-1s0.9-2,0.9-3.8v-15.1c0-1.8-0.3-3.1-0.9-3.8c-0.6-0.7-1.7-1-3.3-1h-2V651z"/>
	<path d="M239,655.9v-34.4h5.9v34.4H239z"/>
	<path d="M256,655.9h-5.7l6.3-34.4h7.3l6.3,34.4h-5.7l-1-7.6h-6.5L256,655.9z M257.9,643.1h4.8l-2.3-14.8h-0.1L257.9,643.1z"/>
	<path d="M297.5,630c-0.1-0.7-0.2-1.3-0.4-1.8c-0.2-0.5-0.5-0.9-0.8-1.2s-0.6-0.5-1-0.6s-0.7-0.2-1-0.2c-1,0-1.7,0.3-2.2,0.9
		c-0.5,0.6-0.8,1.4-0.8,2.5c0,1,0.3,1.9,0.9,2.7c0.6,0.8,1.3,1.7,2.2,2.5c0.9,0.8,1.9,1.7,2.9,2.5c1,0.8,2,1.8,2.9,2.8
		c0.9,1,1.6,2.1,2.2,3.4c0.6,1.2,0.9,2.6,0.9,4.2c0,1.4-0.2,2.7-0.7,3.8c-0.5,1.1-1.1,2-1.9,2.8c-0.8,0.7-1.8,1.3-3,1.7
		c-1.2,0.4-2.4,0.6-3.8,0.6c-1.4,0-2.6-0.3-3.7-0.8c-1.1-0.5-2-1.2-2.7-2.1c-0.7-0.9-1.3-1.9-1.7-3c-0.4-1.1-0.7-2.4-0.7-3.7
		l5.6-0.8c0.1,1.7,0.5,3,1.1,3.9c0.6,0.9,1.4,1.3,2.4,1.3c1,0,1.8-0.3,2.5-0.8c0.6-0.5,1-1.3,1-2.3c0-1.1-0.3-2.2-0.9-3
		c-0.6-0.9-1.3-1.7-2.2-2.6c-0.9-0.8-1.9-1.7-2.9-2.5c-1-0.8-2-1.7-2.9-2.7c-0.9-1-1.6-2.1-2.2-3.3c-0.6-1.2-0.9-2.7-0.9-4.3
		c0-2.8,0.8-4.9,2.4-6.4c1.6-1.5,3.8-2.2,6.8-2.2c1.2,0,2.3,0.2,3.2,0.6c1,0.4,1.8,1,2.5,1.7c0.7,0.7,1.2,1.6,1.7,2.6
		c0.4,1,0.7,2.1,0.8,3.3L297.5,630z"/>
	<path d="M309.1,655.9v-34.4h8.5c3.7,0,6.3,0.8,8.1,2.3c1.7,1.6,2.6,4.2,2.6,7.8c0,1.8-0.2,3.4-0.6,4.7c-0.4,1.3-1.1,2.3-2,3.1
		c-0.9,0.8-2,1.4-3.3,1.8c-1.4,0.4-2.9,0.5-4.7,0.5H315v14.1H309.1z M315,636.9h2.3c1,0,1.8-0.1,2.4-0.2c0.7-0.2,1.2-0.4,1.6-0.9
		c0.4-0.4,0.7-1,0.8-1.6c0.2-0.7,0.2-1.5,0.2-2.5c0-1-0.1-1.9-0.2-2.5c-0.2-0.7-0.4-1.2-0.8-1.6c-0.4-0.4-0.9-0.7-1.6-0.9
		c-0.7-0.2-1.5-0.3-2.4-0.3H315V636.9z"/>
	<path d="M334.1,629.8c0-1.2,0.2-2.3,0.5-3.4s0.9-2,1.7-2.8c0.7-0.8,1.7-1.4,2.8-1.9c1.1-0.5,2.5-0.7,4-0.7s2.9,0.2,4,0.7
		c1.1,0.5,2.1,1.1,2.8,1.9c0.7,0.8,1.3,1.7,1.7,2.8c0.4,1.1,0.5,2.2,0.5,3.4v17.7c0,1.2-0.2,2.4-0.5,3.4c-0.4,1.1-0.9,2-1.7,2.8
		c-0.7,0.8-1.7,1.4-2.8,1.9c-1.1,0.5-2.5,0.7-4,0.7s-2.9-0.2-4-0.7c-1.1-0.5-2.1-1.1-2.8-1.9c-0.7-0.8-1.3-1.7-1.7-2.8
		c-0.4-1.1-0.5-2.2-0.5-3.4V629.8z M340,647.4c0,1.3,0.2,2.3,0.7,2.9c0.4,0.6,1.3,0.9,2.5,0.9s2-0.3,2.5-0.9
		c0.4-0.6,0.7-1.6,0.7-2.9V630c0-1.3-0.2-2.3-0.7-2.9c-0.4-0.6-1.3-0.9-2.5-0.9s-2,0.3-2.5,0.9s-0.7,1.6-0.7,2.9V647.4z"/>
	<path d="M365,655.9h-5.9v-34.4h8.3c3.3,0,5.8,0.8,7.5,2.3c1.7,1.6,2.5,4.2,2.5,7.8c0,1.4-0.1,2.6-0.4,3.6c-0.2,1-0.6,1.8-1,2.5
		c-0.4,0.7-0.8,1.2-1.3,1.6c-0.5,0.4-1,0.7-1.5,1l5,15.6h-6l-4.2-14.2c-0.4,0.1-0.9,0.1-1.4,0.1c-0.6,0-1.1,0-1.6,0V655.9z
		 M365,636.9h2.1c0.8,0,1.5-0.1,2-0.2c0.6-0.2,1-0.4,1.4-0.9c0.3-0.4,0.6-1,0.8-1.6c0.2-0.7,0.2-1.5,0.2-2.5c0-2-0.3-3.4-1-4.2
		c-0.7-0.7-1.8-1.1-3.4-1.1H365V636.9z"/>
	<path d="M387.5,626.6h-5.7v-5.1h17.3v5.1h-5.7v29.3h-5.9V626.6z"/>
	<path d="M414.6,630c-0.1-0.7-0.2-1.3-0.4-1.8c-0.2-0.5-0.5-0.9-0.8-1.2c-0.3-0.3-0.6-0.5-1-0.6s-0.7-0.2-1-0.2
		c-1,0-1.7,0.3-2.2,0.9c-0.5,0.6-0.8,1.4-0.8,2.5c0,1,0.3,1.9,0.9,2.7c0.6,0.8,1.3,1.7,2.2,2.5c0.9,0.8,1.9,1.7,2.9,2.5
		c1,0.8,2,1.8,2.9,2.8c0.9,1,1.6,2.1,2.2,3.4s0.9,2.6,0.9,4.2c0,1.4-0.2,2.7-0.7,3.8c-0.5,1.1-1.1,2-1.9,2.8s-1.8,1.3-3,1.7
		c-1.2,0.4-2.4,0.6-3.8,0.6s-2.6-0.3-3.7-0.8s-2-1.2-2.7-2.1c-0.7-0.9-1.3-1.9-1.7-3s-0.7-2.4-0.7-3.7l5.6-0.8
		c0.1,1.7,0.5,3,1.1,3.9s1.4,1.3,2.4,1.3c1,0,1.8-0.3,2.5-0.8s1-1.3,1-2.3c0-1.1-0.3-2.2-0.9-3c-0.6-0.9-1.3-1.7-2.2-2.6
		c-0.9-0.8-1.9-1.7-2.9-2.5c-1-0.8-2-1.7-2.9-2.7c-0.9-1-1.6-2.1-2.2-3.3c-0.6-1.2-0.9-2.7-0.9-4.3c0-2.8,0.8-4.9,2.4-6.4
		c1.6-1.5,3.8-2.2,6.8-2.2c1.2,0,2.3,0.2,3.2,0.6c1,0.4,1.8,1,2.5,1.7s1.2,1.6,1.7,2.6c0.4,1,0.7,2.1,0.8,3.3L414.6,630z"/>
	<path d="M449.8,633v-2.7c0-1.5-0.3-2.5-0.9-3.2c-0.6-0.7-1.2-1-2-1c-1.2,0-2,0.3-2.5,0.9c-0.4,0.6-0.7,1.6-0.7,2.9v17.4
		c0,1.3,0.2,2.3,0.7,2.9c0.4,0.6,1.3,0.9,2.5,0.9c1.1,0,1.8-0.3,2.2-0.9c0.4-0.6,0.6-1.5,0.6-2.6v-4.1h5.9v4c0,1.2-0.2,2.4-0.5,3.4
		c-0.4,1.1-0.9,2-1.6,2.8c-0.7,0.8-1.6,1.4-2.7,1.9c-1.1,0.5-2.4,0.7-3.9,0.7c-1.6,0-2.9-0.2-4-0.7c-1.1-0.5-2.1-1.1-2.8-1.9
		c-0.7-0.8-1.3-1.7-1.7-2.8c-0.4-1.1-0.5-2.2-0.5-3.4v-17.7c0-1.2,0.2-2.3,0.5-3.4s0.9-2,1.7-2.8c0.7-0.8,1.7-1.4,2.8-1.9
		c1.1-0.5,2.5-0.7,4-0.7c1.5,0,2.7,0.3,3.9,0.8c1.1,0.5,2,1.2,2.7,2c0.7,0.9,1.3,1.9,1.6,3c0.4,1.1,0.5,2.4,0.5,3.6v2.5H449.8z"/>
	<path d="M466.4,655.9h-5.7l6.3-34.4h7.3l6.3,34.4h-5.7l-1-7.6h-6.5L466.4,655.9z M468.3,643.1h4.8l-2.3-14.8h-0.1L468.3,643.1z"/>
	<path d="M509,621.5v34.4h-5.1V629h-0.1l-5.3,26.9h-2.9l-5.3-26.9h-0.1v26.9H485v-34.4h7.8l4.2,20.1h0.1l4.2-20.1H509z"/>
	<path d="M515.6,655.9v-34.4h8.5c3.7,0,6.3,0.8,8.1,2.3c1.7,1.6,2.6,4.2,2.6,7.8c0,1.8-0.2,3.4-0.6,4.7c-0.4,1.3-1.1,2.3-2,3.1
		c-0.9,0.8-2,1.4-3.3,1.8c-1.4,0.4-2.9,0.5-4.7,0.5h-2.6v14.1H515.6z M521.5,636.9h2.3c1,0,1.8-0.1,2.4-0.2c0.7-0.2,1.2-0.4,1.6-0.9
		c0.4-0.4,0.7-1,0.8-1.6c0.2-0.7,0.2-1.5,0.2-2.5c0-1-0.1-1.9-0.2-2.5c-0.2-0.7-0.4-1.2-0.8-1.6c-0.4-0.4-0.9-0.7-1.6-0.9
		c-0.7-0.2-1.5-0.3-2.4-0.3h-2.3V636.9z"/>
</g>
<g>
	<path d="M203.9,704.8l-0.5,3.2h4.6l-0.5,3.8h-4.6l-1.5,10.5H189l-1.1-3.8h8.4l0.9-6.7h-26.5l0.5-3.8h26.5l0.5-3.2h-26.5l0.5-3.8
		h15.6l0.5-3.4h-13.8l0.5-3.8h13.8l0.3-2.1h-4.4l-1.3-5h-2l-2.9,5h-6.1l6.2-10.9h6.1l-1.2,2.1h9.8l-0.5,3.8h-3.6l1.1,4.1h1.4l5.7-10
		h6.2l-1.2,2.1h9.3l-0.5,3.8h-3.4l1.3,5h-5.8l-1.3-5h-1.7l-2.9,5h-2.5l-0.3,2.1h14.1l-0.5,3.8H194l-0.5,3.4h15.6l-0.5,3.8H203.9z
		 M180.4,721.4l-4.8-8.2h6.9l4.8,8.2H180.4z"/>
	<path d="M217.9,722.3H212l5.8-13.2h5.9L217.9,722.3z M222.5,692.6h2.3l-2.1,14.8h-5.6l1.8-13h-3.5l7.9-13.4h6L222.5,692.6z
		 M240.3,722.3H223l2-14h5.7l-1.4,10.2h13.2L240.3,722.3z M230.2,705.3h-5.9l5.6-11.8h5.9L230.2,705.3z M248,692.2l0.6-4.2h-4.5
		l-2.7,19.3h-8.1l-1.1-3.8h4l2.2-15.6H235l-2.7,4.2h-5.7l6.9-11.3h6l-2.1,3.3h17.3l-1.1,8H248z M234,716.7l-0.6-8.3h5.8l0.7,8.3H234
		z M244.1,722.4l-1.3-13.4h5.9l1.3,13.4H244.1z M247.1,705.3l-1.9-11.8h5.9l1.9,11.8H247.1z"/>
	<path d="M266.5,722.4l-1-3.8h4.7l0.8-5.6h-7.2l-1.3,9.4h-5.5l4.2-30.1h18.3l-4.2,30.1H266.5z M260.6,689.6l0.5-3.8h7.4l-1.9-4.8h7
		l1.8,4.8h8.5l3.2-4.8h7l-3.2,4.8h7.4l-0.5,3.8H260.6z M272.1,704.5h-7.2l-0.7,4.7h7.2L272.1,704.5z M273.3,696h-7.2l-0.7,4.8h7.2
		L273.3,696z M279.3,722.4l-1.1-3.8h8.9l3.8-27.4h5.6l-4.4,31.1H279.3z M279.2,715.1l3.1-21.9h5.5l-3.1,21.9H279.2z"/>
	<path d="M306,721.7h-6.6l10-14.9h6.4L306,721.7z M323.4,704.8l-2.5,17.6h-5.4l2.5-17.6h-15.9l0.5-3.8h15.9l1.7-12h-15.5l0.5-3.8
		h15.5l0.6-4.3h5.4l-0.6,4.3h15.4L341,689h-15.4l-1.7,12h16.3l-0.5,3.8H323.4z M310.2,699.4l-4.7-8.7h6.5l4.8,8.7H310.2z
		 M330.7,721.7l-5.6-14.9h6.4l5.8,14.9H330.7z M332.7,699.4h-6.6l7.2-8.7h6.5L332.7,699.4z"/>
	<path d="M354.5,703l-2.7,19.3h-7.5l-1.1-3.8h3.7l1.6-11.2l-4.2,3l0.7-5l4.2-3l1.5-10.9h-3.7l0.5-3.8h3.7l0.9-6.7h5.4l-0.9,6.7h2.6
		l-0.5,3.8h-2.6l-0.9,6.6l3.2-2.3l-0.7,5L354.5,703z M360.7,722.3h-6.1l8.3-9.6l4.5-31.8h5.3l-4.6,33L360.7,722.3z M359.5,714.8h-4
		l4.5-15.3h3.9L359.5,714.8z M360.2,697.4l-0.5-13.9h4.1l0.5,13.9H360.2z M379.7,722.3h-11l5.8-41.4h5.3l-5.3,37.6h7.3L379.7,722.3z
		 M378,714.8l-0.1-15.3h4.1l0.1,15.3H378z M382.4,697.4h-4.2l4.2-13.9h4.2L382.4,697.4z"/>
	<path d="M423.1,722.3h-8.9l-0.4-6.6l-4,4.9h-5.6l-0.2,1.7h-16.9l2.9-20.8h4.9l2.9-20.6h5.7l-1.1,7.6h7.2l-0.5,3.8h-7.2l-1.3,9.2
		h6.3l-2.6,18.3l9.1-10.9l-0.6-11.5l-5.5,0.8l0.5-3.8l4.8-0.7l-0.7-12.7h5.7l0.6,11.9l10.2-1.5l-0.5,3.8l-9.5,1.4l0.3,5.8l3-3.5h6.2
		l-8.8,10.5l0.5,9.2h5.6L423.1,722.3z M400.8,705.3h-5.7l-1.9,13.3h5.7L400.8,705.3z M422.5,690l-1.1-7.7h5.2l1.1,7.7H422.5z"/>
</g>
<g>
	<g>
		<path d="M235.7,145.3h-5l5.9-14.1h5L235.7,145.3z M237.3,129.8l-2.8-9.3h5.1l2.8,9.3H237.3z M238.7,119.2l-3.2-8.6h5.1l3.2,8.6
			H238.7z M264.7,115.6H258l-0.8,5.3h9l-0.4,3.2h-9l-0.7,5.1h7.7l-2.3,16.2h-20.3l2.3-16.2h7.7l0.7-5.1h-9l0.4-3.2h9l0.8-5.3h-8
			l0.4-3.2h15.7l1.2-1.8h5.4L264.7,115.6z M258.6,132.3h-10.7l-1.4,9.8h10.7L258.6,132.3z"/>
		<path d="M291.2,145.3l-0.9-3.2h4.3l3.2-22.5H294l-2.6,18.5l-3.9,7.2h-5.1l0.5-0.9h-3.7l-0.1-2.5l-1.5,2.5h-9.4l0.4-3.2l5.9-15.3
			h-4.1l0.4-3.2h16l-0.4,3.2h-7l-5.9,15.3h5.7l-0.4-10.7h4.6l0.4,12.3l3.1-5.6l2.5-17.6h-2.8l0.4-3.2h2.8l0.8-5.9h4.7l-0.8,5.9h8.4
			l-4.1,28.8H291.2z M272.6,115.2l0.4-3.2h14.5l-0.4,3.2H272.6z"/>
		<path d="M304.8,144.4l4.6-32.6h12.3l-4.6,32.6H304.8z M314.7,129.2h-3.1l-1.7,12h3.1L314.7,129.2z M316.6,115h-3.1l-1.5,11h3.1
			L316.6,115z M337.2,120.8l-3.4,24.5h-10.3l-1.1-3.2h6.9l3-21.3h-11.1l0.4-3.2h11.1l1-7.1h4.8l-1,7.1h2.2l-0.4,3.2H337.2z
			 M323.3,138.7l-1.5-15.4h4.9l1.5,15.4H323.3z"/>
		<path d="M341.2,145.4l3.9-27.8h4.8l-3.9,27.8H341.2z M350.2,116.2l-4.5-5.6h6l4.5,5.6H350.2z M349.7,139.6l3.1-21.7H368l-3.1,21.7
			H349.7z M361.4,130.4h-5.6l-0.9,6.1h5.6L361.4,130.4z M357.2,145.4l-0.9-3.2h11.2l3.9-28h-15.3l0.5-3.2h20.1l-4.8,34.4H357.2z
			 M362.7,121.1h-5.6l-0.9,6.1h5.6L362.7,121.1z"/>
	</g>
	<g>
		<path d="M235.7,368.7h-5l5.9-14.1h5L235.7,368.7z M237.3,353.1l-2.8-9.3h5.1l2.8,9.3H237.3z M238.7,342.6l-3.2-8.6h5.1l3.2,8.6
			H238.7z M264.7,339H258l-0.8,5.3h9l-0.4,3.2h-9l-0.7,5.1h7.7l-2.3,16.2h-20.3l2.3-16.2h7.7l0.7-5.1h-9l0.4-3.2h9l0.8-5.3h-8
			l0.4-3.2h15.7l1.2-1.8h5.4L264.7,339z M258.6,355.7h-10.7l-1.4,9.8h10.7L258.6,355.7z"/>
		<path d="M291.2,368.7l-0.9-3.2h4.3l3.2-22.5H294l-2.6,18.5l-3.9,7.2h-5.1l0.5-0.9h-3.7l-0.1-2.5l-1.5,2.5h-9.4l0.4-3.2l5.9-15.3
			h-4.1l0.4-3.2h16l-0.4,3.2h-7l-5.9,15.3h5.7l-0.4-10.7h4.6l0.4,12.3l3.1-5.6l2.5-17.6h-2.8l0.4-3.2h2.8l0.8-5.9h4.7l-0.8,5.9h8.4
			l-4.1,28.8H291.2z M272.6,338.5l0.4-3.2h14.5l-0.4,3.2H272.6z"/>
		<path d="M304.2,368.3l0.5-3.6l3.1-1.3l2.6-18.3h-2.6l0.4-3.2h2.6l1.1-8h4.7l-1.1,8h2.6l-0.4,3.2h-2.6l-2.3,16.2l3-1.3l-0.5,3.6
			L304.2,368.3z M335.1,368.7h-19.4l2.8-19.6l-2.6,0.9l0.4-3.2l2.6-0.9l1.3-9h4.6l-1,7.3l2.9-1.1l1.3-9.2h4.6l-1.1,7.5l7.8-2.8
			l-3.2,22.7h-5.7l-0.9-3.2h2.5l2.1-14.6l-3,1.1l-2.6,18.8h-4.6l2.4-17.1l-2.9,1l-2.5,18.1H337L335.1,368.7z"/>
		<path d="M345.4,368.7h-5l3.8-8.7h5L345.4,368.7z M362.2,340.4l-0.7,5h12.6l-1.8,12.7h-28.4l1.8-12.7h11l1.6-11.5h4.8l-0.5,3.4
			h14.1l-0.4,3.1H362.2z M368.8,348.6H350l-0.9,6.3h18.8L368.8,348.6z M351.6,368.7l-1.4-8.7h5.1l1.4,8.7H351.6z M359.5,368.7
			l-1.4-8.7h5.1l1.4,8.7H359.5z M367.7,368.7l-1.4-8.7h5.1l1.4,8.7H367.7z"/>
	</g>
	<g>
		<path d="M173.8,204.7c0.1-1.1,0.3-1.6,0.7-2.4c0.8-1.5,2-3,4.1-4.6l0.9-0.8c3.7-3,5.1-4.9,5.1-6.8c0-2-1.6-3.5-3.8-3.5
			c-2.4,0-3.9,1.5-3.9,4l-2.5-0.3c0.3-3.8,2.6-5.8,6.5-5.8c3.7,0,6.3,2.3,6.3,5.6c0,2.4-1.4,4.5-4.9,7.5l-2,1.7
			c-1.7,1.4-2.3,2.1-2.9,3h9.9v2.4H173.8z"/>
		<path d="M197,205c-2.6,0-4.6-1.4-5.6-3.9c-0.6-1.6-0.9-3.6-0.9-6.4c0-6.7,2.2-10.2,6.5-10.2s6.5,3.4,6.5,10.2S201.4,205,197,205z
			 M200.3,189.1c-0.6-1.5-1.8-2.5-3.3-2.5c-2.7,0-4,2.6-4,8.2c0,2.5,0.3,4.4,0.7,5.7c0.6,1.6,1.8,2.5,3.3,2.5s2.7-1,3.3-2.5
			c0.5-1.3,0.7-3.2,0.7-5.7S200.8,190.5,200.3,189.1z"/>
		<path d="M213.6,204.7V189c-0.8,0.8-1.6,1.3-3.1,2.1c-0.9,0.5-1.1,0.6-1.9,0.9v-2.4c2.7-1.2,4.9-3.2,5.8-5h1.6v20.1H213.6z"/>
		<path d="M229.9,205c-2.5,0-4.8-1.4-5.9-3.6c-0.8-1.6-1.1-3.4-1.1-6.1c0-7,2.5-10.8,7.2-10.8c3.2,0,5.3,1.8,5.7,5l-2.5,0.2
			c-0.3-2.1-1.4-3.2-3.2-3.2c-1.8,0-3.2,1-3.9,2.7c-0.5,1.3-0.8,3.1-0.8,4.6v0.4c0.4-0.7,0.7-1,1.2-1.4c1-0.8,2.4-1.3,3.7-1.3
			c3.4,0,5.9,2.8,5.9,6.5C236.2,202.2,233.6,205,229.9,205z M229.7,193.9c-2.3,0-4,1.8-4,4.3c0,2.7,1.8,4.8,4.1,4.8
			c2.2,0,3.8-2,3.8-4.7C233.6,195.7,232.1,193.9,229.7,193.9z"/>
		<path d="M253.7,198.4l0,8.3l-1.8,0l0-8.3l-11.3,0v-1.7l3.6,0v-6.8h7.7v-4.1h-6.3c-1,2-2,4-3.8,5.7l-1.5-1.2c2.2-2,3.7-4.5,4.5-7.2
			l0.6-2.1c0.5,0.2,1,0.4,1.5,0.7c-0.1,0.8-0.4,1.5-0.6,2.3h16.2v1.7l-8.8,0l0,4.1h7.3l0,1.7l-7.3,0v5.1h9.9v1.7L253.7,198.4z
			 M246,191.6v5.1h5.9l0-5.1L246,191.6z"/>
		<path d="M275.5,195.9c-1.1,3-1.8,6.2-2,8.8H271c0.1-2.7,0.9-6.3,2.3-9.7c0.9-2.1,1.8-3.7,3.1-5.7c0.7-1,1-1.3,1.6-2.1h-9.8v-2.4
			h13v1.9C278.6,189.4,276.8,192.3,275.5,195.9z"/>
		<path d="M303.3,205.9l-0.7,0.1l-3.3,0.1c-0.2-0.6-0.4-1.2-0.7-1.9l3.5,0.1c0.6,0,0.7-0.3,0.9-0.6v-6h-10.2
			c-0.3,0.9-0.5,1.9-0.9,2.8c-1,2.5-3.1,4.6-5.2,6.4l-1.2-1.7c0.3-0.4,0.8-0.7,1.2-1c2.6-2.2,4.2-5.1,4.2-8.4l0-13.1h13.9l0,21.4
			C304.8,204.9,304.1,205.7,303.3,205.9z M302.9,184.3l-10.1,0l0,5l10,0V184.3z M303,190.9h-10c-0.1,1.8,0.1,3.3-0.1,5H303V190.9z"
			/>
		<path d="M319.8,204.7V189c-0.8,0.8-1.6,1.3-3.1,2.1c-0.9,0.5-1.1,0.6-1.9,0.9v-2.4c2.7-1.2,4.9-3.2,5.8-5h1.6v20.1H319.8z"/>
		<path d="M348.1,205.7v-2.9h-11.9v2.9h-1.8v-22h15.5v22H348.1z M348.1,185.4h-11.9v6.9h11.9V185.4z M348.1,193.8h-11.9v7.3h11.9
			V193.8z"/>
		<path d="M358.6,205.2v-1.8l10.9,0V199h-7.8v-1.8l7.8,0v-2.7h1.9v2.7h7.8l0,1.7l-7.8,0v4.5h10.9v1.7H358.6z M381,194.3l-0.7,0.5
			c-0.6-0.8-1.2-1.8-2-2.5l-7.9,0.8l-5.5,0.6c-1.1,0.1-2.1,0.3-3.1,0.5c-0.5-0.6-0.7-1.2-1.2-1.8c2.9-2.2,5.8-4.7,7.9-7.8l-9.2,0
			V183h22v1.7l-10.6,0l-0.8,1.1c-1.8,2.4-3.8,4.4-6.2,6.3l0.1,0.1l11.6-1.2c0.4-0.1,0.8-0.1,1.2-0.2c-1.2-1.1-2.1-1.8-3.2-2.4
			l1.3-1.1c1.9,1,3.4,2.3,4.8,3.8c0.9,0.9,1.5,1.7,2.2,2.7C381.6,193.9,381.3,194.2,381,194.3z"/>
		<path d="M393,205c-3.5,0-6-2.2-6.4-5.6l2.5-0.3c0.2,0.9,0.3,1.2,0.5,1.8c0.6,1.4,1.9,2.2,3.4,2.2c2.3,0,4.1-1.8,4.1-4.2
			c0-2.2-1.6-3.9-3.9-3.9c-0.5,0-0.9,0.1-1.7,0.3l0.3-2.2c0.2,0,0.3,0,0.4,0c2.4,0,4.1-1.4,4.1-3.4c0-1.8-1.4-3.1-3.3-3.1
			c-2,0-3.3,1.3-3.6,3.6l-2.5-0.4c0.6-3.3,2.8-5.2,6-5.2c3.3,0,5.9,2.3,5.9,5.2c0,1.8-1,3.2-2.7,4c0.9,0.3,1.2,0.4,1.8,0.8
			c1.3,0.9,2,2.4,2,4.2C399.8,202.3,396.9,205,393,205z"/>
		<path d="M421.8,205.7v-2.9h-11.9v2.9h-1.8v-22h15.5v22H421.8z M421.8,185.4h-11.9v6.9h11.9V185.4z M421.8,193.8h-11.9v7.3h11.9
			V193.8z"/>
	</g>
	<g>
		<path d="M232.3,436.4c-7.8-4.1-10.6-7.9-12.1-12.7h-4.1l0,10.8c1.9-0.8,3.8-1.7,5.9-2.6v1.7c-1.5,0.7-5,2.3-7.1,3.4l-0.8-1.5
			c0.1-0.3,0.3-0.3,0.3-0.5v-11.2h-5.9v-1.6h5.9v-10.8h1.7v8.1c4.1-1.4,8.8-3.9,12-6.4l1.2,1.3c-3.5,2.6-8.3,5-13.2,6.7v1h16.5
			l0,1.6h-10.8c1.5,5.1,6.8,9.2,11.6,11.2L232.3,436.4z"/>
		<path d="M238,431.2l-1.5-1.4c1.3-0.4,2.5-1,3.8-1.5v-7.7h-3V419l3.1,0v-6.1h1.7l0,6.1h2.5l0,1.7H242v6.8l3-1.2v1.8L238,431.2z
			 M260.9,435.7c-0.3,0.6-0.8,0.8-1.3,0.8c-0.9,0-1.6-0.7-2.2-1.4c-0.7-0.9-1.2-1.9-1.6-3c-1.4,1.5-3.1,3-4.7,4.1l-1.4-1.2
			c2-1.3,4.1-3,5.5-4.9c-1-3.8-1.2-7.6-1.5-11.5h-6l0,3.8h5.3c-0.1,2.4-0.2,5.3-0.7,7.9c-0.1,0.7-0.5,1.5-1.3,1.7
			c-1,0.2-1.9-0.1-2.7-0.4l-0.3-1.9c0.7,0.3,1.4,0.7,2.3,0.7c0.5-0.3,0.5-0.9,0.6-1.4c0.2-1.7,0.4-3.3,0.4-5h-3.6
			c-0.1,3.6-0.4,7.6-2.3,10.6c-0.5,0.8-1,1.5-1.6,2.3l-1.6-1.2c1.9-2.2,3.2-4.8,3.4-7.7l0.2-3.3v-7.8l7.7,0
			c-0.1-1.6-0.1-4.1-0.1-5.5h1.6c0.1,1.6,0,3.1,0.1,5.5l5.9,0v1.7l-5.7,0c0,1.7,0.3,3.5,0.4,5.1c0.1,1.5,0.3,3,0.6,4.4
			c1.4-2.4,2.1-4.9,2.5-7.6l1.5,0.6c-0.4,2.6-1.1,4.9-2.2,7.2c-0.3,0.6-0.9,1.4-1.2,2.1c0.5,1.5,1.1,3,2.3,4.1
			c0.3,0.1,0.4-0.1,0.5-0.3c0.3-1.2,0.5-2.4,0.6-3.7l1.7,0.6C261.9,432.9,261.5,434.3,260.9,435.7z M259.5,416.1
			c-0.9-1.3-2.1-2.3-3.6-2.8l1.2-1.1c0.9,0.3,1.7,0.8,2.5,1.4c0.4,0.4,0.8,0.8,1.1,1.2L259.5,416.1z"/>
		<path d="M272.7,436c-0.7,0.4-1.7,0.3-2.5,0.3l-0.6-1.7l1.9,0.2c0.2-0.1,0.4-0.2,0.5-0.4v-7H269c-0.1,3.5-1,6.7-2.4,9.4l-1.4-1.2
			c1-2.1,1.7-4.6,2.1-7.2v-15.8h6.3v22C273.5,435.2,273.2,435.7,272.7,436z M271.9,414.2h-3l0,4.8h3V414.2z M271.9,420.6h-3
			c0.1,2.1,0,3.8,0,5h2.9V420.6z M288.2,431.3c-0.7,0.1-1.5,0.1-2.3,0.1l-0.7-1.7l2,0.2c0.3-0.1,0.4-0.2,0.5-0.5v-14.7h-3.1v22
			l-1.7,0v-3.4c-0.4,0.1-0.6,0.4-1,0.6l-0.6-1.4c-2.2,0.3-4.3,0.6-6.4,1.2c-0.3-0.6-0.6-1.1-0.8-1.7c1-1.8,2.9-4.9,3.3-8h-3.3l0-1.6
			h3.2v-3.8h-2.7v-1.6h2.7v-4.9h1.7v4.9h2.7v1.6H279v3.8h3.3v1.7h-4.6l1.5,0.8c-1.1,2.7-2.4,5.9-3,6.7c1.3-0.1,2.7-0.4,4-0.6
			c-0.4-0.5-0.9-1-1.3-1.5l1.4-0.9c1.1,0.9,1.8,1.8,2.6,3l0.1-18.5h6.5v16.7C289.3,430.4,288.8,431.1,288.2,431.3z"/>
		<path d="M318.4,415.4h-12.1l0,21.6h-1.8l0-21.6h-9.7v-1.7l23.6,0L318.4,415.4z M315,427.6c-2.1-2.9-5.1-4.7-6.9-5.7l0.8-1.3
			c1.6,0.6,3.1,1.6,4.5,2.7c1,0.9,2,1.9,2.9,2.9L315,427.6z"/>
		<path d="M332,436.1c-0.1-0.8,0-1.6,0-2.4l-5.3,0l0,2.3h-1.8v-19.5h2.6c0.6-1.1,1.4-3.1,1.8-5l1.6,0.6c-0.4,1.7-0.9,3.1-1.7,4.4
			h4.6V436L332,436.1z M331.9,418.1h-5.2v6l5.2,0V418.1z M332,425.8l-5.3,0v6.3l5.3,0L332,425.8z M345.2,434.2c-0.3,1-1,2.1-2,2.3
			c-1.2,0.2-2.3-0.2-3.4-0.4c-0.5-0.1-1.1-0.3-1.6-0.5c-0.1-0.6-0.2-1.3-0.3-1.9c1.3,0.5,2.7,0.9,4.1,1.1c0.6,0.1,1-0.2,1.3-0.6
			c0.4-0.8,0.7-1.9,0.9-2.8c0.6-2.7,0.7-5.6,0.9-8.5c0.1-1.7,0.1-3.4,0.2-5.2l-6.5,0c-0.8,2.2-1.8,4.1-3.2,5.9
			c-0.5-0.3-1.1-0.7-1.6-1c0.1-0.2,0.3-0.3,0.4-0.5c2.4-3.2,3.6-6.9,4.3-10.8c0.5,0.2,1.2,0.3,1.7,0.5c-0.1,0.9-0.4,1.9-0.6,2.8
			c-0.1,0.5-0.3,1-0.4,1.5h7.8C346.8,422,347,428.5,345.2,434.2z M341.5,429.6l-0.2,0.1c-0.9-2.4-2.2-4.5-3.8-6.5l1.4-0.9h0.1
			c1.7,2,3,4.2,3.9,6.6C342.5,429.1,342,429.4,341.5,429.6z"/>
		<path d="M353.9,425.3l-1.4-1.3c2.9-2.2,7.1-6.7,8.1-10.9l1.5,1C361.3,417.8,356.2,423.7,353.9,425.3z M372.3,436.1
			c-0.3-1-0.7-2.2-1.2-3.1l-11.1,1.7c-1.1,0.2-2.1,0.4-3.2,0.6l-1.3-1.9c3.1-2.5,6.3-7.9,6.9-12.6l1.8,0.7
			c-0.9,5.3-3.9,9.5-6.2,11.7c2.3-0.2,9.6-1.3,12.3-1.8c-0.9-1.4-1.8-2.7-3.1-3.8l1.7-0.8c2.4,2.3,4.1,5.3,5.1,8.4L372.3,436.1z
			 M374.8,425.3c-3.3-1.9-7.1-7.9-8.3-11.3l1.5-0.9c1.5,4.1,4.3,8.3,8.1,10.9L374.8,425.3z"/>
		<path d="M390.4,429c-1.1-1.3-2.4-2.6-3.8-3.5v11.4h-1.8v-11.3c-1,1.2-2.3,2.2-3.5,3.2l-1.3-1.5c2.1-1.4,3.7-3.1,5.5-5l0.1-0.2
			c0.9-1,1.5-2.1,2.2-3.3h-7.2l0-1.7l9.1,0l0,1.6c-0.7,1.8-1.8,3.4-3.1,4.9v1.5l1.1-1c1.5,0.8,2.9,2.2,3.9,3.5
			C391.3,428.2,390.9,428.6,390.4,429z M385.5,416.7c-0.6-1.6-1.5-3.1-2.7-4.5l1.4-0.8c1.3,1.3,2.3,2.7,2.9,4.3
			C386.7,416.1,386.1,416.4,385.5,416.7z M388.6,435l0-1.7l7.4,0v-10.8h-6.2v-1.7h6.2v-9.2l1.9,0l0,9.2h6.6l0,1.7h-6.6v10.8h7.6v1.7
			L388.6,435z"/>
		<path d="M412,437.3l-0.7-1c1.3-0.6,1.5-1.7,1.5-2.9h-1.4v-2.8h2.8v2.8C414.3,434.3,414.3,436.4,412,437.3z"/>
		<path d="M60.1,476.1v-3.1l-6.5,1.8l-1.1-1.8l7.6-1.8v-8.8H53v-1.8h7.1v-7.7h1.8v23.2H60.1z M75.1,473.8c-0.4,1-1.3,1.6-2.5,1.6H69
			c-2,0-2.8-1.3-2.8-2.3v-20.2h1.8v9c2.4-0.6,4.6-1.7,6.4-3.5l1.5,1.1c-2.2,2.2-5,3.3-7.8,4.1v8.8c0,0.6,0.3,1.1,1,1.1h3.5
			c1.1-0.2,1.1-1.2,1.5-2.4c0.1-0.5,0.2-1.8,0.3-2.4l1.8,0.6C76,470.9,75.7,472.4,75.1,473.8z"/>
		<path d="M81.8,475l-1.1-1.6c2.3-0.7,4.5-1.8,6.4-3.4c0.6-0.4,1.1-1,1.5-1.5l1.2,1.2C87.5,472.3,84.7,474,81.8,475z M81.4,456.4
			v-1.7h11.6c-1-1.2-2.3-2-3.6-2.6l1.3-1.1c1.6,0.6,2.9,1.7,4.1,3l-0.7,0.7H105v1.7H81.4z M94.5,467.2v7.7c0,1.1-0.9,2-2.1,2h-3
			l-0.6-1.9c1.1,0.1,2.1,0.2,3.2,0.1c0.4,0,0.8-0.1,0.8-0.6v-7.3h-7.3v-8.1H101v8.1H94.5z M99.2,460.7h-12v4.8h12V460.7z
			 M104.7,474.9c-0.6-0.5-1.3-1.3-1.9-1.7c-1.9-1.4-3.7-2.7-5.9-3.2l1.1-1.3c2.2,0.6,4.3,1.7,6,3.2l1.9,1.7L104.7,474.9z"/>
		<path d="M119.9,475.2c-6.2,0-10.2-4.1-10.2-10.3c0-4.1,1.8-7.6,4.7-9.2c1.5-0.8,3.3-1.2,5.3-1.2c3.5,0,6.1,1.3,7.4,3.7
			c0.4,0.8,0.5,1.1,0.8,2.2l-2.4,0.7c-0.3-1-0.4-1.3-0.7-1.8c-0.9-1.6-2.8-2.5-5.1-2.5c-4.6,0-7.3,3-7.3,8c0,5.1,2.7,8.1,7.4,8.1
			c1.5,0,2.7-0.3,4.3-1.1c0.8-0.4,1-0.5,1.5-0.9V467h-5.9v-2.4h8.5v7.4C125.5,474.2,122.9,475.2,119.9,475.2z"/>
		<path d="M138.8,475.2c-2.5,0-4.8-1.4-5.9-3.6c-0.8-1.6-1.1-3.4-1.1-6.1c0-7,2.5-10.8,7.2-10.8c3.2,0,5.3,1.8,5.7,5l-2.5,0.2
			c-0.3-2.1-1.4-3.2-3.2-3.2c-1.8,0-3.2,1-3.9,2.7c-0.5,1.3-0.8,3.1-0.8,4.6v0.4c0.4-0.7,0.7-1,1.2-1.4c1-0.8,2.4-1.3,3.7-1.3
			c3.4,0,5.9,2.8,5.9,6.5C145,472.4,142.4,475.2,138.8,475.2z M138.6,464c-2.3,0-4,1.8-4,4.3c0,2.7,1.8,4.8,4.1,4.8
			c2.2,0,3.8-2,3.8-4.7C142.5,465.9,140.9,464,138.6,464z"/>
		<path d="M149.2,475l-1.1-1.6c2.3-0.7,4.5-1.8,6.4-3.4c0.6-0.4,1.1-1,1.5-1.5l1.2,1.2C155,472.3,152.2,474,149.2,475z M148.9,456.4
			v-1.7h11.6c-1-1.2-2.3-2-3.6-2.6l1.3-1.1c1.6,0.6,2.9,1.7,4.1,3l-0.7,0.7h10.8v1.7H148.9z M162,467.2v7.7c0,1.1-0.9,2-2.1,2h-3
			l-0.6-1.9c1.1,0.1,2.1,0.2,3.2,0.1c0.4,0,0.8-0.1,0.8-0.6v-7.3h-7.3v-8.1h15.6v8.1H162z M166.6,460.7h-12v4.8h12V460.7z
			 M172.2,474.9c-0.6-0.5-1.3-1.3-1.9-1.7c-1.9-1.4-3.7-2.7-5.9-3.2l1.1-1.3c2.2,0.6,4.3,1.7,6,3.2l1.9,1.7L172.2,474.9z"/>
		<path d="M201.4,475.9c-0.2,0.4-0.8,0.6-1.1,0.6c-1,0.3-1.6-0.6-2.1-1.3l-1.3-2.3c-1,1.4-2.5,2.8-3.9,3.8l-1.4-1.1
			c0.8-0.4,1-0.7,1.8-1.2l-7.3-0.1v-12h7.7v1.7h-2.2v1.6h2.2v5h-2.1v2h2.6v0.9c0.7-0.6,1.4-1.5,1.9-2.4c-0.9-3.3-1.3-6.9-1.5-10.5
			h-9.9v9.6c0,2.4-0.7,4.8-1.9,6.8l-1.7-0.8c1.5-2.2,2-4.6,1.9-7.4h-1.7c-0.1,2.6-0.7,5-2.6,6.9l-1.4-1c2.1-1.8,2.2-4.2,2.4-5.8
			h-2.2l0-1.7h5.6V465h-4.5v-5.2h1.7v3.6h2.7V459h11.5v-1.4h-0.8v-1.8H185v2h-1.7v-2h-5.9v-1.6h5.9v-2.7h1.7v2.7h8.6v-2.7h1.8v2.6
			h5.9v1.7h-5.9v1.1h0.8v2h1.7c-0.3-0.7-0.6-1.5-1.1-2.1l1.7-0.5c0.4,0.8,0.8,1.7,1,2.5h1.4v1.7h-4.5c0,3,0.4,5.4,0.8,8.1l0.1,0.3
			c0.7-2.1,1.2-4.3,1.3-7l1.5,0.5c-0.3,3.1-0.9,6-2.2,8.6c0.5,1.5,1,2.5,1.9,3.5c0.2,0,0.3-0.4,0.3-0.5l0.3-2.4l1.5,0.6
			C202,473.6,201.8,474.7,201.4,475.9z M189.9,463.9h-2v1.7h2V463.9z M192,467.2h-4.2v1.7h4.2V467.2z M189.9,470.6h-2v2h2V470.6z"/>
		<path d="M206.8,455.4l0-1.7h10.8c-0.5-0.6-1.3-1.4-2-1.8l1.7-0.7c0.8,0.8,1.5,1.6,2,2.6h10.5l0,1.7L206.8,455.4z M227.2,476.2
			c-1,0.2-2.2,0.1-3.3,0.1c-0.2-0.6-0.4-1.1-0.6-1.8c1,0,2.1,0.2,3.1,0c0.5-0.3,0.5-0.9,0.5-1.4v-7.4h-17.2v11.1l-1.8,0l0-12.8
			l20.9,0v9.9C228.7,474.8,228.1,475.9,227.2,476.2z M211.5,462.5l0-5.3h13.7v5.3H211.5z M212.9,473.1v-5.7h10.9l0,5.7H212.9z
			 M223.5,458.8h-10.3l0,2.1l10.3,0V458.8z M222.1,469h-7.5v2.4h7.5L222.1,469z"/>
		<path d="M259.4,475.9h-12.1c-3.9,0-6.3-2.5-7.9-3.9c-1.3,1.3-2.5,2.4-4.2,3.7l-1.1-1.3c1.4-1.1,2.7-2.1,4.3-3.9v-7.6h-3.8v-1.7
			h5.6v9.3c1.8,1.9,3.9,3.7,7.1,3.8c3.3,0.2,7.4,0.1,12.8-0.2L259.4,475.9z M239,457.9c-0.7-1.5-2.1-3.1-3.5-4.3l1.4-1.1
			c1.4,1.2,2.4,2.5,3.6,4.3L239,457.9z M251.2,456.3v2.2h5.9v6.3h-5.9v8.5h-1.7v-8.5c-1.1,3.1-4.1,5.3-6.7,7.1l-1.1-1.4
			c2.6-1.5,5-3.8,5.9-5.8h-3.9v-6.3h5.9v-2.2H242v-1.6h7.4v-3.1h1.7v3.1h7.3v1.6H251.2z M249.4,460.2h-4.2v3.1h4.2V460.2z
			 M255.4,460.2h-4.2v3.1h4.2V460.2z M257.7,471.7c-1.8-1.9-3.8-3.7-6.2-4.5l1.1-1.2c2.4,0.8,4.5,2.6,6.2,4.4L257.7,471.7z"/>
		<path d="M265.3,465.3l-1.4-1.3c2.9-2.2,7.1-6.7,8.1-10.9l1.5,1C272.6,457.8,267.6,463.7,265.3,465.3z M283.7,476.1
			c-0.3-1-0.7-2.2-1.2-3.1l-11.1,1.7c-1.1,0.2-2.1,0.4-3.2,0.6l-1.3-1.9c3.1-2.5,6.3-7.9,6.9-12.6l1.8,0.7
			c-0.9,5.3-3.9,9.5-6.2,11.7c2.3-0.2,9.6-1.3,12.3-1.8c-0.9-1.4-1.8-2.7-3.1-3.8l1.7-0.8c2.4,2.3,4.1,5.3,5.1,8.4L283.7,476.1z
			 M286.2,465.3c-3.3-1.9-7.1-7.9-8.3-11.3l1.5-0.9c1.5,4.1,4.3,8.3,8.1,10.9L286.2,465.3z"/>
		<path d="M316,466.9c-2.5-0.9-4.9-2.3-7-4.2c-2.4,1.9-4.9,3.2-7.6,4.3l-0.5-0.8h-2.8v5.4c1.2-0.5,2.6-1.1,3.8-1.5l0,1.8
			c-1.3,0.6-2.6,1.1-3.8,1.7l-5.8,2.4h-0.1l-1.3-1.5c0.6-0.2,1.1-0.3,1.7-0.6l0-10.1h1.7v9.4l1.9-0.8l0-11.4H293v-8.1l7.8,0l0,8.1
			h-2.8v3.6l2.8,0l0,0.8c2.4-0.9,4.9-2.1,7-3.8c-1.1-1.2-1.8-2.6-2.6-3.9c-0.8,1.3-1.6,2.7-2.7,3.7l-1.5-1c2.6-2.5,3.7-5.8,4.7-9
			c0.5,0.2,1.2,0.4,1.7,0.6c-0.1,0.7-0.6,1.5-0.8,2.2l7.7,0v1.5c-1.1,3.2-2.5,4.5-4.1,6c1.7,1.6,4.7,3.1,7.1,3.9L316,466.9z
			 M299.1,454.5h-4.3v4.8l4.4,0L299.1,454.5z M313.5,476.8h-1.8v-1.7l-6,0v1.8h-1.8l0-10.6h9.5L313.5,476.8z M311.6,467.9l-5.9,0.1
			v5.5h5.9V467.9z M306.2,455.7c0.7,1.7,1.7,3.1,2.9,4.6c1.1-1,2.7-3,3.2-4.6H306.2z"/>
		<path d="M326.8,475.2c-3.6,0-6.1-2.2-6.4-5.6l2.6-0.2c0.4,2.4,1.8,3.8,3.9,3.8c2.4,0,4.2-2.1,4.2-4.9c0-2.7-1.7-4.5-4.3-4.5
			c-1.5,0-2.9,0.7-3.6,1.9l-2.3-0.3l2-10.3h9.9v2.4h-8l-1.1,5.4c1.2-0.8,2.5-1.3,3.8-1.3c3.6,0,6.2,2.8,6.2,6.5
			C333.7,472.2,330.8,475.2,326.8,475.2z"/>
		<path d="M343,475.2c-3.5,0-6-2.2-6.4-5.6l2.5-0.3c0.2,0.9,0.3,1.2,0.5,1.8c0.6,1.4,1.9,2.2,3.4,2.2c2.3,0,4.1-1.8,4.1-4.2
			c0-2.2-1.6-3.9-3.9-3.9c-0.5,0-0.9,0.1-1.7,0.3l0.3-2.2c0.2,0,0.3,0,0.4,0c2.4,0,4.1-1.4,4.1-3.4c0-1.8-1.4-3.1-3.3-3.1
			c-2,0-3.3,1.3-3.6,3.6l-2.5-0.4c0.6-3.3,2.8-5.2,6-5.2c3.3,0,5.9,2.3,5.9,5.2c0,1.8-1,3.2-2.7,4c0.9,0.3,1.2,0.4,1.8,0.8
			c1.3,0.9,2,2.4,2,4.2C349.8,472.5,346.9,475.2,343,475.2z"/>
		<path d="M362.7,463.4c-0.3,0.9-0.5,1.8-0.8,2.7h11.6c-0.5,2.9-1.1,6-2.2,8.7c-0.5,1.2-1.4,1.8-2.6,1.8c-1,0-1.9-0.3-2.8-0.5
			l-0.7-2.2c1,0.4,2.1,0.8,3.2,1c0.4,0.1,0.9-0.2,1.1-0.6c1.1-2.2,1.4-4,1.9-6.5h-11.9l1.3-4.3h-7.6v-1.6h24.1v1.6H362.7z
			 M357.8,460.1v-7.6h14.8v7.6H357.8z M370.8,454.1h-11.3v4.4h11.3V454.1z"/>
		<path d="M390.8,462.9c-0.3,1.1-0.8,2.1-1.3,3.1c-1.5,2.7-4.1,5.3-6.7,7.1l-1.3-1.3c2.2-1.4,4.4-3.3,5.8-5.5c1.7-2,2.3-5,2.6-6.5
			h-6.7v-1.7l8.7,0C391.6,459.8,391.2,461.3,390.8,462.9z M405.5,472.8c-4.8-2.1-8.7-7.4-10.4-12.1l-0.1,13.7c0,0.9-0.5,2.2-1.8,2.4
			h-3.4c-0.2-0.6-0.4-1.3-0.6-1.9c1.1,0.1,2.1,0.1,3.2,0.1c0.6,0,0.8-0.4,0.9-0.8l0-22.7h1.8v5.2c0.6,1.8,1.5,3.7,2.4,5.4
			c0.6-0.2,1.2-0.7,1.7-1.1c1.5-1.2,2.6-2.5,3.8-4.1l1.6,0.8c-0.4,0.7-1,1.4-1.6,2.1c-1.4,1.5-2.9,2.8-4.6,3.8
			c0.3,0.7,0.9,1.5,1.4,2.1c1.9,2.4,4.2,4.5,7,5.5L405.5,472.8z"/>
		<path d="M433.7,476.6c-6.1-2.5-8.3-6-10.1-10.6h-0.7c-1.6,5-6.9,9.5-11.4,10.6l-1.2-1.4c5.2-1.7,9.4-5.4,10.8-9.2h-10.4v-1.6h10.8
			c0.3-1.8,0.1-3.8,0.1-5.5h-9.2v-1.6h6.9c-0.7-1.3-2.1-3.4-3.6-5.3l1.4-0.7c1.7,1.8,3,4,3.9,5.6l-0.6,0.3l3.8,0.1
			c1.2-1.8,2.5-3.8,3.2-6c0.6,0.2,1.1,0.5,1.6,0.8c-0.6,1.6-1.9,4.1-2.9,5.3h7.1v1.6h-9.8c-0.1,1.9,0,3.7-0.2,5.5h11.6
			c0.1,0.5,0,1.1,0,1.6h-9.3c1.2,2.9,3.1,6.5,9.4,9.3L433.7,476.6z"/>
		<path d="M463.2,476.4c-7.8-4.1-10.6-7.9-12.1-12.7H447l0,10.8c1.9-0.8,3.8-1.7,5.9-2.6v1.7c-1.5,0.7-5,2.3-7.1,3.4l-0.8-1.5
			c0.1-0.3,0.3-0.3,0.3-0.5v-11.2h-5.9v-1.6h5.9v-10.8h1.7v8.1c4.1-1.4,8.8-3.9,12-6.4l1.2,1.3c-3.5,2.6-8.3,5-13.2,6.7v1h16.5
			l0,1.6h-10.8c1.5,5.1,6.8,9.2,11.6,11.2L463.2,476.4z"/>
		<path d="M468.8,471.2l-1.5-1.4c1.3-0.4,2.5-1,3.8-1.5v-7.7h-3V459l3.1,0v-6.1h1.7l0,6.1h2.5l0,1.7h-2.5v6.8l3-1.2v1.8L468.8,471.2
			z M491.8,475.7c-0.3,0.6-0.8,0.8-1.3,0.8c-0.9,0-1.6-0.7-2.2-1.4c-0.7-0.9-1.2-1.9-1.6-3c-1.4,1.5-3.1,3-4.7,4.1l-1.4-1.2
			c2-1.3,4.1-3,5.5-4.9c-1-3.8-1.2-7.6-1.5-11.5h-6l0,3.8h5.3c-0.1,2.4-0.2,5.3-0.7,7.9c-0.1,0.7-0.5,1.5-1.3,1.7
			c-1,0.2-1.9-0.1-2.7-0.4l-0.3-1.9c0.7,0.3,1.4,0.7,2.3,0.7c0.5-0.3,0.5-0.9,0.6-1.4c0.2-1.7,0.4-3.3,0.4-5h-3.6
			c-0.1,3.6-0.4,7.6-2.3,10.6c-0.5,0.8-1,1.5-1.6,2.3l-1.6-1.2c1.9-2.2,3.2-4.8,3.4-7.7l0.2-3.3v-7.8l7.7,0
			c-0.1-1.6-0.1-4.1-0.1-5.5h1.6c0.1,1.6,0,3.1,0.1,5.5l5.9,0v1.7l-5.7,0c0,1.7,0.3,3.5,0.4,5.1c0.1,1.5,0.3,3,0.6,4.4
			c1.4-2.4,2.1-4.9,2.5-7.6l1.5,0.6c-0.4,2.6-1.1,4.9-2.2,7.2c-0.3,0.6-0.9,1.4-1.2,2.1c0.5,1.5,1.1,3,2.3,4.1
			c0.3,0.1,0.4-0.1,0.5-0.3c0.3-1.2,0.5-2.4,0.6-3.7l1.7,0.6C492.8,472.9,492.4,474.3,491.8,475.7z M490.4,456.1
			c-0.9-1.3-2.1-2.3-3.6-2.8l1.2-1.1c0.9,0.3,1.7,0.8,2.5,1.4c0.4,0.4,0.8,0.8,1.1,1.2L490.4,456.1z"/>
		<path d="M517.5,476.6v-1.8h-18.6l0.1-8.9h1.9v7.2h7.4v-9.7h-8.6V454l1.9,0v7.5h6.7l0-10.3h2v10.3h6.8V454h1.9v9.2h-8.7v9.8l7.3,0
			V466l1.9,0v10.6H517.5z"/>
		<path d="M545.1,474.8l0-2.4h-14.3l0,2.4h-1.8l0-19.5l17.9,0l0,19.5H545.1z M530.8,457l-0.1,13.7H545l0-13.7H530.8z"/>
	</g>
	<g>
		<rect x="130.8" y="125.5" width="78.3" height="2"/>
	</g>
	<g>
		<rect x="401.9" y="125.5" width="77.4" height="2"/>
	</g>
	<g>
		<rect x="130.8" y="351.2" width="78.3" height="2"/>
	</g>
	<g>
		<rect x="401.9" y="351.2" width="77.4" height="2"/>
	</g>
</g>
</svg>
