<?xml version="1.0" encoding="utf-8"?>
<!-- Generator: Adobe Illustrator 18.0.0, SVG Export Plug-In . SVG Version: 6.00 Build 0)  -->
<!DOCTYPE svg PUBLIC "-//W3C//DTD SVG 1.1//EN" "http://www.w3.org/Graphics/SVG/1.1/DTD/svg11.dtd">
<svg version="1.1" id="图层_1" xmlns="http://www.w3.org/2000/svg" xmlns:xlink="http://www.w3.org/1999/xlink" x="0px" y="0px"
	 viewBox="0 0 960 560" enable-background="new 0 0 960 560" xml:space="preserve">
<g id="XMLID_2_">
	<path id="XMLID_28_" d="M396.6,356.4l2.4-7.6l-6.5,4.7l-6.5-4.6l2.4,7.6l-6.4,4.8l8,0l2.5,7.6l2.5-7.6l8-0.1L396.6,356.4z
		 M571.6,348.8l-6.5,4.7l-6.5-4.6l2.4,7.6l-6.4,4.8l8,0l2.5,7.6l2.5-7.6l8-0.1l-6.4-4.7L571.6,348.8z M479.3,122.2
		c-87,0-157.8,70.8-157.8,157.8s70.8,157.8,157.8,157.8S637.1,367.1,637.1,280S566.3,122.2,479.3,122.2z M479.3,433.1
		c-84.4,0-153-68.6-153-153c0-84.4,68.6-153,153-153c84.4,0,153,68.6,153,153C632.3,364.4,563.6,433.1,479.3,433.1z M479.3,135.8
		c-79.5,0-144.2,64.7-144.2,144.2c0,79.5,64.7,144.2,144.2,144.2c79.5,0,144.2-64.7,144.2-144.2
		C623.5,200.5,558.8,135.8,479.3,135.8z M479.3,419.4c-76.9,0-139.4-62.5-139.4-139.4s62.5-139.4,139.4-139.4
		c76.9,0,139.4,62.5,139.4,139.4S556.1,419.4,479.3,419.4z M497.7,168.9l2.1,0.4c1.5,0.3,2.8,0.4,4,0.3c1.2-0.1,2.2-0.4,3-0.9
		c0.8-0.5,1.5-1.3,2.1-2.3c0.6-1,1-2.2,1.3-3.7c0.6-3,0.3-5.3-0.9-6.8c-1.2-1.5-3.3-2.6-6.2-3.2l-6.9-1.3l-5.4,28.2l4.8,0.9
		L497.7,168.9z M500.1,156.3l1.9,0.4c0.8,0.1,1.4,0.3,1.9,0.6c0.5,0.2,0.9,0.6,1.2,0.9c0.3,0.4,0.4,0.9,0.4,1.5c0,0.6,0,1.3-0.2,2.1
		c-0.2,0.8-0.4,1.5-0.6,2.1c-0.2,0.5-0.6,0.9-0.9,1.2c-0.4,0.3-0.9,0.4-1.4,0.5c-0.6,0-1.2,0-2-0.2l-1.9-0.4L500.1,156.3z
		 M476.9,175.3c-0.8,0-1.5-0.3-2-1c-0.5-0.7-0.9-1.8-1-3.2l-4.7,0.8c0.1,1.1,0.3,2.1,0.7,3c0.4,0.9,0.9,1.8,1.5,2.5
		c0.6,0.7,1.4,1.3,2.3,1.7c0.9,0.4,1.9,0.6,3.1,0.6c1.1,0,2.2-0.2,3.1-0.5c1-0.3,1.8-0.8,2.4-1.5c0.7-0.6,1.2-1.4,1.5-2.3
		c0.4-0.9,0.5-2,0.5-3.2c0-1.3-0.3-2.4-0.8-3.5c-0.5-1-1.1-1.9-1.9-2.8c-0.8-0.8-1.6-1.6-2.5-2.3c-0.9-0.7-1.7-1.4-2.5-2
		c-0.8-0.7-1.4-1.3-1.9-2c-0.5-0.7-0.8-1.4-0.8-2.2c0-0.9,0.2-1.6,0.6-2.1c0.4-0.5,1-0.8,1.8-0.8c0.3,0,0.5,0,0.8,0.1
		c0.3,0.1,0.6,0.3,0.8,0.5c0.3,0.2,0.5,0.6,0.7,1c0.2,0.4,0.3,0.9,0.4,1.5l4.7-0.6c-0.1-1-0.4-1.9-0.8-2.8c-0.4-0.8-0.9-1.6-1.4-2.2
		c-0.6-0.6-1.3-1.1-2.1-1.4c-0.8-0.3-1.7-0.5-2.7-0.5c-2.4,0.1-4.3,0.7-5.6,2c-1.3,1.3-1.9,3-1.9,5.3c0,1.4,0.3,2.6,0.8,3.6
		c0.5,1,1.1,1.9,1.9,2.7c0.8,0.8,1.6,1.5,2.5,2.2c0.9,0.7,1.7,1.3,2.5,2c0.8,0.7,1.4,1.4,1.9,2.1c0.5,0.7,0.8,1.6,0.8,2.5
		c0,0.8-0.2,1.5-0.8,2C478.5,175.1,477.8,175.3,476.9,175.3z M580,274.5l6.4,0.7l0.1,5.4l-6.3,1l0.1,4.8l28.6-5.9l-0.1-6.1
		l-28.8-4.7L580,274.5z M603.1,277.6L603.1,277.6l-12.3,2.3l-0.1-4L603.1,277.6z M579.9,249.4c-0.8,0.5-1.5,1.1-2,1.9
		c-0.5,0.8-0.8,1.6-1,2.6c-0.2,1-0.1,2.1,0.2,3.4c0.3,1.2,0.7,2.2,1.3,3c0.6,0.8,1.3,1.4,2,1.9c0.8,0.4,1.6,0.7,2.6,0.8
		c0.9,0.1,1.9,0,2.9-0.2l3.2-0.8l-1.1-4.8l-3.4,0.8c-0.9,0.2-1.6,0.2-2.2,0c-0.6-0.2-1-0.8-1.2-1.6c-0.2-1-0.1-1.7,0.3-2.2
		c0.4-0.5,1.2-0.8,2.2-1.1l14.2-3.3c1.1-0.2,1.9-0.2,2.5,0c0.6,0.2,1,0.9,1.2,1.8c0.1,0.6,0,1.2-0.4,1.8c-0.4,0.6-1.2,1-2.4,1.3
		l-2.2,0.5l1.1,4.8l2.1-0.5c1-0.2,2-0.6,2.8-1.1c0.9-0.5,1.6-1.1,2.1-1.9c0.6-0.7,0.9-1.6,1.1-2.6c0.2-1,0.2-2.1-0.1-3.3
		c-0.3-1.3-0.7-2.3-1.3-3.1c-0.6-0.8-1.3-1.5-2.1-1.9c-0.8-0.5-1.7-0.7-2.6-0.8c-0.9-0.1-1.9,0-2.9,0.2l-14.4,3.4
		C581.6,248.5,580.7,248.9,579.9,249.4z M442.4,186.1l-1.3-6.3l5.1-1.8l2.9,5.7l4.5-1.6l-14.5-25.3l-5.8,2l4.5,28.8L442.4,186.1z
		 M438.2,163.3l5.9,11l-3.7,1.3L438.2,163.3L438.2,163.3z M577.1,211.7c-0.6,1-1.1,2-1.4,3c-0.3,1.1-0.5,2.1-0.6,3.3
		c-0.1,1.1-0.3,2.2-0.5,3.1c-0.2,1-0.5,1.9-0.8,2.7c-0.4,0.8-1,1.5-1.8,2c-0.7,0.4-1.4,0.6-2.1,0.4c-0.7-0.2-1.2-0.7-1.7-1.4
		c-0.4-0.7-0.5-1.4-0.1-2.3c0.3-0.8,1.1-1.7,2.3-2.5l-3-3.6c-0.9,0.6-1.7,1.3-2.3,2.1c-0.6,0.8-1.1,1.6-1.4,2.6
		c-0.3,0.9-0.4,1.9-0.3,2.9c0.1,1,0.5,2,1.1,2.9c0.6,1,1.3,1.8,2.1,2.4c0.8,0.7,1.6,1.1,2.5,1.4c0.9,0.2,1.8,0.3,2.8,0.1
		c1-0.2,2-0.5,3-1.2c1.1-0.7,2-1.5,2.6-2.5c0.6-1,1.1-2,1.4-3c0.3-1.1,0.6-2.2,0.7-3.3c0.1-1.1,0.3-2.2,0.5-3.2
		c0.2-1,0.5-1.9,0.8-2.7c0.3-0.8,0.8-1.4,1.5-1.8c0.8-0.5,1.5-0.7,2.1-0.6c0.6,0.1,1.2,0.5,1.6,1.2c0.1,0.2,0.2,0.5,0.3,0.8
		c0.1,0.3,0.1,0.6,0,1c-0.1,0.3-0.2,0.7-0.5,1.1c-0.3,0.4-0.6,0.7-1.1,1.1l2.9,3.7c0.8-0.6,1.5-1.3,2-2.1c0.5-0.8,0.9-1.5,1.1-2.3
		c0.2-0.8,0.3-1.6,0.2-2.5c-0.1-0.9-0.5-1.7-1-2.6c-1.3-2.1-2.8-3.3-4.5-3.8c-1.7-0.5-3.6-0.1-5.6,1.1
		C578.6,209.9,577.7,210.7,577.1,211.7z M516.1,186c0.7,0.7,1.7,1.3,2.9,1.8c1.2,0.5,2.3,0.8,3.3,0.8c1,0,1.9-0.2,2.8-0.5
		c0.8-0.4,1.6-0.9,2.2-1.6c0.6-0.7,1.1-1.5,1.5-2.5l5.8-13.6c0.4-0.9,0.6-1.9,0.7-2.8c0.1-0.9,0-1.8-0.4-2.7
		c-0.3-0.9-0.8-1.6-1.5-2.4c-0.7-0.7-1.7-1.3-2.9-1.8c-1.2-0.5-2.3-0.8-3.3-0.8c-1,0-1.9,0.2-2.8,0.5c-0.8,0.4-1.6,0.9-2.2,1.6
		c-0.6,0.7-1.1,1.5-1.5,2.5l-5.8,13.6c-0.4,0.9-0.6,1.9-0.7,2.8c-0.1,0.9,0,1.8,0.4,2.7C514.9,184.5,515.4,185.2,516.1,186z
		 M519.5,179.9l5.7-13.4c0.4-1,0.9-1.7,1.5-2c0.5-0.3,1.3-0.3,2.2,0.1c0.9,0.4,1.5,0.9,1.6,1.5c0.1,0.6,0,1.4-0.4,2.4l-5.7,13.4
		c-0.4,1-0.9,1.7-1.5,2c-0.5,0.3-1.3,0.3-2.2-0.1c-0.9-0.4-1.5-0.9-1.6-1.5C518.9,181.7,519.1,180.9,519.5,179.9z M551.7,209.9
		l3.3,3.6L573,197l3.2,3.5l3.2-2.9l-9.8-10.6l-3.2,2.9l3.2,3.5L551.7,209.9z M536.3,196.8l6.9-9.5c0.4,0.3,0.7,0.5,1.1,0.8
		c0.4,0.3,0.7,0.5,1,0.6l-4.1,11.7l4.1,2.9l4.2-13c0.5,0.1,0.9,0.1,1.5,0.1c0.5,0,1.1-0.2,1.7-0.5c0.6-0.3,1.2-0.7,1.9-1.2
		c0.6-0.5,1.3-1.3,2-2.2c1.8-2.5,2.5-4.6,2.1-6.5c-0.4-1.9-1.7-3.6-3.9-5.2l-5.6-4l-16.8,23.3L536.3,196.8z M550.7,176.9l1.4,1
		c1.1,0.8,1.7,1.6,1.7,2.4c0.1,0.8-0.4,1.9-1.4,3.3c-0.5,0.7-1,1.2-1.4,1.6c-0.4,0.4-0.9,0.6-1.3,0.7c-0.4,0.1-0.9,0.1-1.3-0.1
		c-0.5-0.2-0.9-0.4-1.5-0.8l-1.4-1L550.7,176.9z M405.1,211.3l-3.4-2.7l-5.5,6.9l-6.6-5.3l4-5l-3.4-2.7l-4,5l-5.8-4.6l5.2-6.5
		l-3.3-2.7l-8.2,10.3l22.4,17.9L405.1,211.3z M571.2,321.5l10.6,5.1l-0.9,1.9c-0.7,1.4-1.1,2.6-1.3,3.8c-0.2,1.1-0.2,2.2,0.1,3.1
		c0.3,0.9,0.8,1.8,1.7,2.6c0.8,0.8,1.9,1.5,3.3,2.2c2.7,1.3,5,1.6,6.8,0.9c1.8-0.7,3.4-2.5,4.7-5.2l3.1-6.4l-25.8-12.4L571.2,321.5z
		 M584,332c0.1-0.5,0.3-1.2,0.7-1.9l0.8-1.7l7.9,3.8l-0.8,1.7c-0.3,0.7-0.7,1.3-1.1,1.7c-0.4,0.4-0.8,0.7-1.2,0.9
		c-0.4,0.2-0.9,0.2-1.5,0c-0.6-0.1-1.2-0.4-2-0.7c-0.8-0.4-1.4-0.7-1.8-1.1c-0.5-0.4-0.8-0.8-0.9-1.2C583.9,333,583.9,332.5,584,332
		z M381.4,304.5l-27.7,7.6l1.3,4.7l27.7-7.6L381.4,304.5z M389.7,326.5l-16.2,7.7l0-0.1l13.4-13.4l-1.9-3.9l-25.9,12.4l1.9,4
		l14.8-7.1l0,0.1l-12.2,12.5l2,4.1l25.9-12.4L389.7,326.5z M579.1,295.5l21.9,4.7l0,0.1l-22.8-0.3l-0.5,2.3l21,9l0,0.1l-21.9-4.7
		l-0.9,4.2l28.1,6l1.4-6.3l-15.7-6.9l0-0.1l17.1,0.1l1.4-6.3l-28.1-6L579.1,295.5z M379.6,262.8l-4.3-0.4l-0.9,8.8l-8.4-0.8l0.6-6.3
		l-4.3-0.4l-0.6,6.3l-7.4-0.7l0.8-8.2l-4.3-0.4l-1.3,13.1l28.5,2.8L379.6,262.8z M379.1,291.9l-10.1,1l-3.3-1.4l0-0.1l12.9-5.3
		l-0.5-5l-17.3,7.8l-11.2-4.2l0.5,4.9l11.1,4.1l0,0.1l-10.6,1.1l0.5,4.9l28.5-2.9L379.1,291.9z M415.2,202.2c2-1.6,3-3.4,3.2-5.3
		c0.1-1.9-0.7-4-2.6-6.3l-7.2-8.8c-1.9-2.3-3.8-3.6-5.7-3.8c-1.9-0.3-3.9,0.4-5.8,2.1l-5.7,4.6l18.1,22.2L415.2,202.2z M399.1,183.5
		c1-0.8,1.9-1.2,2.7-1.1c0.8,0.1,1.6,0.8,2.6,1.9l7.9,9.7c1,1.2,1.4,2.1,1.4,2.9c0,0.8-0.6,1.6-1.6,2.4l-1.3,1.1l-13-15.9
		L399.1,183.5z M385.8,241.7l-20.2-9.7l0-0.1l22.1,5.7l1-2.2l-18.3-13.7l0-0.1l20.2,9.7l1.9-3.9l-25.9-12.4l-2.8,5.8l13.6,10.4
		l0,0.1l-16.6-4.1l-2.8,5.8l25.9,12.4L385.8,241.7z M432.4,190.7l-13.9-25.1l-4.3,2.4l13.9,25.1L432.4,190.7z M457.4,339.9
		c0.7,1.1,2.2,1.5,3.3,0.8c1.1-0.7,1.5-2.2,0.8-3.3l-4.4-7.2c-0.4-0.7-1.2-1.1-2-1.2c-0.8,0-1.6,0.4-2.1,1.1L414.7,391
		c-0.7,1.1-0.4,2.6,0.8,3.3c0.4,0.3,0.8,0.4,1.3,0.4c0.8,0,1.6-0.4,2-1.1L455,336L457.4,339.9z M536.4,351.9
		c21.1-16.8,34.7-42.8,34.7-71.9c0-50.6-41.2-91.8-91.8-91.8c-50.6,0-91.8,41.2-91.8,91.8c0,29.3,13.8,55.5,35.3,72.3L402.2,383
		c-0.7,1.1-0.4,2.6,0.7,3.3c0.4,0.3,0.9,0.4,1.3,0.4c0.8,0,1.5-0.4,2-1.1l27.2-40.6c0.7-1.1,0.4-2.6-0.7-3.3
		c-1.1-0.7-2.6-0.4-3.3,0.7l-4,5.9c-20.2-15.9-33.2-40.6-33.2-68.3c0-48,39-87,87-87c48,0,87,39,87,87c0,27.4-12.7,51.9-32.6,67.8
		l-3.7-5.5c-0.7-1.1-2.2-1.4-3.3-0.7c-1.1,0.7-1.4,2.2-0.7,3.3l27.4,41c0.5,0.7,1.2,1.1,2,1.1c0.5,0,0.9-0.1,1.3-0.4
		c1.1-0.7,1.4-2.2,0.7-3.3L536.4,351.9z M481.3,322.3c-0.4-0.7-1.2-1.2-2.1-1.2h0c-0.9,0-1.6,0.5-2.1,1.2L431.6,400
		c-0.7,1.2-0.3,2.6,0.9,3.3c1.2,0.7,2.6,0.3,3.3-0.9l43.4-74.1l43.3,74.3c0.4,0.8,1.3,1.2,2.1,1.2c0.4,0,0.8-0.1,1.2-0.3
		c1.2-0.7,1.5-2.1,0.9-3.3L481.3,322.3z M506.4,330.2c-0.4-0.7-1.2-1.1-2-1.1h0c-0.8,0-1.6,0.4-2,1.2l-4.4,7.2
		c-0.7,1.1-0.3,2.6,0.8,3.3c1.1,0.7,2.6,0.3,3.3-0.8l2.4-3.9l35.6,56.6c0.5,0.7,1.2,1.1,2,1.1c0.4,0,0.9-0.1,1.3-0.4
		c1.1-0.7,1.5-2.2,0.8-3.3L506.4,330.2z"/>
	<path id="XMLID_15_" d="M432.3,256.2c-4.4,6.7-6.3,14.1-3.3,18.9c5.3,8.6,18.1,4.6,26.3,1.2l75.7-32L456.2,264
		c-6.3,1.6-11.3,1.4-14.2-0.6c-7.4-5.4-1.7-16.2,0.2-19.5C438.7,247.9,435.1,251.9,432.3,256.2z"/>
</g>
</svg>
