
<svg width="25px" height="34px" viewBox="457 263 25 34" version="1.1" xmlns="http://www.w3.org/2000/svg" xmlns:xlink="http://www.w3.org/1999/xlink">
    <!-- Generator: Sketch 3.8.1 (29687) - http://www.bohemiancoding.com/sketch -->
    <desc>Created with Sketch.</desc>
    <defs></defs>
    <g id="voice" stroke="none" stroke-width="1" fill="none" fill-rule="evenodd" transform="translate(457.000000, 263.000000)">
        <path d="M0.4,16.9 C0.4,23.4 3,29.3 7.3,33.6 L10.4,30.5 C6.9,27 4.8,22.2 4.8,16.9 C4.8,11.6 7,6.8 10.4,3.3 L7.3,0.2 C3,4.5 0.4,10.4 0.4,16.9 L0.4,16.9 Z" id="Shape" fill="#FFFFFF"></path>
        <path d="M9.9,16.9 C9.9,20.8 11.5,24.3 14,26.9 L17.1,23.8 C15.3,22 14.2,19.6 14.2,16.9 C14.2,14.2 15.3,11.8 17.1,10 L14,7 C11.4,9.5 9.9,13.1 9.9,16.9 L9.9,16.9 Z" id="Shape" fill="#000000"></path>
        <path d="M19.7,16.9 C19.7,18.1 20.2,19.1 21,19.9 L24,16.9 L21,13.9 C20.2,14.7 19.7,15.8 19.7,16.9 L19.7,16.9 Z" id="Shape" fill="#000000"></path>
    </g>
</svg>