<?xml version="1.0" encoding="utf-8"?>
<!-- Generator: Adobe Illustrator 18.0.0, SVG Export Plug-In . SVG Version: 6.00 Build 0)  -->
<!DOCTYPE svg PUBLIC "-//W3C//DTD SVG 1.1//EN" "http://www.w3.org/Graphics/SVG/1.1/DTD/svg11.dtd">
<svg version="1.1" id="图层_1" xmlns="http://www.w3.org/2000/svg" xmlns:xlink="http://www.w3.org/1999/xlink" x="0px" y="0px"
	 viewBox="0 0 960 560" enable-background="new 0 0 960 560" xml:space="preserve">
<path d="M457.4,279.9c0,6.5,2.6,12.4,6.9,16.7l3.1-3.1c-3.5-3.5-5.6-8.3-5.6-13.6s2.2-10.1,5.6-13.6l-3.1-3.1
	C460,267.5,457.4,273.4,457.4,279.9z"/>
<path d="M466.9,279.9c0,3.9,1.6,7.4,4.1,10l3.1-3.1c-1.8-1.8-2.9-4.2-2.9-6.9s1.1-5.1,2.9-6.9L471,270
	C468.4,272.5,466.9,276.1,466.9,279.9z"/>
<path d="M476.7,279.9c0,1.2,0.5,2.2,1.3,3l3-3l-3-3C477.2,277.7,476.7,278.8,476.7,279.9z"/>
</svg>
